<svg xmlns="http://www.w3.org/2000/svg" width="148" height="148" viewBox="0 0 148 148">
  <g id="Group_27" data-name="Group 27" transform="translate(-714 -6633)">
    <circle id="Ellipse_3" data-name="Ellipse 3" cx="74" cy="74" r="74" transform="translate(714 6633)" fill="#fff"/>
    <g id="_015-architecture_and_city" data-name="015-architecture and city" transform="translate(747 6662)">
      <path id="Path_79" data-name="Path 79" d="M75.469,103.212l-.685-.477c-1.149-.8-2.278-1.623-3.408-2.448V82.113h-11.9v8.682A176.421,176.421,0,0,1,41.291,72.512l-.447-.52H36.477l-.446.52A177.4,177.4,0,0,1,2.538,102.735l-.681.474A4.286,4.286,0,0,0,0,106.717a4.379,4.379,0,0,0,4.437,4.309h.006a4.527,4.527,0,0,0,2.378-.672l.9-.563c.125-.087.247-.178.372-.266l5,27.52H11.9a7.342,7.342,0,0,0-7.435,7.228v4.337h68.4v-4.337a7.342,7.342,0,0,0-7.435-7.228h-1.2l5-27.523c.152.106.3.217.452.323l.887.534a4.505,4.505,0,0,0,2.331.646,4.372,4.372,0,0,0,4.427-4.312A4.272,4.272,0,0,0,75.469,103.212ZM68.4,85V87.9H62.453V85Zm-5.948,5.782H68.4v7.277q-3.024-2.3-5.948-4.731Zm7.435,53.487v1.446H7.435v-1.446a4.406,4.406,0,0,1,4.461-4.337H65.427A4.406,4.406,0,0,1,69.888,144.274Zm-29.74-7.228v-7.228H49.07v7.228Zm0-10.119v-10a10.223,10.223,0,0,1,8.922,10Zm-2.974,0H28.253a10.223,10.223,0,0,1,8.922-10Zm-8.922,2.891h8.922v7.228H28.253Zm32.953,7.228H52.044V126.927a13.388,13.388,0,0,0-26.766,0v10.119H16.117l-5.347-29.43A186.642,186.642,0,0,0,38.661,82.826a186.6,186.6,0,0,0,27.892,24.788ZM72.9,108.134a1.486,1.486,0,0,1-.765-.211l-.806-.481A183.721,183.721,0,0,1,39.78,79.692l-1.118-1.24L37.545,79.69A183.71,183.71,0,0,1,6.064,107.4l-.837.517a1.5,1.5,0,0,1-.793.221h0a1.44,1.44,0,0,1-1.459-1.418,1.408,1.408,0,0,1,.613-1.155l.681-.474a180.313,180.313,0,0,0,33.6-30.2h1.584a180.313,180.313,0,0,0,33.6,30.2l.685.477a1.4,1.4,0,0,1,.61,1.156A1.434,1.434,0,0,1,72.9,108.134Zm0,0" transform="translate(0 -58.611)" fill="#73a895"/>
      <path id="Path_80" data-name="Path 80" d="M398.745,6.073A7.435,7.435,0,0,0,384,7.435V20.818h13.383a7.435,7.435,0,0,0,1.362-14.745Zm-1.362,11.771H386.974V7.435a4.461,4.461,0,0,1,8.922,0V8.922h1.487a4.461,4.461,0,1,1,0,8.922Zm0,0" transform="translate(-314.818)" fill="#73a895"/>
      <path id="Path_81" data-name="Path 81" d="M253.948,16.357h10.409V5.948a5.948,5.948,0,0,0-11.744-1.335,5.948,5.948,0,0,0,1.335,11.744Zm0-8.922h1.487V5.948a2.974,2.974,0,0,1,5.948,0v7.435h-7.435a2.974,2.974,0,0,1,0-5.948Zm0,0" transform="translate(-203.236)" fill="#73a895"/>
      <path id="Path_82" data-name="Path 82" d="M316.059,284.375l1.672-13.383,2.951.369-1.673,13.383Zm0,0" transform="translate(-258.783 -222.03)" fill="#73a895"/>
      <path id="Path_83" data-name="Path 83" d="M312.059,361.959l.372-2.975,2.951.369-.372,2.975Zm0,0" transform="translate(-255.487 -293.906)" fill="#73a895"/>
      <path id="Path_84" data-name="Path 84" d="M165.994,184a6.515,6.515,0,0,0-3.585,1.064A6.512,6.512,0,0,0,158.824,184h-.274a6.55,6.55,0,0,0-4.193,11.582l8.052,6.71,8.052-6.71A6.55,6.55,0,0,0,166.268,184Zm3.85,6.55a3.567,3.567,0,0,1-1.287,2.748l-6.148,5.123-6.148-5.123a3.577,3.577,0,0,1,2.289-6.324h.274a3.548,3.548,0,0,1,2.53,1.048l1.059,1.051,1.051-1.051a3.554,3.554,0,0,1,2.531-1.048h.274A3.581,3.581,0,0,1,169.844,190.55Zm0,0" transform="translate(-124.615 -150.814)" fill="#73a895"/>
    </g>
  </g>
</svg>
