<svg xmlns="http://www.w3.org/2000/svg" width="133.906" height="136.726" viewBox="0 0 133.906 136.726">
  <g id="Group_34" data-name="Group 34" transform="translate(-631 -4140)">
    <circle id="Ellipse_2" data-name="Ellipse 2" cx="66.953" cy="66.953" r="66.953" transform="translate(631 4140)" fill="#fff"/>
    <g id="_016-celebration" data-name="016-celebration" transform="translate(632.81 4211.768) rotate(-45)">
      <path id="Path_45" data-name="Path 45" d="M5.849,32.167H19.008a7.311,7.311,0,0,0,1.339-14.5,7.27,7.27,0,0,0-.515-1.589,7.093,7.093,0,0,0,.638-2.92A7.325,7.325,0,0,0,14.5,5.971,7.311,7.311,0,0,0,0,7.311V20.47H5.849Zm17.546-7.311a4.392,4.392,0,0,1-4.386,4.386H8.773V19.008a4.386,4.386,0,1,1,8.773,0V20.47h1.462A4.392,4.392,0,0,1,23.395,24.857ZM2.924,7.311a4.386,4.386,0,1,1,8.773,0V8.773h1.462a4.392,4.392,0,0,1,4.386,4.386c0,.01,0,.019,0,.029A7.243,7.243,0,0,0,13.159,11.7,7.324,7.324,0,0,0,6,17.546H2.924Zm0,0" transform="translate(51.781 10.841)" fill="#73a895"/>
      <path id="Path_46" data-name="Path 46" d="M0,2.068,2.068,0,4.136,2.068,2.068,4.136Zm0,0" transform="translate(50.495 70.861)" fill="#73a895"/>
      <path id="Path_47" data-name="Path 47" d="M0,1.965,1.964,0,4.032,2.068,2.068,4.032Zm0,0" transform="translate(54.632 66.83)" fill="#73a895"/>
      <path id="Path_48" data-name="Path 48" d="M0,2.068,2.068,0,4.136,2.068,2.068,4.136Zm0,0" transform="translate(46.359 74.998)" fill="#73a895"/>
      <path id="Path_49" data-name="Path 49" d="M0,2.068,2.068,0,4.992,2.924,2.924,4.991Zm0,0" transform="translate(34.663 74.142)" fill="#73a895"/>
      <path id="Path_50" data-name="Path 50" d="M0,2.068,2.068,0,18.151,16.083l-2.068,2.068Zm0,0" transform="translate(17.117 56.596)" fill="#73a895"/>
      <path id="Path_51" data-name="Path 51" d="M91.865,32.773,59.092,0,43.738,15.354,30.578,18.278,0,48.857,43.008,91.865,73.586,61.286,76.51,48.127Zm-4.135,0L61.411,59.092H44.47V57.63A10.247,10.247,0,0,0,34.235,47.394H32.773V30.454L59.092,4.135ZM29.849,47.394H5.6L29.849,23.143Zm4.386,2.924a7.319,7.319,0,0,1,7.311,7.311V86.267L5.6,50.319Zm10.235,11.7H68.721L44.47,86.267Zm-11.7-35.7V20.786l7.113-1.581ZM71.078,59.092H65.546l7.113-7.114Zm0,0" fill="#73a895"/>
      <path id="Path_52" data-name="Path 52" d="M0,2.068,2.068,0,26.924,24.857l-2.068,2.068Zm0,0" transform="translate(37.587 27.353)" fill="#73a895"/>
      <path id="Path_53" data-name="Path 53" d="M0,2.068,2.068,0,26.924,24.857l-2.068,2.068Zm0,0" transform="translate(33.201 31.739)" fill="#73a895"/>
    </g>
  </g>
</svg>
