<?xml version="1.0" encoding="utf-8"?>
<!-- Generator: Adobe Illustrator 23.0.3, SVG Export Plug-In . SVG Version: 6.00 Build 0)  -->
<svg version="1.1" id="Layer_1" xmlns="http://www.w3.org/2000/svg" xmlns:xlink="http://www.w3.org/1999/xlink" x="0px" y="0px"
	 viewBox="0 0 148 148" style="enable-background:new 0 0 148 148;" xml:space="preserve">
<style type="text/css">
	.st0{fill:#FFFFFF;}
	.st1{fill:#73A895;}
</style>
<g id="Group_31" transform="translate(-1258 -6633)">
	<circle id="Ellipse_5" class="st0" cx="1332" cy="6707" r="74"/>
	<path class="st1" d="M1342.6,6695.6c1.4-1.4,2.2-3.3,2.2-5.3c0-4.1-3.3-7.4-7.4-7.4c-2,0-3.9,0.8-5.3,2.2l-0.1,0.1l-0.1-0.1
		c-1.4-1.4-3.3-2.2-5.3-2.2c-4.1,0-7.4,3.3-7.4,7.4c0,2,0.8,3.9,2.2,5.3l10.6,10.6L1342.6,6695.6z M1322.1,6690.3
		c0-2.5,2.1-4.6,4.6-4.6c1.2,0,2.4,0.5,3.3,1.3l2.1,2.1l2.1-2.1c0.9-0.9,2-1.3,3.3-1.3c2.5,0,4.6,2.1,4.6,4.6c0,1.2-0.5,2.4-1.3,3.3
		l-8.6,8.6l-8.6-8.6C1322.5,6692.7,1322.1,6691.5,1322.1,6690.3z"/>
	<path class="st1" d="M1341.3,6734.2l-2.8-0.4l-1.2,8.7h-5.2v2.8h7.7L1341.3,6734.2z"/>
	<path class="st1" d="M1326.3,6742.5h2.8v2.8h-2.8V6742.5z"/>
	<path class="st1" d="M1361.8,6691.4c0-15.6-12.7-28.3-28.3-28.3h-2.9c-15.6,0-28.3,12.7-28.3,28.3c0,5.9,1.8,11.5,5.2,16.3l6.7,9.4
		c-2.7,0.7-4.7,3.1-4.7,6c0,1.9,0.8,3.6,2.2,4.8l5.2,4.3l1.8,12.6c0.5,3.5,3.5,6.1,7,6.1h12.9c3.5,0,6.5-2.6,7-6.1l2-13.8h0.2
		c1.6,0,2.8-1.3,2.8-2.8v-2.8c0-1.6-1.3-2.8-2.8-2.8h-1.5l10.5-14.9C1360,6702.9,1361.8,6697.2,1361.8,6691.4z M1334.3,6722.6h-5.2
		c-0.2-2.3-1.7-4.3-3.8-5.2c-4.1-5.6-8.9-14.6-8.9-26c0-16.9,12.7-24,15.6-25.4c2.9,1.4,15.6,8.5,15.6,25.4
		C1347.6,6708.6,1336.4,6720.5,1334.3,6722.6z M1305,6691.4c0-12.6,9.2-23.1,21.3-25.1c-5.3,3.9-12.7,11.8-12.7,25.2
		c0,10.8,4,19.6,8,25.6c-0.8,0.1-1.6,0.4-2.3,0.9c-0.5-0.3-1.1-0.6-1.7-0.8l-7.8-11.1C1306.7,6701.7,1305,6696.7,1305,6691.4z
		 M1312.1,6723.2c0-1.9,1.5-3.4,3.4-3.4h0.3c0.9,0,1.8,0.4,2.3,0.9l1,1.2l1.1-1.1c0.6-0.6,1.5-1,2.4-1h0.3c1.9,0,3.4,1.5,3.4,3.4
		c0,1-0.4,2-1.2,2.6l-5.9,4.9l-5.9-4.9C1312.6,6725.2,1312.1,6724.2,1312.1,6723.2z M1342.6,6744.5c-0.3,2.1-2.1,3.7-4.2,3.7h-12.9
		c-2.1,0-3.9-1.6-4.2-3.7l-1.5-10.6l3.3-2.8h21.4L1342.6,6744.5z M1347.6,6728.3h-21.1l0.4-0.3c0.8-0.7,1.4-1.6,1.8-2.5h18.9V6728.3
		z M1342.6,6722.6h-4.4c4.2-4.7,12.3-15.8,12.3-31.2c0-13.3-7.5-21.2-12.7-25.2c12,2,21.3,12.5,21.3,25.1c0,5.3-1.6,10.4-4.7,14.7
		L1342.6,6722.6z"/>
	<path class="st1" d="M1335.6,6711.9l2.4,1.5c2.4-3.8,4.2-7.7,5.4-11.7l-2.7-0.8C1339.5,6704.7,1337.8,6708.4,1335.6,6711.9z"/>
	<path class="st1" d="M1331.4,6717.4l2.1,1.9c0.8-0.9,1.6-1.9,2.4-2.9l-2.3-1.7C1332.9,6715.6,1332.2,6716.5,1331.4,6717.4z"/>
</g>
</svg>
