<?xml version="1.0" encoding="utf-8"?>
<!-- Generator: Adobe Illustrator 23.0.3, SVG Export Plug-In . SVG Version: 6.00 Build 0)  -->
<svg version="1.1" id="Layer_1" xmlns="http://www.w3.org/2000/svg" xmlns:xlink="http://www.w3.org/1999/xlink" x="0px" y="0px"
	 viewBox="0 0 133.9 133.9" style="enable-background:new 0 0 133.9 133.9;" xml:space="preserve">
<style type="text/css">
	.st0{fill:#FFFFFF;}
	.st1{fill:#4D4D4A;}
</style>
<g id="Group_36" transform="translate(-748 -5706)">
	<g id="Group_35" transform="translate(117 1566)">
		<circle id="Ellipse_2" class="st0" cx="698" cy="4207" r="67"/>
	</g>
	<g>
		<path class="st1" d="M828.8,5769.4c-2.7-1.9-6.5-1.6-8.9,0.8c-2.7,2.7-2.7,7.2,0,9.9l8.9,8.9l8.9-8.9c2.7-2.7,2.7-7.2,0-9.9
			C835.3,5767.8,831.5,5767.6,828.8,5769.4z M835.8,5778.2l-6.9,6.9l-6.9-6.9c-1.6-1.6-1.6-4.3,0-5.9c1.6-1.6,4.3-1.6,5.9,0l1,1l1-1
			c1.6-1.6,4.3-1.6,5.9,0C837.4,5773.9,837.4,5776.5,835.8,5778.2z"/>
		<path class="st1" d="M778.9,5747.1v52.3H851v-52.3H778.9z M803,5755.5h39.6v35.5l-55.3,0v-19.8L803,5755.5z M781.7,5772.8v-4
			l19-19h4L781.7,5772.8z M787.3,5759.3v-3.8l3.8,0L787.3,5759.3z M796.7,5749.9l-2.8,2.8h-9.4v9.4l-2.8,2.8v-15H796.7z
			 M781.7,5796.6v-19.8l2.8-2.8v19.8h60.9v-41.1h-39.6l2.8-2.8h39.6v46.7H781.7z"/>
		<path class="st1" d="M790.8,5787.5h18.6v-7.9h5.9v-14.7h-18.6v7.9h-5.9V5787.5z M793.6,5784.7v-9.1h13v9.1H793.6z M799.5,5767.7
			h13v9.1h-3.1v-4h-9.9V5767.7z"/>
		<path class="st1" d="M802.1,5761.8v-2.8h37.6l0,2.8L802.1,5761.8z"/>
	</g>
</g>
</svg>
