<svg height="491.672pt" viewBox="0 0 491.672 491.672" width="491.672pt" xmlns="http://www.w3.org/2000/svg"><path d="m459.671875 120v-56h-16v56c0 4.40625-3.59375 8-8 8-1.390625 0-2.710937-.34375-3.917969-1.03125l-7.882812 13.917969c3.585937 2.042969 7.664062 3.113281 11.800781 3.113281 13.230469 0 24-10.769531 24-24zm0 0"/><path d="m443.671875 32h16v15.617188h-16zm0 0"/><path d="m435.671875 176c30.878906 0 56-25.121094 56-56v-120h-120c-30.878906 0-56 25.121094-56 56 0 22.855469 13.785156 42.535156 33.464844 51.222656l-18.351563 18.351563-71.671875-50.589844c-37.867187-26.726563-82.058593-41.480469-128.21875-42.871094-3.679687-18.289062-19.871093-32.113281-39.222656-32.113281-22.054687 0-40 17.945312-40 40 0 .519531.136719 1.007812.152344 1.527344h-.007813l.015625.074218c.167969 4.085938.96875 7.992188 2.28125 11.679688l55.167969 282.71875h-62.3125l-46.96875 84.535156 47.632812 15.871094c1.960938 3.066406 4.550782 5.664062 7.613282 7.625l15.890625 47.640625 84.535156-46.960937v-62.320313l282.71875 55.167969c3.6875 1.3125 7.59375 2.113281 11.679687 2.28125l.066407.015625v-.007813c.527343.015625 1.015625.152344 1.535156.152344 22.054687 0 40-17.945312 40-40 0-19.359375-13.824219-35.542969-32.113281-39.214844-1.390625-46.160156-16.144532-90.34375-42.871094-128.21875l-50.589844-71.671875 18.351563-18.351562c8.6875 19.671875 28.367187 33.457031 51.222656 33.457031zm-104-120c0-22.054688 17.945313-40 40-40h104v104c0 22.054688-17.945313 40-40 40s-40-17.945312-40-40v-24h-24c-22.054687 0-40-17.945312-40-40zm-240-40c13.230469 0 24 10.769531 24 24v8h8c45.441406 0 89.082031 13.847656 126.207031 40.054688l69.425782 49-12.578126 12.578124-69.285156-47.632812c-36.167968-24.855469-78.480468-38-122.371094-38h-23.398437c-9.832031 0-18.28125-5.953125-21.984375-14.433594l-1.96875-10.078125c.28125-12.992187 10.890625-23.488281 23.953125-23.488281zm33.054687 315.632812-49.839843-255.457031c5.121093 2.390625 10.769531 3.824219 16.785156 3.824219h23.398437c40.640626 0 79.816407 12.167969 113.304688 35.191406l66.839844 45.953125zm-68.351562 20.367188h47.984375l-53.375 53.375c-3.542969 3.546875-5.914063 8.128906-6.847656 13.015625l-20.792969-6.925781zm23.832031 116.328125-6.925781-20.785156c4.894531-.917969 9.40625-3.253907 13.007812-6.855469l53.382813-53.375v47.976562zm250.320313-271.871094 45.953125 66.839844c23.023437 33.488281 35.191406 72.664063 35.191406 113.304687v23.398438c0 6.015625 1.433594 11.664062 3.816406 16.792969l-255.449219-49.847657zm73.089844 45.335938c26.207031 37.117187 40.054687 80.765625 40.054687 126.207031v8h8c13.230469 0 24 10.769531 24 24 0 13.0625-10.496094 23.671875-23.496094 23.953125l-10.078125-1.96875c-8.472656-3.710937-14.425781-12.152344-14.425781-21.984375v-23.398438c0-43.890624-13.144531-86.203124-38-122.371093l-47.632813-69.285157 12.578126-12.578124zm-328.632813 187.582031c-1.695313 1.695312-3.945313 2.625-6.34375 2.625-4.945313 0-8.96875-4.023438-8.96875-8.96875 0-2.359375.960937-4.671875 2.625-6.34375l304.910156-304.910156c1.480469.109375 2.960938.222656 4.464844.222656h8v8c0 1.503906.113281 2.984375.222656 4.464844zm0 0"/></svg>