<svg height="496pt" viewBox="-80 0 496 496" width="496pt" xmlns="http://www.w3.org/2000/svg"><path d="m227.710938 183.601562c7.921874-7.921874 12.289062-18.457031 12.289062-29.65625 0-23.128906-18.816406-41.945312-41.945312-41.945312-11.199219 0-21.734376 4.359375-29.65625 12.289062l-.398438.398438-.398438-.398438c-7.929687-7.929687-18.457031-12.289062-29.65625-12.289062-23.128906 0-41.945312 18.816406-41.945312 41.945312 0 11.199219 4.359375 21.734376 12.289062 29.65625l59.710938 59.710938zm-115.710938-29.65625c0-14.304687 11.640625-25.945312 25.945312-25.945312 6.925782 0 13.4375 2.695312 18.34375 7.601562l11.710938 11.710938 11.710938-11.710938c4.90625-4.898437 11.417968-7.601562 18.34375-7.601562 14.304687 0 25.945312 11.640625 25.945312 25.945312 0 6.925782-2.695312 13.4375-7.601562 18.34375l-48.398438 48.398438-48.398438-48.398438c-4.90625-4.90625-7.601562-11.417968-7.601562-18.34375zm0 0"/><path d="m220.167969 401.136719-15.839844-2.273438-7.015625 49.136719h-29.3125v16h43.183594zm0 0"/><path d="m136 448h16v16h-16zm0 0"/><path d="m336 159.816406c0-88.121094-71.695312-159.816406-159.816406-159.816406h-16.367188c-88.121094 0-159.816406 71.695312-159.816406 159.816406 0 33.175782 10.113281 65.046875 29.246094 92.160156l37.53125 53.167969c-15.335938 3.816407-26.777344 17.597657-26.777344 34.09375 0 10.488281 4.625 20.355469 12.679688 27.082031l29.351562 24.457032 10.128906 70.878906c2.800782 19.574219 19.824219 34.34375 39.601563 34.34375h72.496093c19.773438 0 36.796876-14.769531 39.597657-34.34375l11.082031-77.65625h1.0625c8.824219 0 16-7.175781 16-16v-16c0-8.824219-7.175781-16-16-16h-8.558594l59.3125-84.023438c19.132813-27.113281 29.246094-58.976562 29.246094-92.160156zm-155.222656 176.183594h-29.105469c-1.230469-13.207031-9.617187-24.359375-21.375-29.28125-23.273437-31.78125-50.296875-82.488281-50.296875-146.71875 0-95.304688 71.824219-135.390625 88-143.207031 16.175781 7.816406 88 47.902343 88 143.207031 0 97.289062-63.207031 164.160156-75.222656 176zm-164.777344-176.183594c0-71.113281 51.9375-130.183594 119.839844-141.648437-29.816406 22.105469-71.839844 66.59375-71.839844 141.832031 0 61.121094 22.824219 110.640625 45.28125 144.566406-4.664062.808594-9.128906 2.511719-13.21875 5.210938-2.933594-1.9375-6.140625-3.394532-9.503906-4.371094l-44.230469-62.652344c-17.222656-24.402344-26.328125-53.082031-26.328125-82.9375zm40 179.421875c0-10.605469 8.632812-19.238281 19.238281-19.238281h1.472657c5.144531 0 9.976562 2 13.121093 5.105469l5.648438 6.726562 6.191406-6.191406c3.640625-3.640625 8.472656-5.640625 13.617187-5.640625h1.472657c10.605469 0 19.238281 8.632812 19.238281 19.238281 0 5.730469-2.519531 11.121094-6.921875 14.785157l-33.078125 27.5625-33.070312-27.554688c-4.410157-3.671875-6.929688-9.0625-6.929688-14.792969zm172.007812 120.152344c-1.679687 11.753906-11.894531 20.609375-23.761718 20.609375h-72.492188c-11.867187 0-22.082031-8.855469-23.761718-20.609375l-8.550782-59.847656 18.65625-15.542969h120.679688zm27.992188-91.390625h-118.703125l2.023437-1.6875c4.640626-3.863281 7.96875-8.839844 10.105469-14.3125h106.574219zm-28.144531-32h-25.007813c23.472656-26.519531 69.152344-89.257812 69.152344-176 0-75.238281-42.023438-119.726562-71.839844-141.832031 67.902344 11.464843 119.839844 70.535156 119.839844 141.648437 0 29.855469-9.105469 58.535156-26.320312 82.9375zm0 0"/><path d="m188.136719 275.671875 13.457031 8.65625c13.597656-21.144531 23.765625-43.390625 30.214844-66.144531l-15.394532-4.367188c-6.023437 21.230469-15.542968 42.046875-28.277343 61.855469zm0 0"/><path d="m164.566406 306.648438 11.890625 10.703124c4.664063-5.167968 9.238281-10.734374 13.613281-16.527343l-12.773437-9.640625c-4.089844 5.425781-8.367187 10.632812-12.730469 15.464844zm0 0"/></svg>