<svg height="496pt" viewBox="0 0 495 496" width="496pt" xmlns="http://www.w3.org/2000/svg"><path d="m217.214844 126.117188 10.328125-12.21875 18.917969 15.992187-10.328126 12.21875zm0 0"/><path d="m208.082031 118.375 10.34375-12.214844-28.074219-23.753906c-3.71875-3.160156-5.863281-7.765625-5.863281-12.636719v-5.203125c0-8.949218 7.273438-16.382812 16.214844-16.558594l-.328125-16c-17.582031.359376-31.886719 14.96875-31.886719 32.558594v5.195313c0 9.589843 4.199219 18.652343 11.527344 24.855469zm0 0"/><path d="m99.414062 164.609375 5.59375-14.980469 22.789063 8.507813-5.59375 14.984375zm0 0"/><path d="m50.601562 123.113281-1.746093-4.847656c-3.015625-8.371094 1.167969-17.792969 9.304687-20.992187l-5.871094-14.890626c-16.105468 6.351563-24.394531 24.875-18.488281 41.304688l1.742188 4.839844c3.234375 8.984375 10.175781 16.039062 19.050781 19.335937l33.8125 12.625 5.59375-14.984375-33.824219-12.632812c-4.457031-1.664063-7.9375-5.214844-9.574219-9.757813zm0 0"/><path d="m369.195312 158.136719 22.792969-8.507813 5.589844 14.984375-22.792969 8.507813zm0 0"/><path d="m444.6875 82.375-5.871094 14.890625c8.144532 3.199219 12.320313 12.621094 9.3125 20.992187l-1.761718 4.855469c-1.632813 4.535157-5.117188 8.09375-9.574219 9.757813l-33.816407 12.625 5.589844 14.984375 33.808594-12.617188c8.875-3.304687 15.824219-10.359375 19.050781-19.335937l1.757813-4.847656c5.898437-16.433594-2.390625-34.953126-18.496094-41.304688zm0 0"/><path d="m454.808594 52.246094c-15.960938-5.910156-33.199219-5.167969-48.601563 2.113281l-2.015625.953125-.96875-2.121094c-7.160156-15.574218-19.855468-27.390625-35.765625-33.269531-9.097656-3.371094-18.871093-4.433594-28.519531-3.371094-11.441406-10.253906-26.488281-16.550781-43.015625-16.550781-17.242187 0-33.464844 6.71875-45.65625 18.910156l-1.777344 1.777344-1.777343-1.777344c-12.191407-12.191406-28.40625-18.910156-45.65625-18.910156-16.527344 0-31.582032 6.296875-43.015626 16.550781-9.648437-1.0625-19.414062-.007812-28.511718 3.371094-15.910156 5.878906-28.617188 17.695313-35.773438 33.269531l-.96875 2.121094-2.023437-.953125c-15.386719-7.269531-32.648438-8.023437-48.585938-2.113281-32.832031 12.144531-49.808593 49.074218-37.839843 82.320312l1.746093 4.847656c6.390625 17.792969 20.125 31.761719 37.679688 38.3125l94.039062 35.097657c4.207031 10.457031 26.34375 61.070312 82.785157 125.382812l-34.457032-14.527343c-17.816406-7.503907-38.160156-3.421876-51.792968 10.417968-18.433594 18.695313-18.433594 49.101563-.007813 67.796875 9.105469 9.234375 21.175781 14.128907 33.503906 14.128907 6.152344 0 12.359375-1.207032 18.289063-3.710938l35.421875-14.9375c.824219.761719 1.714843 1.457031 2.601562 2.144531l-25.542969 70.265625c-2.226562 6.101563-8.089843 10.214844-14.59375 10.214844-8.558593 0-15.519531-6.960938-15.519531-15.519531v-.960938c0-8.558593 6.960938-15.519531 15.519531-15.519531h8.480469v-16h-8.480469c-17.375 0-31.519531 14.144531-31.519531 31.519531v.953125c0 17.382813 14.144531 31.519532 31.519531 31.519532 13.199219 0 25.113282-8.335938 29.625-20.753907l24.960938-68.636719c3.183594.832032 6.460938 1.398438 9.894531 1.398438 3.433594 0 6.710938-.566406 9.894531-1.382812l24.960938 68.640624c4.511719 12.40625 16.417969 20.742188 29.625 20.742188 17.382812 0 31.519531-14.144531 31.519531-31.519531v-.960938c0-17.382812-14.144531-31.519531-31.519531-31.519531h-8.480469v16h8.480469c8.558594 0 15.519531 6.960938 15.519531 15.519531v.953125c0 8.558594-6.960937 15.519532-15.519531 15.519532-6.496094 0-12.367188-4.113282-14.59375-10.214844l-25.542969-70.265625c.886719-.6875 1.769531-1.382813 2.601563-2.144531l35.421875 14.9375c5.929687 2.496093 12.144531 3.710937 18.289062 3.710937 12.328125 0 24.40625-4.886719 33.503907-14.128906 18.433593-18.695313 18.433593-49.101563.007812-67.796875-13.640625-13.84375-33.976562-17.929688-51.800781-10.417969l-35.421875 14.9375c-.488282-.449219-1.027344-.839844-1.539063-1.265625 53.496094-61.167969 75.976563-109.917969 81.464844-123.097656l97.871094-36.527344c17.554687-6.550781 31.289062-20.519531 37.679687-38.3125l1.746094-4.839844c11.953125-33.246094-5.023438-70.175781-37.847656-82.320312zm-253.753906-36.246094c12.96875 0 25.167968 5.054688 34.34375 14.222656l13.089843 13.089844 13.085938-13.089844c9.167969-9.167968 21.378906-14.222656 34.347656-14.222656 26.773437 0 48.566406 21.792969 48.566406 48.566406v5.195313c0 14.308593-6.265625 27.824219-17.191406 37.070312l-78.808594 66.6875-78.808593-66.6875c-10.925782-9.246093-17.191407-22.753906-17.191407-37.0625v-5.203125c0-26.773437 21.792969-48.566406 48.566407-48.566406zm33.992187 314.488281c-49.582031-55.839843-72.839844-102.144531-80.261719-118.695312l36.824219-65.449219 48.878906 41.359375v141.105469c-1.886719.382812-3.664062 1.039062-5.441406 1.679687zm-213.910156-196.472656-1.746094-4.855469c-9.007813-25.023437 3.707031-52.792968 28.335937-61.902344 11.867188-4.402343 24.738282-3.832031 36.195313 1.574219l16.652344 7.871094 7.722656-16.832031c5.367187-11.679688 14.871094-20.535156 26.785156-24.941406 3.230469-1.203126 6.589844-1.9375 9.988281-2.394532-5.429687 9.449219-8.582031 20.367188-8.582031 32.03125v5.195313c0 19.023437 8.335938 36.992187 22.863281 49.285156l19.824219 16.777344-35.054687 62.28125-94.777344-35.363281c-13.128906-4.902344-23.40625-15.375-28.207031-28.726563zm158.773437 263.542969c-11.726562 4.953125-25.167968 2.25-34.175781-6.894532-12.316406-12.496093-12.316406-32.832031.007813-45.328124 9-9.152344 22.433593-11.855469 34.167968-6.894532l32.011719 13.496094c-1.136719 2.566406-2.050781 5.246094-2.617187 8.0625h-56.816407v16h56.808594c.574219 2.816406 1.488281 5.496094 2.613281 8.0625zm44.578125-29.558594c0-13.230469 10.769531-24 24-24s24 10.769531 24 24-10.769531 24-24 24-24-10.769531-24-24zm92.574219-29.558594c11.722656-4.953125 25.167969-2.257812 34.175781 6.894532 12.320313 12.496093 12.320313 32.832031-.007812 45.328124-9.007813 9.152344-22.4375 11.855469-34.167969 6.894532l-32.007812-13.496094c1.136718-2.566406 2.050781-5.246094 2.617187-8.0625h56.816406v-16h-56.808593c-.574219-2.816406-1.488282-5.496094-2.617188-8.0625zm-60.574219-9.632812v-141.105469l48.878907-41.359375 35.007812 62.207031c-5.390625 12.707031-27.984375 61.226563-81 121.136719-.976562-.273438-1.886719-.671875-2.886719-.878906zm221.097657-199.640625-1.746094 4.847656c-4.800782 13.351563-15.078125 23.832031-28.207032 28.738281l-94.777343 35.359375-35.054688-62.28125 19.824219-16.777343c14.527344-12.292969 22.863281-30.261719 22.863281-49.285157v-5.203125c0-11.664062-3.152343-22.582031-8.585937-32.039062 3.402344.449218 6.769531 1.191406 10 2.382812 11.898437 4.410156 21.410156 13.265625 26.777344 24.945313l7.71875 16.832031 16.648437-7.871094c11.472656-5.410156 24.320313-5.976562 36.210937-1.578125 24.621094 9.128907 37.335938 36.898438 28.328126 61.929688zm0 0"/></svg>