<svg height="499.312pt" viewBox="0 0 499.312 499.312" width="499.312pt" xmlns="http://www.w3.org/2000/svg"><path d="m308.777344 212.535156c9.628906 13.976563 14.734375 30.410156 14.765625 47.535156.023437 11.417969-2.167969 22.457032-6.519531 32.832032l14.753906 6.1875c5.183594-12.347656 7.796875-25.488282 7.773437-39.042969-.03125-20.375-6.117187-39.941406-17.589843-56.589844zm0 0"/><path d="m303.527344 314.816406 12.183594 10.367188c4.554687-5.359375 8.554687-11.207032 11.890624-17.375l-14.082031-7.601563c-2.792969 5.183594-6.152343 10.105469-9.992187 14.609375zm0 0"/><path d="m455.664062 58.832031-13.28125-1.894531-1.886718-13.28125c-3.558594-24.886719-25.199219-43.65625-50.34375-43.65625-28.03125 0-50.839844 22.808594-50.839844 50.839844v61.96875c-16.671875 3.398437-29.417969 17.253906-31.511719 34.359375-20.5625-12.488281-44.273437-19.351563-68.472656-19.390625-.089844 0-.167969 0-.238281 0-35.378906 0-68.632813 13.773437-93.65625 38.796875l-90.882813 90.882812c-3.664062-.929687-7.429687-1.457031-11.238281-1.457031-12.273438 0-24.289062 4.976562-32.96875 13.65625l-10.34375 10.34375 59.078125 59.078125c-10.199219 12.722656-15.765625 28.386719-15.765625 44.921875 0 39.695312 32.296875 72 72 72 16.527344 0 32.199219-5.566406 44.917969-15.769531l59.082031 59.082031 10.34375-10.34375c8.808594-8.800781 13.65625-20.511719 13.65625-32.96875 0-3.855469-.519531-7.617188-1.425781-11.265625l90.847656-90.847656c24.722656-24.71875 38.859375-58.941407 38.800781-93.894531-.039062-24.199219-6.902344-47.921876-19.390625-68.472657 17.101563-2.09375 30.960938-14.839843 34.351563-31.511719h61.96875c28.039062-.007812 50.847656-22.816406 50.847656-50.847656 0-25.144531-18.769531-46.777344-43.648438-50.328125zm-340.351562 381.167969c-30.871094 0-56-25.121094-56-56 0-12.246094 3.96875-23.863281 11.191406-33.496094l78.304688 78.304688c-9.632813 7.222656-21.25 11.191406-33.496094 11.191406zm103.976562 36.664062-196.640624-196.640624c5.597656-5.113282 13.0625-8.023438 20.664062-8.023438 8.0625 0 15.953125 3.273438 21.65625 8.96875l153.375 153.375c5.785156 5.785156 8.96875 13.480469 8.96875 21.65625 0 7.71875-2.832031 15.007812-8.023438 20.664062zm10.367188-53.632812-153.375-153.375c-1.90625-1.902344-3.992188-3.59375-6.183594-5.128906l69.214844-69.214844 164.6875 164.6875-69.199219 69.199219c-1.535156-2.175781-3.226562-4.246094-5.144531-6.167969zm91.777344-80.464844-6.121094 6.121094-164.6875-164.6875 6.117188-6.121094c22-22 51.234374-34.109375 82.347656-34.109375h.207031c26.03125.046875 51.480469 8.992188 71.894531 25.125 3.976563 8.449219 10.769532 15.25 19.214844 19.21875 16.136719 20.414063 25.082031 45.855469 25.128906 71.894531.058594 30.734376-12.375 60.824219-34.101562 82.558594zm25.878906-166.566406c-13.234375 0-24-10.769531-24-24s10.765625-24 24-24c13.230469 0 24 10.769531 24 24s-10.769531 24-24 24zm101.160156-32h-61.96875c-3.191406-15.648438-15.542968-28-31.191406-31.191406v-61.96875c0-19.207032 15.632812-34.839844 34.839844-34.839844 17.222656 0 32.054687 12.855469 34.496094 29.910156l3.589843 25.160156 25.160157 3.59375c17.058593 2.441407 29.914062 17.265626 29.914062 34.496094 0 19.207032-15.632812 34.839844-34.839844 34.839844zm0 0"/><path d="m139.3125 240c-13.234375 0-24 10.769531-24 24s10.765625 24 24 24c13.230469 0 24-10.769531 24-24s-10.769531-24-24-24zm0 32c-4.417969 0-8-3.59375-8-8s3.582031-8 8-8c4.414062 0 8 3.59375 8 8s-3.585938 8-8 8zm0 0"/><path d="m187.3125 288c-13.234375 0-24 10.769531-24 24s10.765625 24 24 24c13.230469 0 24-10.769531 24-24s-10.769531-24-24-24zm0 32c-4.417969 0-8-3.59375-8-8s3.582031-8 8-8c4.414062 0 8 3.59375 8 8s-3.585938 8-8 8zm0 0"/><path d="m235.3125 336c-13.234375 0-24 10.769531-24 24s10.765625 24 24 24c13.230469 0 24-10.769531 24-24s-10.769531-24-24-24zm0 32c-4.417969 0-8-3.59375-8-8s3.582031-8 8-8c4.414062 0 8 3.59375 8 8s-3.585938 8-8 8zm0 0"/></svg>