<svg height="496pt" viewBox="0 0 496 495" width="496pt" xmlns="http://www.w3.org/2000/svg"><path d="m272 264.5c0-29.496094-16.527344-40-32-40v16c10.617188 0 16 8.070312 16 24 0 20.214844-8.929688 48.558594-28.527344 63.023438l9.503906 12.871093c24.191407-17.855469 35.023438-50.984375 35.023438-75.894531zm0 0"/><path d="m213.824219 334.476562c-4.351563 1.34375-9.007813 2.023438-13.824219 2.023438v16c6.414062 0 12.65625-.921875 18.542969-2.734375zm0 0"/><path d="m151.175781 399.148438c5.480469.75 11.070313 1.199218 16.648438 1.320312l.351562-15.992188c-4.960937-.113281-9.945312-.503906-14.808593-1.175781zm0 0"/><path d="m74.449219 339.429688-12.378907 10.140624c18.304688 22.335938 43.976563 38.746094 72.28125 46.210938l4.082032-15.472656c-25.074219-6.617188-47.792969-21.136719-63.984375-40.878906zm0 0"/><path d="m320 120.5c0 4.417969-3.582031 8-8 8s-8-3.582031-8-8 3.582031-8 8-8 8 3.582031 8 8zm0 0"/><path d="m351.617188 114.15625c-3.167969-27.894531-26.890626-49.65625-55.617188-49.65625-30.878906 0-56 25.121094-56 56 0 24.71875-6.71875 48.992188-19.441406 70.183594l-1.886719 3.144531c-32.703125 3.792969-54.34375 15.6875-72.183594 25.6875-13.0625 7.320313-23.382812 13.097656-34.097656 13.097656-28.894531 0-59.320313-22.3125-59.621094-22.539062l-5.546875-4.109375-15.222656 15.222656v3.3125c0 31.28125 13.65625 51.664062 43 62.503906 1.878906 6.457032 4.6875 12.257813 8.441406 17.417969-45.867187-15.722656-59.296875-49.035156-59.953125-50.722656l-4.359375-11.632813-19.128906 19.121094v3.3125c0 3.390625.0898438 6.734375.265625 10.03125 3.757813 71.3125 53.125 130.121094 119.734375 150.359375v43.328125l-20.441406 13.625 8.875 13.3125 19.566406-13.039062 19.558594 13.039062 8.875-13.3125-20.433594-13.625v-39.277344c11.304688 2.285156 22.992188 3.558594 34.976562 3.558594h8.703126c12.464843 0 24.601562-1.398438 36.320312-3.929688v39.648438l-20.441406 13.625 8.875 13.3125 19.566406-13.039062 19.558594 13.039062 8.875-13.3125-20.433594-13.625v-43.894531c69.503906-22.207031 120-87.367188 120-164.144531v-85.441407l35.617188-8.902343-10.671876-21.335938 10.671876-21.34375zm-303.570313 113.609375.921875-.921875c11.207031 7.214844 37.085938 21.777344 63.414062 21.777344 14.890626 0 27.417969-7.015625 41.921876-15.144532 19.863281-11.128906 44.582031-24.976562 85.695312-24.976562 1.960938 0 48 .640625 48 56 0 41.945312-27.96875 104-88 104-22.390625 0-48.679688-13.152344-59.214844-35.078125 12.574219 2.046875 26.925782 3.078125 43.214844 3.078125v-16c-58.703125 0-80.632812-13.230469-89.503906-28.136719 13.992187 2.777344 30.433594 4.136719 49.503906 4.136719v-16c-81.207031 0-95.023438-24.9375-95.953125-52.734375zm287.953125 32.414063c0 86.191406-70.128906 156.320312-156.320312 156.320312h-8.703126c-82.542968 0-150.511718-62.726562-154.738281-142.816406 0-.039063 0-.078125 0-.121094 12.328125 18.449219 41.394531 48.753906 101.226563 54.121094 1.574218.542968 3.136718 1.105468 4.800781 1.601562 9.253906 34.648438 45.878906 55.214844 77.734375 55.214844 70.945312 0 104-71.609375 104-120 0-71.175781-63.359375-72-64-72-.777344 0-1.449219.078125-2.207031.089844 11.886719-22.136719 18.207031-46.890625 18.207031-72.089844 0-22.054688 17.945312-40 40-40s40 17.945312 40 40zm28.382812-105.023438-12.382812 3.097656v-27.507812l12.382812 3.097656-5.328124 10.65625zm0 0"/><path d="m457.296875.5c-7.664063 0-15.097656 2.246094-21.472656 6.496094l-11.824219 7.886718-11.832031-7.886718c-6.367188-4.25-13.800781-6.496094-21.464844-6.496094-21.34375 0-38.703125 17.359375-38.703125 38.703125v4.578125c0 10.335938 4.023438 20.054688 11.335938 27.367188l60.664062 60.664062 60.664062-60.664062c7.3125-7.3125 11.335938-17.023438 11.335938-27.367188v-4.578125c0-21.34375-17.359375-38.703125-38.703125-38.703125zm22.703125 43.28125c0 6.0625-2.359375 11.765625-6.648438 16.054688l-49.351562 49.351562-49.351562-49.351562c-4.289063-4.289063-6.648438-9.992188-6.648438-16.054688v-4.578125c0-12.519531 10.183594-22.703125 22.703125-22.703125 4.496094 0 8.847656 1.320312 12.59375 3.816406l20.703125 13.800782 20.703125-13.800782c3.746094-2.496094 8.097656-3.816406 12.59375-3.816406 12.519531 0 22.703125 10.183594 22.703125 22.703125zm0 0"/></svg>