<svg height="497pt" viewBox="0 0 497.88 497" width="497pt" xmlns="http://www.w3.org/2000/svg"><path d="m387.878906 130.34375 18.917969-15.992188 10.328125 12.21875-18.921875 15.992188zm0 0"/><path d="m433.992188 32.449219-.328126 16c8.945313.175781 16.214844 7.605469 16.214844 16.558593v5.191407c0 4.871093-2.144531 9.488281-5.871094 12.640625l-28.0625 23.753906 10.34375 12.214844 28.054688-23.753906c7.335938-6.191407 11.535156-15.253907 11.535156-24.847657v-5.199219c0-17.59375-14.304687-32.199218-31.886718-32.558593zm0 0"/><path d="m433.3125.441406c-17.242188 0-33.464844 6.71875-45.65625 18.910156l-1.777344 1.777344-1.773437-1.777344c-12.195313-12.191406-28.410157-18.910156-45.65625-18.910156-25.015625 0-46.707031 14.328125-57.425781 35.183594l-13.390626-8.960938c-20.058593-13.375-47.480468-13.351562-67.503906.007813l-30.226562 20.160156-30.261719-20.183593c-10.023437-6.679688-21.6875-10.207032-33.738281-10.207032-.015625 0-.03125 0-.046875 0-12.03125 0-23.6875 3.527344-33.710938 10.207032l-20.015625 13.34375c-11.425781 7.617187-18.25 20.359374-18.25 34.097656 0 5.246094.984375 10.367187 3.113282 15.621094l44.886718 96.503906v28.929687l-81.878906 245.65625 6.632812 2.953125c3.007813 1.335938 74.566407 32.6875 163.246094 32.6875 88.679688 0 160.242188-31.351562 163.25-32.6875l6.632813-2.953125-76.1875-228.542969c14.648437-.960937 26.304687-13.058593 26.304687-27.945312v-7.753906c0-14.175782-10.574218-25.816406-24.230468-27.726563l25.617187-54.59375c1.71875 1.839844 3.535156 3.609375 5.476563 5.25l89.136718 75.433594 89.136719-75.425781c14.527344-12.296875 22.863281-30.265625 22.863281-49.289063v-5.199219c0-35.601562-28.96875-64.566406-64.566406-64.566406zm-337.671875 224h58.785156c5.070313 4.933594 11.957031 8 19.574219 8 3.566406 0 7.078125-.671875 10.449219-2.007812l22.230469-8.898438c3.359374 1.792969 7.136718 2.90625 11.199218 2.90625 4.066406 0 7.839844-1.113281 11.199219-2.90625l16.234375 6.496094 52 156.007812c-5.375-.832031-8.679688-3.085937-12.792969-6.078124-5.839843-4.242188-13.113281-9.519532-26.71875-9.519532-13.609375 0-20.871093 5.277344-26.710937 9.527344-5.160156 3.757812-8.898438 6.472656-17.296875 6.472656-8.394531 0-12.121094-2.714844-17.273438-6.472656-5.832031-4.25-13.105469-9.527344-26.695312-9.527344-13.601563 0-20.863281 5.277344-26.703125 9.527344-5.160156 3.757812-8.898438 6.472656-17.296875 6.472656-8.390625 0-12.128907-2.714844-17.289063-6.472656-5.824218-4.25-13.09375-9.527344-26.6875-9.527344-13.601562 0-20.855468 5.277344-26.695312 9.527344-4.089844 2.976562-7.382813 5.230469-12.710938 6.0625zm2.238281-32h48.417969c-.199219 1.359375-.417969 2.710938-.417969 4.125v7.753906c0 1.414063.21875 2.769532.417969 4.128907h-48.417969zm128 8c0 4.414063-3.582031 8-8 8-4.414062 0-8-3.585937-8-8 0-4.417968 3.585938-8 8-8 4.417969 0 8 3.582032 8 8zm-30.414062 8.351563-16.9375 6.773437c-1.464844.578125-2.984375.875-4.519532.875-6.6875 0-12.128906-5.441406-12.128906-12.128906v-7.753906c0-6.679688 5.441406-12.117188 12.128906-12.117188 1.535157 0 3.0625.292969 4.503907.863282l16.953125 6.785156c-.976563 2.605468-1.585938 5.40625-1.585938 8.351562 0 2.941406.609375 5.734375 1.585938 8.351563zm-157.601563 191.648437c13.601563 0 20.855469-5.28125 26.695313-9.53125 5.160156-3.757812 8.898437-6.46875 17.289062-6.46875s12.121094 2.710938 17.273438 6.46875c5.839844 4.242188 13.101562 9.53125 26.703125 9.53125 13.601562 0 20.863281-5.28125 26.703125-9.53125 5.167968-3.757812 8.898437-6.46875 17.296875-6.46875 8.390625 0 12.121093 2.710938 17.273437 6.46875 5.839844 4.25 13.101563 9.53125 26.695313 9.53125 13.597656 0 20.863281-5.28125 26.703125-9.53125 5.167968-3.757812 8.894531-6.46875 17.304687-6.46875 8.40625 0 12.144531 2.710938 17.3125 6.46875 5.847657 4.25 13.117188 9.53125 26.726563 9.53125.3125 0 .601562-.074218.914062-.082031l9.902344 29.71875c-2.832031 1.402344-6.0625 2.363281-10.816406 2.363281-8.414063 0-12.152344-2.722656-17.320313-6.480468-5.839843-4.242188-13.113281-9.519532-26.71875-9.519532-13.609375 0-20.871093 5.277344-26.710937 9.527344-5.160156 3.757812-8.898438 6.472656-17.296875 6.472656-8.394531 0-12.121094-2.714844-17.273438-6.472656-5.832031-4.25-13.105469-9.527344-26.695312-9.527344-13.601563 0-20.863281 5.277344-26.703125 9.527344-5.160156 3.757812-8.898438 6.472656-17.296875 6.472656-8.390625 0-12.128907-2.714844-17.289063-6.472656-5.824218-4.25-13.09375-9.527344-26.6875-9.527344-13.601562 0-20.855468 5.277344-26.695312 9.527344-5.160156 3.757812-8.894532 6.472656-17.289063 6.472656-4.726562 0-7.953125-.953125-10.765625-2.351562l9.910156-29.730469c.289063.007813.558594.082031.855469.082031zm132.015625 80c-70.015625 0-130.398437-20.960937-150.039062-28.585937l2.144531-6.441407c4.183594 1.769532 9.253906 3.027344 15.878906 3.027344 13.601563 0 20.855469-5.28125 26.695313-9.53125 5.160156-3.757812 8.898437-6.46875 17.289062-6.46875s12.121094 2.710938 17.273438 6.46875c5.839844 4.242188 13.101562 9.53125 26.703125 9.53125 13.601562 0 20.863281-5.28125 26.703125-9.53125 5.167968-3.757812 8.898437-6.46875 17.296875-6.46875 8.390625 0 12.121093 2.710938 17.273437 6.46875 5.839844 4.25 13.101563 9.53125 26.695313 9.53125 13.597656 0 20.863281-5.28125 26.703125-9.53125 5.167968-3.757812 8.894531-6.46875 17.304687-6.46875 8.40625 0 12.144531 2.710938 17.3125 6.46875 5.847657 4.25 13.117188 9.53125 26.726563 9.53125 6.648437 0 11.734375-1.265625 15.921875-3.050781l2.148437 6.472656c-19.605468 7.625-79.886718 28.578125-150.03125 28.578125zm104-283.875v7.753906c0 6.679688-5.4375 12.121094-12.125 12.121094-1.539062 0-3.066406-.296875-4.507812-.867187l-16.949219-6.78125c.976563-2.609375 1.582031-5.410157 1.582031-8.351563 0-2.945312-.605468-5.746094-1.582031-8.351562l16.933594-6.777344c1.464843-.578125 2.984375-.871094 4.523437-.871094 6.6875 0 12.125 5.4375 12.125 12.125zm-27.605468-24.101562-17.195313 6.878906c-3.359375-1.792969-7.132813-2.902344-11.199219-2.902344-4.0625 0-7.839844 1.109375-11.199218 2.902344l-22.246094-8.902344c-3.355469-1.328125-6.859375-2-10.425782-2-7.617187 0-14.511718 3.0625-19.574218 8h-59.449219l-43.320313-93.082031c-1.183593-2.953125-1.785156-6.078125-1.785156-9.269531 0-8.371094 4.160156-16.144532 11.128906-20.785156l20.015626-13.34375c7.375-4.921876 15.976562-7.519532 24.855468-7.519532h.03125c8.875 0 17.472656 2.597656 24.851563 7.519532l39.148437 26.09375 39.113282-26.078126c14.753906-9.863281 34.960937-9.863281 49.746093-.007812l16.671875 11.109375c-1 4.496094-1.5625 9.144531-1.5625 13.929687v5.191407c0 10.152343 2.441406 19.960937 6.855469 28.808593zm235.605468-102.257813c0 14.3125-6.261718 27.824219-17.191406 37.074219l-78.808594 66.679688-78.808594-66.6875c-10.925781-9.25-17.191406-22.753907-17.191406-37.066407v-5.199219c0-26.777343 21.792969-48.566406 48.570313-48.566406 12.964843 0 25.167969 5.054688 34.34375 14.222656l13.085937 13.089844 13.089844-13.089844c9.167969-9.167968 21.375-14.222656 34.34375-14.222656 26.777344 0 48.566406 21.789063 48.566406 48.566406zm0 0"/><path d="m99.632812 148.179688 14.5625-6.644532 7.203126 15.785156-14.5625 6.644532zm0 0"/><path d="m66.601562 75.765625 14.566407-6.640625 29.253906 64.15625-14.566406 6.644531zm0 0"/><path d="m82.351562 349.761719 39.972657-112.007813 15.0625 5.375-39.972657 112.007813zm0 0"/><path d="m202.328125 243.128906 15.058594-5.378906 39.996093 111.996094-15.058593 5.378906zm0 0"/><path d="m161.878906 240.441406h16v112h-16zm0 0"/></svg>