<svg height="496pt" viewBox="0 0 496 496" width="496pt" xmlns="http://www.w3.org/2000/svg"><path d="m459.71875 96h-2.519531c-7.71875 0-15.09375 2.398438-21.335938 6.9375l-70.464843 51.246094c-4.046876-10.917969-12.664063-19.535156-23.582032-23.582032l51.246094-70.464843c4.539062-6.242188 6.9375-13.617188 6.9375-21.328125v-2.527344c0-20.007812-16.273438-36.28125-36.28125-36.28125-9.695312 0-18.808594 3.777344-25.65625 10.625l-2.0625 2.0625c-5.160156 5.152344-8 12.015625-8 19.3125s2.839844 14.160156 8 19.3125l10.34375 10.34375 11.3125-11.3125-10.34375-10.34375c-2.136719-2.144531-3.3125-4.976562-3.3125-8s1.175781-5.855469 3.3125-8l2.0625-2.0625c3.824219-3.824219 8.921875-5.9375 14.34375-5.9375 11.175781 0 20.28125 9.105469 20.28125 20.28125v2.519531c0 4.3125-1.34375 8.4375-3.871094 11.925781l-56.519531 77.714844c-17.425781 1.933594-31.53125 14.925782-34.832031 31.902344-12.625 1.054688-24.65625 4.894531-35.449219 11.160156 7.0625-25.855468 10.671875-48.703125 10.671875-68.078125 0-47.105469-22.136719-72-64-72s-64 24.894531-64 72c0 6.261719.894531 12.664063 2.480469 19.101563-21.417969-7.503906-42.023438-1.679688-61.511719 17.570312-14.113281 13.933594-20.96875 28.09375-20.96875 43.292969 0 12.210937 4.695312 24.65625 13.847656 37.175781-3.152344 2.554688-6.289062 5.449219-9.464844 8.832032-28.757812 30.671874-26.839843 65.152343 5.546876 99.699218 2.710937 2.894532 5.925781 5.621094 9.40625 8.253906l-22.078126 22.082032c-34.335937 34.351562-53.2499995 80.007812-53.257812 128.566406v8h8c48.558594-.007812 94.214844-18.921875 128.566406-53.265625l21.738282-21.734375c2.558593 3.34375 5.214843 6.433594 8.023437 9.0625 18.328125 17.175781 36.632813 25.792969 54.367187 25.792969 15.6875 0 30.929688-6.742188 45.335938-20.238281 3.375-3.175782 6.273438-6.3125 8.824219-9.457032 12.519531 9.144532 24.96875 13.839844 37.175781 13.839844 15.191406 0 29.359375-6.855469 43.289062-20.96875 19.246094-19.472656 25.078126-40.09375 17.574219-61.503906 6.441407 1.578125 12.839844 2.472656 19.105469 2.472656 47.105469 0 72-22.136719 72-64s-24.894531-64-72-64c-19.207031 0-41.816406 3.535156-67.390625 10.472656 6.199219-10.746094 9.992187-22.695312 11.039063-35.25 16.976562-3.300781 29.96875-17.40625 31.902343-34.832031l77.714844-56.519531c3.496094-2.527344 7.613281-3.871094 11.925781-3.871094h2.519532c11.183593 0 20.289062 9.105469 20.289062 20.28125 0 5.421875-2.113281 10.511719-5.9375 14.34375l-2.0625 2.0625c-4.28125 4.265625-11.71875 4.265625-16 0l-10.34375-10.34375-11.3125 11.3125 10.34375 10.34375c10.3125 10.3125 28.3125 10.3125 38.625 0l2.0625-2.0625c6.847656-6.847656 10.625-15.960938 10.625-25.65625 0-20.007812-16.273438-36.28125-36.28125-36.28125zm-140.085938 111.089844c-1.601562 15.820312-8.519531 30.484375-19.914062 41.878906l-2.75 2.75c-12.3125 12.3125-28.449219 19.417969-45.730469 20.210938l-27.167969-27.167969c.800782-17.28125 7.898438-33.417969 20.210938-45.730469l2.75-2.75c11.394531-11.394531 26.066406-18.320312 41.878906-19.914062 3.289063 15.34375 15.378906 27.433593 30.722656 30.722656zm-223.632812 132.230468 60.679688 60.679688-12.679688 12.679688-60.679688-60.679688zm72 49.359376-60.679688-60.679688 12.679688-12.679688 60.679688 60.679688zm24-24-60.679688-60.679688 12.679688-12.679688 60.679688 60.679688zm23.902344-24.085938-60.488282-60.488281c4.457032-4.195313 9.265626-7.867188 14.378907-11l57.117187 57.117187c-3.140625 5.097656-6.8125 9.914063-11.007812 14.371094zm18.433594-29.570312-49.359376-49.359376c8.832032-3.304687 18.207032-5.175781 27.863282-5.511718l27.007812 27.007812c-.335937 9.65625-2.207031 19.023438-5.511718 27.863282zm-34.335938-263.597657c22.351562 0 48 6.367188 48 56 0 28.949219-9.121094 62.78125-16.863281 86.316407-6.351563 6.761718-11.464844 14.371093-15.257813 22.585937-32.292968-33.039063-63.878906-76.625-63.878906-108.902344 0-49.632812 25.648438-56 48-56zm-111.785156 104.054688c18.824218-18.601563 37.359375-20.777344 58.113281-7.097657 15.839844 34.601563 46.144531 67.488282 63.808594 84.863282-.816407 3.648437-1.433594 7.355468-1.761719 11.128906-14.359375 1.03125-28.136719 4.90625-40.664062 11.449219-34.726563-4.871094-60.269532-14.488281-73.832032-27.886719-14.519531-14.351562-21.878906-27.992188-21.878906-40.546875 0-10.695313 5.304688-21.132813 16.214844-31.910156zm-10.605469 166.679687c-35.175781-37.527344-20.015625-62.382812-5.546875-77.816406 2.792969-2.976562 5.496094-5.382812 8.195312-7.535156.796876.832031 1.527344 1.664062 2.367188 2.496094 13.773438 13.605468 35.976562 23.449218 65.910156 29.449218-2.214844 1.878906-4.398437 3.796875-6.480468 5.878906l-55.246094 55.246094c-3.472656-2.472656-6.664063-5.023437-9.199219-7.71875zm-28.320313 70.441406 58.117188 58.117188c-4.894531 3.6875-9.941406 7.113281-15.167969 10.210938l-53.148437-53.152344c3.085937-5.242188 6.511718-10.28125 10.199218-15.175782zm-18.03125 29.964844 46.175782 46.175782c-19.082032 8.816406-39.769532 14.019531-61.234375 15.058593 1.039062-21.464843 6.242187-42.152343 15.058593-61.234375zm88.496094 17.875-60.203125-60.203125c1.679688-1.832031 3.257813-3.734375 5.023438-5.503906l7.425781-7.414063 60.679688 60.679688-7.421876 7.425781c-1.769531 1.765625-3.671874 3.34375-5.503906 5.015625zm135.335938-12.503906c-15.433594 14.453125-40.273438 29.636719-77.824219-5.546875-2.617187-2.445313-5.089844-5.527344-7.488281-8.863281l55.589844-55.589844c1.914062-1.914062 3.664062-3.929688 5.410156-5.960938 6.015625 29.671876 15.808594 51.703126 29.34375 65.398438.832031.839844 1.664062 1.570312 2.496094 2.378906-2.152344 2.6875-4.5625 5.390625-7.527344 8.183594zm88.847656-16.152344c-10.769531 10.910156-21.210938 16.214844-31.90625 16.214844-12.550781 0-26.191406-7.359375-40.535156-21.871094-13.28125-13.441406-22.824219-38.664062-27.742188-72.914062 6.820313-12.757813 10.820313-26.878906 11.878906-41.582032 3.605469-.320312 7.160157-.890624 10.664063-1.648437 17.398437 17.679687 50.222656 47.878906 84.75 63.6875 13.679687 20.769531 11.488281 39.296875-7.109375 58.113281zm104.0625-111.785156c0 22.351562-6.367188 48-56 48-32.214844 0-75.703125-31.464844-108.710938-63.695312 8.488282-3.863282 16.34375-9.136719 23.285157-15.71875 23.488281-7.691407 56.824219-16.585938 85.425781-16.585938 49.632812 0 56 25.648438 56 48zm-120-104c-13.230469 0-24-10.769531-24-24s10.769531-24 24-24 24 10.769531 24 24-10.769531 24-24 24zm0 0"/><path d="m336 272h16v16h-16zm0 0"/><path d="m368 304h16v16h-16zm0 0"/><path d="m400 272h16v16h-16zm0 0"/><path d="m264 336h16v16h-16zm0 0"/><path d="m296 368h16v16h-16zm0 0"/><path d="m208 144h16v16h-16zm0 0"/><path d="m176 112h16v16h-16zm0 0"/><path d="m208 80h16v16h-16zm0 0"/><path d="m144 216h16v16h-16zm0 0"/><path d="m112 184h16v16h-16zm0 0"/></svg>