<svg height="496pt" viewBox="0 0 496 496" width="496pt" xmlns="http://www.w3.org/2000/svg"><path d="m464 416v-104c0-19.3125-13.769531-35.472656-32-39.191406v-104.808594c0-22.054688-17.945312-40-40-40h-1.902344l21.222656-17.6875c8.054688-6.710938 12.679688-16.585938 12.679688-27.074219 0-19.429687-15.808594-35.238281-35.238281-35.238281h-1.472657c-6.953124 0-13.601562 2-19.289062 5.726562-5.679688-3.726562-12.328125-5.726562-19.289062-5.726562h-1.472657c-1.160156 0-2.292969.28125-3.4375.398438-2.046875-27.023438-24.632812-48.398438-52.167969-48.398438h-1.25c-13.992187 0-27.144531 5.449219-37.03125 15.335938l-5.351562 5.351562-5.34375-5.34375c-9.894531-9.894531-23.046875-15.34375-37.03125-15.34375h-1.25c-27.535156 0-50.128906 21.375-52.167969 48.398438-1.160156-.117188-2.285156-.398438-3.445312-.398438h-1.472657c-6.953124 0-13.601562 2-19.289062 5.726562-5.679688-3.726562-12.328125-5.726562-19.289062-5.726562h-1.472657c-19.429687 0-35.238281 15.808594-35.238281 35.238281 0 10.488281 4.625 20.355469 12.679688 27.074219l21.222656 17.6875h-1.902344c-22.054688 0-40 17.945312-40 40v104.808594c-18.230469 3.71875-32 19.878906-32 39.191406v104h-32v8c0 22.054688 17.945312 40 40 40h64.808594c3.71875 18.230469 19.871094 32 39.191406 32h208c19.3125 0 35.472656-13.769531 39.191406-32h64.808594c22.054688 0 40-17.945312 40-40v-8zm-312-184c13.230469 0 24-10.769531 24-24v-8c0-4.40625 3.59375-8 8-8s8 3.59375 8 8v32c0 13.230469 10.769531 24 24 24s24-10.769531 24-24v-4.128906c0-7.070313 3.054688-13.253906 8.601562-17.40625 6.191407-4.632813 14.628907-6.007813 22.589844-3.679688 2.761719.808594 5.710938 1.214844 8.761719 1.214844 16 0 23.984375-10.648438 30.390625-19.199219 6.136719-8.175781 9.976562-12.800781 17.601562-12.800781 7.640626 0 11.480469 4.625 17.613282 12.800781 6.417968 8.550781 14.410156 19.199219 30.410156 19.199219 16.007812 0 24-10.648438 30.414062-19.199219 3.5625-4.746093 6.410157-8.121093 9.617188-10.265625v93.464844h-336v-17.472656c2.511719.898437 5.183594 1.472656 8 1.472656 13.230469 0 24-10.769531 24-24v-48c0-4.40625 3.59375-8 8-8s8 3.59375 8 8v24c0 13.230469 10.769531 24 24 24zm164.609375-131.558594c2.054687 3.742188 4.75 7.101563 8.070313 9.871094l21.222656 17.6875h-59.605469zm32.101563-36.441406c5.066406 0 10.023437 2.054688 13.632812 5.65625l5.679688 5.632812 5.65625-5.65625c3.585937-3.578124 8.535156-5.632812 13.609374-5.632812h1.472657c10.605469 0 19.238281 8.632812 19.238281 19.238281 0 5.730469-2.519531 11.113281-6.921875 14.785157l-33.078125 27.5625-33.078125-27.570313c-2.808594-2.34375-4.832031-5.496094-5.90625-9.078125 6.609375-6.761719 11.230469-15.136719 13.441406-24.226562 1.589844-.429688 3.191407-.710938 4.78125-.710938zm-144.34375-48h1.25c9.710937 0 18.847656 3.785156 25.71875 10.65625l16.664062 16.65625 16.664062-16.664062c6.863282-6.863282 16-10.648438 25.710938-10.648438h1.25c20.054688 0 36.375 16.320312 36.375 36.367188 0 10.226562-4.335938 20.03125-11.902344 26.914062l-53.585937 48.71875h-29.015625l-53.585938-48.710938c-7.574218-6.882812-11.910156-16.695312-11.910156-26.921874 0-20.046876 16.320312-36.367188 36.367188-36.367188zm-33.046876 94.3125c3.320313-2.769531 6.015626-6.128906 8.070313-9.871094l30.3125 27.558594h-59.605469zm-83.320312-27.074219c0-10.605469 8.632812-19.238281 19.238281-19.238281h1.472657c5.066406 0 10.023437 2.054688 13.632812 5.65625l5.679688 5.632812 5.65625-5.65625c3.585937-3.578124 8.535156-5.632812 13.609374-5.632812h1.472657c1.597656 0 3.191406.28125 4.78125.71875 2.21875 9.089844 6.839843 17.464844 13.441406 24.226562-1.074219 3.589844-3.097656 6.734376-5.90625 9.078126l-33.078125 27.5625-33.078125-27.570313c-4.402344-3.664063-6.921875-9.046875-6.921875-14.777344zm-8 84.761719c0-13.230469 10.769531-24 24-24h288c10.921875 0 20.0625 7.375 22.960938 17.382812-10.191407 3.097657-16.304688 11.066407-21.367188 17.816407-6.136719 8.175781-9.984375 12.800781-17.617188 12.800781-7.632812 0-11.480468-4.625-17.617187-12.800781-6.414063-8.550781-14.40625-19.199219-30.414063-19.199219-16 0-23.984374 10.648438-30.394531 19.199219-6.136719 8.175781-9.976562 12.800781-17.597656 12.800781-1.5625 0-2.960937-.183594-4.273437-.566406-12.757813-3.738282-26.472657-1.417969-36.671876 6.222656-9.535156 7.144531-15.007812 18.160156-15.007812 30.214844v4.128906c0 4.40625-3.59375 8-8 8s-8-3.59375-8-8v-32c0-13.230469-10.769531-24-24-24s-24 10.769531-24 24v8c0 4.40625-3.59375 8-8 8s-8-3.59375-8-8v-24c0-13.230469-10.769531-24-24-24s-24 10.769531-24 24v48c0 4.40625-3.59375 8-8 8s-8-3.59375-8-8zm-8 120h352c13.230469 0 24 10.769531 24 24v8.984375c-11.664062 2.710937-18.558594 11-24.230469 17.96875-6.777343 8.335937-11.042969 13.046875-19.816406 13.046875-8.777344 0-13.042969-4.710938-19.816406-13.046875-6.863281-8.449219-15.417969-18.953125-32.234375-18.953125-16.804688 0-25.351563 10.511719-32.207032 18.953125-6.773437 8.335937-11.03125 13.046875-19.800781 13.046875-8.757812 0-13.007812-4.710938-19.773437-13.039062-6.855469-8.449219-15.386719-18.960938-32.183594-18.960938-16.808594 0-25.34375 10.511719-32.210938 18.960938-6.765624 8.328124-11.03125 13.039062-19.789062 13.039062-8.761719 0-13.007812-4.710938-19.777344-13.039062-6.855468-8.449219-15.398437-18.960938-32.199218-18.960938-16.800782 0-25.335938 10.511719-32.199219 18.960938-6.769531 8.328124-11.027344 13.039062-19.777344 13.039062-8.761719 0-13.015625-4.710938-19.785156-13.039062-5.664063-6.976563-12.550781-15.265626-24.199219-17.976563v-8.984375c0-13.230469 10.769531-24 24-24zm-24 50.007812c4.089844 2.089844 7.464844 5.726563 11.777344 11.03125 6.863281 8.449219 15.398437 18.960938 32.207031 18.960938s25.335937-10.511719 32.199219-18.960938c6.761718-8.328124 11.015625-13.039062 19.777344-13.039062 8.757812 0 13.015624 4.710938 19.78125 13.039062 6.859374 8.449219 15.402343 18.960938 32.203124 18.960938 16.808594 0 25.34375-10.511719 32.199219-18.953125 6.765625-8.335937 11.023438-13.046875 19.792969-13.046875 8.75 0 13.007812 4.710938 19.765625 13.039062 6.855469 8.449219 15.394531 18.960938 32.191406 18.960938 16.808594 0 25.351563-10.511719 32.210938-18.953125 6.773437-8.335937 11.039062-13.046875 19.796875-13.046875 8.777344 0 13.042968 4.710938 19.816406 13.046875 6.875 8.449219 15.417969 18.953125 32.234375 18.953125s25.359375-10.503906 32.230469-18.953125c4.328125-5.320313 7.710937-8.957031 11.816406-11.046875v78h-400zm304 141.992188h-208c-10.414062 0-19.214844-6.710938-22.527344-16h253.046875c-3.304687 9.289062-12.105469 16-22.519531 16zm104-32h-416c-10.433594 0-19.328125-6.6875-22.632812-16h461.257812c-3.296875 9.3125-12.191406 16-22.625 16zm0 0" fill="#050505"/></svg>