<svg height="503pt" viewBox="0 -26 503.096 503" width="503pt" xmlns="http://www.w3.org/2000/svg"><path d="m282.992188 284.128906c-.566407-3.058594-1.601563-5.929687-2.816407-8.695312 2.289063-5.113282 3.488281-10.457032 3.488281-15.976563 0-19.554687-14.105468-35.871093-32.671874-39.328125-3.457032-18.570312-19.777344-32.671875-39.328126-32.671875-22.054687 0-40 17.941407-40 40v72h32v64h72c22.054688 0 40-17.945312 40-40 0-19.554687-14.105468-35.871093-32.671874-39.328125zm-78.519532-.671875h-16.808594v-56c0-13.234375 10.769532-24 24-24 13.230469 0 24 10.765625 24 24v8h8c13.230469 0 24 10.765625 24 24 0 .054688-.023437.101563-.023437.160157-6.695313-5.058594-14.953125-8.160157-23.976563-8.160157-19.3125 0-35.472656 13.765625-39.191406 32zm71.191406 64h-56v-56c0-13.234375 10.769532-24 24-24 13.230469 0 24 10.765625 24 24v8h8c13.230469 0 24 10.765625 24 24 0 13.230469-10.769531 24-24 24zm0 0"/><path d="m462.976562 211.457031 19.71875-19.722656c5.785157-5.78125 8.96875-13.46875 8.96875-21.644531 0-16.898438-13.742187-30.632813-30.625-30.632813-8.183593 0-15.871093 3.183594-21.65625 8.976563l-19.71875 19.710937-20.6875-20.6875 19.71875-19.722656c5.785157-5.78125 8.96875-13.46875 8.96875-21.644531 0-16.898438-13.742187-30.632813-30.625-30.632813-8.183593 0-15.871093 3.183594-21.65625 8.976563l-19.71875 19.710937-20.6875-20.6875 19.71875-19.722656c5.785157-5.78125 8.96875-13.46875 8.96875-21.644531 0-16.898438-13.742187-30.632813-30.625-30.632813-8.183593 0-15.871093 3.183594-21.65625 8.976563l-19.71875 19.710937-40.097656-40.097656-251.566406 259.945313 191.464844 191.464843h103.421875l208.210937-199.882812zm-12.28125-51.714843c2.730469-2.726563 6.488282-4.285157 10.34375-4.285157 8.066407 0 14.625 6.558594 14.625 14.632813 0 3.902344-1.519531 7.582031-4.28125 10.34375l-34.75 34.742187c-2.730468 2.71875-6.488281 4.28125-10.34375 4.28125-8.066406 0-14.625-6.5625-14.625-14.632812 0-3.902344 1.519532-7.585938 4.28125-10.34375zm-64-64c2.730469-2.726563 6.488282-4.285157 10.34375-4.285157 8.066407 0 14.625 6.558594 14.625 14.632813 0 3.902344-1.519531 7.582031-4.28125 10.34375l-34.75 34.742187c-2.730468 2.71875-6.488281 4.28125-10.34375 4.28125-8.066406 0-14.625-6.5625-14.625-14.632812 0-3.902344 1.519532-7.585938 4.28125-10.34375zm-64-64c2.730469-2.726563 6.488282-4.285157 10.34375-4.285157 8.066407 0 14.625 6.558594 14.625 14.632813 0 3.902344-1.519531 7.582031-4.28125 10.34375l-34.75 34.742187c-2.730468 2.71875-6.488281 4.28125-10.34375 4.28125-8.066406 0-14.625-6.5625-14.625-14.632812 0-3.902344 1.519532-7.585938 4.28125-10.34375zm-70.933593-8.878907 28.589843 28.59375-3.71875 3.71875c-5.785156 5.785157-8.96875 13.472657-8.96875 21.648438 0 16.894531 13.742188 30.632812 30.625 30.632812 8.183594 0 15.871094-3.183593 21.65625-8.976562l3.71875-3.710938 20.6875 20.6875-3.71875 3.71875c-5.785156 5.785157-8.96875 13.472657-8.96875 21.648438 0 16.894531 13.742188 30.632812 30.625 30.632812 8.183594 0 15.871094-3.183593 21.65625-8.976562l3.71875-3.710938 20.6875 20.6875-3.71875 3.71875c-5.785156 5.785157-8.96875 13.472657-8.96875 21.648438 0 16.894531 13.742188 30.632812 30.625 30.632812 8.183594 0 15.871094-3.183593 21.65625-8.976562l3.71875-3.710938 28.574219 28.574219-45.597656 43.777344-226.839844-226.839844zm-55.089844 56.914063 226.417969 226.414062-131.3125 126.066406-8.800782-8.800781 116-116-203.3125-203.3125-155.3125 155.3125 164 164-9.136718 9.136719-172.773438-172.785156zm46.992187 304.367187-28 28-152.6875-152.6875 132.6875-132.6875 180.6875 180.6875-104.6875 104.6875zm0 22.625 28.6875 28.6875h-57.375zm0 0"/><path d="m139.265625 205.792969-53.65625 53.664062 37.65625 37.65625 11.308594-11.3125-26.34375-26.34375 58.34375-58.34375-11.308594-11.3125zm0 0"/><path d="m163.261719 181.796875 15.238281-15.242187 11.316406 11.3125-15.242187 15.242187zm0 0"/></svg>