<svg height="496pt" viewBox="0 0 496 496" width="496pt" xmlns="http://www.w3.org/2000/svg"><path d="m332.761719 152h-1.480469c-7.066406 0-13.816406 2.0625-19.320312 5.703125-5.679688-3.710937-12.304688-5.703125-19.242188-5.703125h-1.480469c-19.421875 0-35.238281 15.808594-35.238281 35.238281 0 10.488281 4.625 20.355469 12.679688 27.074219l43.320312 36.101562 43.320312-36.101562c8.054688-6.710938 12.679688-16.585938 12.679688-27.074219 0-19.429687-15.816406-35.238281-35.238281-35.238281zm12.308593 50.023438-33.070312 27.5625-33.070312-27.5625c-4.410157-3.671876-6.929688-9.054688-6.929688-14.785157 0-10.605469 8.632812-19.238281 19.238281-19.238281h1.480469c5.066406 0 10.015625 2.054688 14.136719 6.128906l5.664062 4.679688 5.167969-5.167969c3.578125-3.585937 8.527344-5.640625 13.59375-5.640625h1.480469c10.605469 0 19.238281 8.632812 19.238281 19.238281 0 5.730469-2.519531 11.113281-6.929688 14.785157zm0 0"/><path d="m312 96c-57.34375 0-104 46.65625-104 104s46.65625 104 104 104 104-46.65625 104-104-46.65625-104-104-104zm0 192c-48.519531 0-88-39.480469-88-88s39.480469-88 88-88 88 39.480469 88 88-39.480469 88-88 88zm0 0"/><path d="m456 32v-8c0-13.230469-10.769531-24-24-24h-32c-13.230469 0-24 10.769531-24 24v8h-232v-16c0-8.824219-7.175781-16-16-16h-80c-8.824219 0-16 7.175781-16 16v16c0 .273438.0625.527344.078125.800781-18.269531 3.6875-32.078125 19.855469-32.078125 39.199219v224c0 22.054688 17.945312 40 40 40h32v160h352v-160h32c22.054688 0 40-17.945312 40-40v-224c0-22.054688-17.945312-40-40-40zm-64-8c0-4.40625 3.585938-8 8-8h32c4.414062 0 8 3.59375 8 8v8h-48zm-264 8h-16v-16h16zm-48 0v-16h16v16zm-32-16h16v16h-16zm-8 32h416c10.414062 0 19.214844 6.710938 22.527344 16h-461.054688c3.3125-9.289062 12.113282-16 22.527344-16zm395.585938 208.441406c7.09375 1.628906 12.414062 7.972656 12.414062 15.558594 0 8.824219-7.175781 16-16 16-4.679688 0-9.0625-2.113281-12.0625-5.59375 6.132812-8.015625 11.398438-16.703125 15.648438-25.964844zm-123.585938 63.558594c-66.167969 0-120-53.832031-120-120s53.832031-120 120-120 120 53.832031 120 120-53.832031 120-120 120zm-192 16h48v6.214844c0 13.578125 5.824219 26.546875 15.976562 35.570312l64.023438 56.917969 64.023438-56.910156c10.152343-9.023438 15.976562-21.992188 15.976562-35.578125v-6.214844h48v112h-256zm8-112h-112v-96h88c13.230469 0 24 10.769531 24 24zm0 16v16h-112v-16zm0 32v16h-112v-16zm-24-160h-88v-32h232.136719c-42.871094 22.910156-72.136719 68.089844-72.136719 120s29.265625 97.089844 72.136719 120h-104.136719v-168c0-22.054688-17.945312-40-40-40zm80 224h128v6.214844c0 9.015625-3.863281 17.625-10.601562 23.617187l-53.398438 47.464844-53.398438-47.464844c-6.738281-5.992187-10.601562-14.601562-10.601562-23.617187zm-166.527344-32h110.527344v16h-88c-10.414062 0-19.214844-6.710938-22.527344-16zm390.527344 176h-320v-144h16v128h288v-128h16zm48-160h-80.136719c12.527344-6.695312 23.847657-15.304688 33.65625-25.414062 5.894531 5.878906 13.921875 9.414062 22.480469 9.414062 17.648438 0 32-14.351562 32-32 0-14.335938-9.535156-26.359375-22.558594-30.414062 4.222656-13.121094 6.558594-27.082032 6.558594-41.585938 0-51.910156-29.265625-97.089844-72.136719-120h104.136719v216c0 13.230469-10.769531 24-24 24zm0 0"/><path d="m32 208h80v-64h-80zm16-48h48v32h-48zm0 0"/><path d="m464 104c0 4.417969-3.582031 8-8 8s-8-3.582031-8-8 3.582031-8 8-8 8 3.582031 8 8zm0 0"/><path d="m344 416h-32v16h48v-64h-16zm0 0"/></svg>