<svg height="496pt" viewBox="0 -3 496 496" width="496pt" xmlns="http://www.w3.org/2000/svg"><path d="m192 305.734375h-8v-8c0-22.054687-17.945312-40-40-40s-40 17.945313-40 40v88h88c22.054688 0 40-17.941406 40-40 0-22.054687-17.945312-40-40-40zm0 64h-72v-72c0-13.230469 10.769531-24 24-24s24 10.769531 24 24v24h24c13.230469 0 24 10.769531 24 24 0 13.234375-10.769531 24-24 24zm0 0"/><path d="m152 441.175781-29.488281-29.488281-11.3125 11.3125 30.472656 30.472656c2.726563 2.710938 6.496094 4.261719 10.328125 4.261719s7.601562-1.550781 10.34375-4.277344l22.214844-22.210937-11.3125-11.308594zm0 0"/><path d="m181.226562 411.949219 16.09375-16.09375 11.3125 11.3125-16.09375 16.09375zm0 0"/><path d="m472 377.734375h-64c-4.40625 0-8-3.582031-8-8v-128c0-12.269531-4.976562-24.285156-13.65625-32.964844l-47.03125-47.035156 16.078125-16.078125c12.496094 10.039062 28.335937 16.078125 45.578125 16.078125 35.824219 0 66.085938-25.636719 71.976562-60.972656l16.796876-100.761719-100.765626 16.800781c-35.335937 5.878907-60.976562 36.152344-60.976562 71.96875 0 17.238281 6.039062 33.078125 16.078125 45.582031l-16.078125 16.074219-47.03125-47.035156c-8.800781-8.804687-20.511719-13.65625-32.96875-13.65625s-24.167969 4.851563-32.96875 13.65625l-201.375 201.378906c-8.679688 8.679688-13.65625 20.695313-13.65625 32.964844 0 12.273437 4.976562 24.289063 13.65625 32.96875l105.375 105.375c8.800781 8.808594 20.511719 13.65625 32.96875 13.65625s24.167969-4.847656 32.96875-13.65625l155.304688-155.300781c.007812-.007813.015624-.007813.023437-.015625l1.367187-1.378907 10.335938-10.335937v60.6875c0 4.417969-3.59375 8-8 8h-32c-13.230469 0-24 10.769531-24 24 0 13.234375 10.769531 24 24 24h16c4.40625 0 8 3.585937 8 8 0 4.417969-3.59375 8-8 8h-64c-13.230469 0-24 10.769531-24 24 0 13.234375 10.769531 24 24 24h176c13.230469 0 24-10.765625 24-24 0-13.230469-10.769531-24-24-24h-32c-4.40625 0-8-3.582031-8-8 0-4.414063 3.59375-8 8-8h64c13.230469 0 24-10.765625 24-24 0-13.230469-10.769531-24-24-24zm-87.03125-240c-18.175781 0-32.96875-14.789063-32.96875-32.964844 0-16.175781 11.585938-29.859375 28.089844-32.625l49.199218-11.695312-11.808593 49.742187c-2.65625 15.960938-16.328125 27.542969-32.511719 27.542969zm6.632812-105.160156 78.664063-13.109375-13.113281 78.664062c-3.871094 23.230469-21.273438 41.046875-43.367188 46.101563 10.007813-7.261719 17.253906-18.09375 19.367188-30.886719l17.695312-74.480469-73.9375 17.59375c-13.125 2.191407-24.117187 9.496094-31.445312 19.574219 5.03125-22.128906 22.871094-39.574219 46.136718-43.457031zm-217.945312 432.195312c-11.566406 11.558594-31.746094 11.558594-43.3125 0l-105.375-105.378906c-5.695312-5.703125-8.96875-13.589844-8.96875-21.65625 0-8.0625 3.273438-15.949219 8.96875-21.65625l136.398438-136.398437c3.738281 12.695312 15.367187 22.054687 29.265624 22.054687 8.175782 0 15.863282-3.183594 21.65625-8.964844l26.734376-26.753906c2.769531-2.757813 6.441406-4.28125 10.34375-4.28125 8.074218 0 14.632812 6.5625 14.632812 14.625 0 3.847656-1.558594 7.617187-4.289062 10.34375l-42.734376 42.753906c-5.792968 5.78125-8.976562 13.464844-8.976562 21.65625 0 16.878907 13.734375 30.621094 30.632812 30.621094 8.175782 0 15.863282-3.183594 21.65625-8.964844l26.734376-26.753906c2.769531-2.757813 6.441406-4.28125 10.34375-4.28125 8.074218 0 14.632812 6.5625 14.632812 14.625 0 3.847656-1.558594 7.617187-4.289062 10.34375l-10.734376 10.753906c-5.792968 5.78125-8.976562 13.464844-8.976562 21.65625 0 13.886719 9.359375 25.519531 22.054688 29.253907zm155.28125-155.28125c-2.761719 2.734375-6.417969 4.246094-10.304688 4.246094-8.074218 0-14.632812-6.558594-14.632812-14.621094 0-3.847656 1.558594-7.617187 4.289062-10.34375l10.734376-10.753906c5.792968-5.785156 8.976562-13.464844 8.976562-21.65625 0-16.878906-13.734375-30.625-30.632812-30.625-8.175782 0-15.863282 3.1875-21.65625 8.96875l-26.734376 26.753906c-2.769531 2.757813-6.441406 4.277344-10.34375 4.277344-8.074218 0-14.632812-6.558594-14.632812-14.621094 0-3.847656 1.558594-7.617187 4.289062-10.34375l42.734376-42.753906c5.792968-5.785156 8.976562-13.464844 8.976562-21.65625 0-16.878906-13.734375-30.625-30.632812-30.625-8.175782 0-15.863282 3.1875-21.65625 8.96875l-26.734376 26.753906c-2.769531 2.757813-6.441406 4.277344-10.34375 4.277344-8.074218 0-14.632812-6.558594-14.632812-14.621094 0-3.847656 1.558594-7.617187 4.289062-10.34375l33.367188-33.378906 12.6875-12.6875c5.785156-5.78125 13.480469-8.96875 21.65625-8.96875s15.871094 3.1875 21.65625 8.96875l105.375 105.375c5.695312 5.707031 8.96875 13.59375 8.96875 21.65625 0 8.066406-3.273438 15.953125-8.96875 21.65625zm143.0625 100.246094h-64c-13.230469 0-24 10.769531-24 24 0 13.234375 10.769531 24 24 24h32c4.40625 0 8 3.585937 8 8 0 4.417969-3.59375 8-8 8h-176c-4.40625 0-8-3.582031-8-8 0-4.414063 3.59375-8 8-8h64c13.230469 0 24-10.765625 24-24 0-13.230469-10.769531-24-24-24h-16c-4.40625 0-8-3.582031-8-8 0-4.414063 3.59375-8 8-8h32c13.230469 0 24-10.765625 24-24v-76.6875l16-16v92.6875c0 13.234375 10.769531 24 24 24h64c4.40625 0 8 3.585937 8 8 0 4.417969-3.59375 8-8 8zm0 0"/><path d="m376 97.734375h16v16h-16zm0 0"/></svg>