<svg height="496pt" viewBox="0 0 496 496" width="496pt" xmlns="http://www.w3.org/2000/svg"><path d="m432 264v-224c0-22.054688-17.945312-40-40-40h-304c-22.054688 0-40 17.945312-40 40v40h64v240.304688l-99.71875 104.101562c-7.921875 7.921875-12.28125 18.449219-12.28125 29.65625 0 23.121094 18.816406 41.9375 41.9375 41.9375 11.199219 0 21.734375-4.359375 29.773438-12.40625l56.832031-59.328125c6.800781 4.933594 15.015625 7.734375 23.457031 7.734375h304c22.054688 0 40-17.945312 40-40v-128zm-368-224c0-13.230469 10.769531-24 24-24h272.015625c-5.03125 6.6875-8.015625 15-8.015625 24v24h-288zm152 164.6875-48.398438-48.398438c-4.90625-4.90625-7.601562-11.425781-7.601562-18.34375 0-14.304687 11.632812-25.945312 25.9375-25.945312 6.933594 0 13.445312 2.695312 18.34375 7.601562l11.71875 11.710938 11.726562-11.710938c4.890626-4.90625 11.402344-7.601562 18.335938-7.601562 14.304688 0 25.9375 11.640625 25.9375 25.945312 0 6.925782-2.695312 13.4375-7.59375 18.34375zm59.726562-37.09375c7.914063-7.929688 12.273438-18.457031 12.273438-29.648438 0-3.183593-.425781-6.265624-1.105469-9.25 18.769531 3.289063 33.105469 19.609376 33.105469 39.304688v24h24c22.054688 0 40 17.945312 40 40s-17.945312 40-40 40h-85.632812l7.066406-49.433594-25.433594 3.640625v-22.886719zm-157.015624 243.804688-11.566407-11.566407 117.03125-124.34375 12.632813 12.632813zm-11.0625 11.5625-12.417969 12.960937-36.6875-36.691406 12.417969-12.957031zm138.917968-181.527344-4.222656 29.597656-25.375-25.375zm-46.445312 10 12.726562 12.726562-117.023437 124.351563-13.792969-13.792969zm-139.839844 220.972656c-4.898438 4.898438-11.417969 7.59375-18.34375 7.59375-14.304688 0-25.9375-11.632812-25.9375-25.9375 0-6.925781 2.695312-13.445312 7.710938-18.46875l23.761718-24.808594 36.6875 36.6875zm79.4375-59.804688 114.058594-119.066406 1.78125-1.847656.519531-3.6875h87.921875c30.871094 0 56-25.128906 56-56 0-30.878906-25.128906-56-56-56h-8v-8c0-30.878906-25.128906-56-56-56-.398438 0-.792969.054688-1.191406.0625-7.6875-9.703125-19.433594-16.0625-32.746094-16.0625-11.207031 0-21.742188 4.359375-29.65625 12.28125l-.40625.40625-.398438-.398438c-7.921874-7.929687-18.449218-12.289062-29.664062-12.289062-23.121094 0-41.9375 18.816406-41.9375 41.945312 0 11.191407 4.359375 21.726563 12.28125 29.65625l59.71875 59.710938 8-8v9.175781l-27.863281 3.984375-68.136719 71.128906v-223.601562h240v-40c0-13.230469 10.769531-24 24-24s24 10.769531 24 24v352c0 9.039062 3.128906 17.296875 8.207031 24h-272.207031c-4.488281 0-8.71875-1.257812-12.28125-3.398438zm340.28125-20.601562c0 13.230469-10.769531 24-24 24s-24-10.769531-24-24v-112h48zm0 0"/><path d="m368 232h-16c0 4.40625-3.585938 8-8 8h-32v16h32c13.230469 0 24-10.769531 24-24zm0 0"/><path d="m280 240h16v16h-16zm0 0"/><path d="m272 320h128v16h-128zm0 0"/><path d="m272 352h128v16h-128zm0 0"/><path d="m224 384h176v16h-176zm0 0"/><path d="m392 152h16v16h-16zm0 0"/><path d="m392 88h16v16h-16zm0 0"/><path d="m392 120h16v16h-16zm0 0"/></svg>