<svg height="496pt" viewBox="0 0 496 496" width="496pt" xmlns="http://www.w3.org/2000/svg"><path d="m447.984375 303.886719c-.816406 61.425781-40.441406 116.152343-98.59375 136.183593l5.210937 15.128907c64.511719-22.230469 108.46875-82.953125 109.375-151.09375zm0 0"/><path d="m447.398438 288.726562 15.9375-1.453124c-.511719-5.625-1.328126-11.289063-2.425782-16.832032l-15.695312 3.109375c.992187 4.992188 1.730468 10.097657 2.183594 15.175781zm0 0"/><path d="m456.640625 253.617188c-1.785156-5.714844-3.90625-11.378907-6.304687-16.832032l-14.648438 6.4375c2.160156 4.914063 4.074219 10.015625 5.671875 15.167969zm0 0"/><path d="m447.976562 174.121094-62.28125-71.183594 46.304688-84.898438v-18.039062h-32c-16.816406 0-25.359375 10.503906-32.222656 18.953125-6.777344 8.335937-11.035156 13.046875-19.800782 13.046875-8.769531 0-13.03125-4.710938-19.808593-13.046875-6.863281-8.449219-15.414063-18.953125-32.222657-18.953125-16.808593 0-25.34375 10.503906-32.210937 18.953125-6.765625 8.335937-11.023437 13.046875-19.78125 13.046875-8.753906 0-13-4.710938-19.769531-13.039062-6.855469-8.457032-15.382813-18.960938-32.183594-18.960938h-32v18.039062l32.152344 58.945313c-.566406.6875-1.191406 1.335937-1.703125 2.0625l-16.730469-5.566406c-2.933594-.984375-5.984375-1.480469-9.070312-1.480469-15.800782 0-28.648438 12.847656-28.648438 28.648438v22.703124c0 15.390626 12.230469 27.90625 27.480469 28.527344l-19.457031 22.234375c-8.246094 9.421875-15.519532 19.671875-21.792969 30.488281-5.488281-2.839843-11.628907-4.601562-18.230469-4.601562-22.054688 0-40 17.945312-40 40v56.046875c-38.488281 16.050781-64 53.875-64 95.953125 0 57.34375 46.65625 104 104 104 30.351562 0 57.617188-13.152344 76.648438-33.953125 32.320312 22.144531 69.953124 33.953125 109.429687 33.953125h11.832031c107.027344 0 194.089844-87.070312 194.089844-194.089844 0-47.023437-17.054688-92.40625-48.023438-127.789062zm-255.976562-158.121094c8.753906 0 13 4.710938 19.761719 13.039062 6.855469 8.449219 15.390625 18.960938 32.191406 18.960938 16.808594 0 25.34375-10.503906 32.207031-18.953125 6.761719-8.335937 11.015625-13.046875 19.785156-13.046875 8.773438 0 13.03125 4.710938 19.808594 13.046875 6.863282 8.449219 15.40625 18.953125 32.222656 18.953125 16.816407 0 25.351563-10.503906 32.214844-18.953125 6.777344-8.335937 11.03125-13.046875 19.808594-13.046875h14.886719l-43.628907 80h-27.722656c-2.238281-13.585938-13.976562-24-28.175781-24-3.085937 0-6.136719.496094-9.054687 1.472656l-16.738282 5.574219c-6.398437-9.070313-16.902344-15.046875-28.804687-15.046875h-1.472657c-6.847656 0-13.410156 1.9375-19.226562 5.777344-5.695312-3.761719-12.367188-5.777344-19.351562-5.777344h-1.472657c-5.085937 0-9.894531 1.128906-14.269531 3.078125l-27.855469-51.078125zm81.078125 98.023438-33.078125 27.5625-33.070312-27.554688c-4.410157-3.671875-6.929688-9.0625-6.929688-14.792969 0-10.605469 8.632812-19.238281 19.238281-19.238281h1.472657c5.144531 0 9.976562 2 13.121093 5.105469l5.648438 6.726562 6.191406-6.191406c3.640625-3.640625 8.472656-5.640625 13.617187-5.640625h1.472657c10.605469 0 19.238281 8.632812 19.238281 19.238281 0 5.730469-2.519531 11.121094-6.921875 14.785157zm-42.148437 40.832031-19.875 72.847656-24.824219-14.886719 31.386719-69.046875zm31.445312-11.085938 31.386719 69.046875-24.824219 14.886719-19.875-72.847656zm33.625-44.53125c0-1.8125-.273438-3.558593-.535156-5.292969l15.886718-5.296874c1.296876-.433594 2.640626-.648438 4-.648438 6.976563 0 12.648438 5.671875 12.648438 12.648438v22.703124c0 6.976563-5.671875 12.648438-12.648438 12.648438-1.359374 0-2.703124-.214844-4-.648438l-27.808593-9.273437c7.90625-6.710937 12.457031-16.460937 12.457031-26.839844zm-144 24.113281v-22.703124c0-6.976563 5.671875-12.648438 12.648438-12.648438 1.359374 0 2.703124.214844 4 .65625l15.878906 5.289062c-.253906 1.742188-.527344 3.488282-.527344 5.292969 0 10.378907 4.550781 20.121094 12.449219 26.839844l-27.808594 9.273437c-1.296875.433594-2.640625.648438-4 .648438-6.96875 0-12.640625-5.671875-12.640625-12.648438zm-72 116.648438c0-13.230469 10.769531-24 24-24s24 10.769531 24 24v24h24c13.230469 0 24 10.769531 24 24s-10.769531 24-24 24h-72zm24 240c-48.519531 0-88-39.480469-88-88 0-33.320312 18.894531-63.472656 48-78.351562v14.351562h88c3.648438 0 7.121094-.648438 10.488281-1.566406 18.742188 16.710937 29.511719 40.328125 29.511719 65.566406 0 48.519531-39.480469 88-88 88zm197.921875 0h-11.84375c-35.855469 0-70.039063-10.609375-99.476563-30.527344 10.972657-16.480468 17.398438-36.234375 17.398438-57.472656 0-27.824219-11.007812-54.046875-30.457031-73.480469 8.761719-7.34375 14.457031-18.222656 14.457031-30.519531 0-22.054688-17.945312-40-40-40h-8v-8c0-9.585938-3.527344-18.273438-9.167969-25.167969 6.023438-10.742187 13.105469-20.894531 21.230469-30.183593l34.882812-39.871094 10.183594-3.394532-35.367187 77.800782 55.175781 33.113281 19.0625-69.890625 19.054688 69.890625 55.175781-33.113281-35.367188-77.800782 27.417969 9.136719c2.933594.984375 5.984375 1.480469 9.070312 1.480469 15.800782 0 28.648438-12.847656 28.648438-28.648438v-11.351562h28.367188l63.570312 72.648438c28.414062 32.480468 44.0625 74.121093 44.0625 117.261718 0 98.203125-79.886719 178.089844-178.078125 178.089844zm0 0"/><path d="m304 272.808594v-16.808594h-16v16h-32v40c0 22.054688 17.945312 40 40 40 13.230469 0 24 10.769531 24 24v24h-24c-13.230469 0-24-10.769531-24-24v-8h-16v8c0 19.3125 13.769531 35.472656 32 39.191406v16.808594h16v-16h32v-40c0-22.054688-17.945312-40-40-40-13.230469 0-24-10.769531-24-24v-24h24c13.230469 0 24 10.769531 24 24v8h16v-8c0-19.3125-13.769531-35.472656-32-39.191406zm0 0"/><path d="m146.34375 338.34375-10.34375 10.34375-16-16-24 24c-5.160156 5.167969-8 12.023438-8 19.3125s2.839844 14.152344 8 19.3125l4.679688 4.6875c2.144531 2.144531 3.320312 4.976562 3.320312 8s-1.175781 5.855469-3.3125 8l-12.6875 12.6875-12.679688-12.6875c-2.144531-2.144531-3.320312-4.976562-3.320312-8s1.175781-5.855469 3.3125-8l10.34375-10.34375-11.3125-11.3125-10.34375 10.34375c-5.160156 5.160156-8 12.023438-8 19.3125 0 5.703125 1.785156 11.105469 5.015625 15.671875l-10.671875 10.671875 11.3125 11.3125 10.34375-10.34375 16 16 24-24c5.160156-5.167969 8-12.023438 8-19.3125s-2.839844-14.152344-8-19.3125l-4.679688-4.6875c-2.144531-2.144531-3.320312-4.976562-3.320312-8s1.175781-5.855469 3.3125-8l12.6875-12.6875 12.679688 12.6875c2.144531 2.144531 3.320312 4.976562 3.320312 8s-1.175781 5.855469-3.3125 8l-10.34375 10.34375 11.3125 11.3125 10.34375-10.34375c5.160156-5.167969 8-12.023438 8-19.3125 0-5.703125-1.785156-11.105469-5.007812-15.671875l10.664062-10.664063zm0 0"/><path d="m152 432c0 4.417969-3.582031 8-8 8s-8-3.582031-8-8 3.582031-8 8-8 8 3.582031 8 8zm0 0"/><path d="m72 352c0 4.417969-3.582031 8-8 8s-8-3.582031-8-8 3.582031-8 8-8 8 3.582031 8 8zm0 0"/></svg>