<svg height="502.624pt" viewBox="0 0 502.624 502.624" width="502.624pt" xmlns="http://www.w3.org/2000/svg"><path d="m322.640625 291.984375c-3.457031-18.570313-19.777344-32.671875-39.328125-32.671875-22.054688 0-40 17.945312-40 40v72h72c22.054688 0 40-17.945312 40-40 0-19.550781-14.105469-35.871094-32.671875-39.328125zm-7.328125 63.328125h-56v-56c0-13.234375 10.765625-24 24-24 13.230469 0 24 10.765625 24 24v8h8c13.230469 0 24 10.765625 24 24 0 13.230469-10.769531 24-24 24zm0 0"/><path d="m211.3125 0-211.3125 211.3125 291.3125 291.3125 211.3125-211.3125zm63.429688 131.3125 160 160-143.429688 143.429688-223.433594-223.429688 80-80zm-156.117188-16 16-16h153.375l16 16zm77.253906-32 15.433594-15.433594 15.429688 15.433594zm76.121094 0h-22.632812l-38.054688-38.054688-38.054688 38.054688h-22.632812l60.6875-60.6875zm-249.375 128 80-80h22.632812l-80 80 246.054688 246.054688 166.054688-166.054688-160-160h22.632812l160 160-188.6875 188.6875zm0 0"/><path d="m96 211.3125 75.3125 75.3125 32-32 24 24 59.3125-59.3125-75.3125-75.3125-32 32-24-24zm22.625 0 36.6875-36.6875 52.6875 52.6875-36.6875 36.6875zm92.6875-44.6875 52.6875 52.6875-36.6875 36.6875-12.6875-12.6875 16-16-40-40zm0 0"/><path d="m245.652344 152.96875 11.3125-11.3125 152 152-11.316406 11.3125zm0 0"/></svg>