<svg height="496pt" viewBox="0 0 496 496" width="496pt" xmlns="http://www.w3.org/2000/svg"><path d="m406.023438 244.761719-3.6875-2.640625c-6.183594-4.417969-12.257813-8.984375-18.335938-13.546875v-100.574219h-64v48.046875c-34.984375-31.304687-67.769531-65.0625-97.855469-101.175781l-2.402343-2.878906h-23.496094l-2.398438 2.878906c-52.648437 63.175781-113.273437 119.449218-180.191406 167.25l-3.664062 2.621094c-6.257813 4.472656-9.992188 11.730468-9.992188 19.417968 0 13.144532 10.6875 23.839844 23.871094 23.847656h.03125c4.539062 0 8.960937-1.289062 12.792968-3.71875l4.863282-3.113281c.671875-.480469 1.328125-.984375 2-1.472656l26.90625 152.296875h-6.464844c-22.054688 0-40 17.945312-40 40v24h368v-24c0-22.054688-17.945312-40-40-40h-6.464844l26.90625-152.3125c.816406.585938 1.605469 1.199219 2.429688 1.785156l4.769531 2.953125c3.765625 2.34375 8.113281 3.574219 12.542969 3.574219 13.136718 0 23.816406-10.679688 23.816406-23.863281 0-7.671875-3.726562-14.921875-9.976562-19.375zm-38.023438-100.761719v16h-32v-16zm-32 32h32v40.273438c-10.847656-8.503907-21.527344-17.226563-32-26.183594zm40 296v8h-336v-8c0-13.230469 10.769531-24 24-24h288c13.230469 0 24 10.769531 24 24zm-160-40v-40h48v40zm0-56v-55.359375c27.097656 3.902344 48 27.207031 48 55.359375zm-16 0h-48c0-28.152344 20.902344-51.457031 48-55.359375zm-48 16h48v40h-48zm177.289062 40h-49.289062v-56c0-39.695312-32.304688-72-72-72s-72 32.304688-72 72v56h-49.289062l-28.765626-162.863281c54.40625-40.550781 104.824219-86.570313 150.054688-137.191407 45.144531 50.527344 95.464844 96.46875 150.0625 137.175782zm62.894532-160c-1.457032 0-2.878906-.40625-4.113282-1.167969l-4.335937-2.664062c-62.183594-44.425781-119.285156-96.089844-169.71875-153.566407l-6.015625-6.859374-6.007812 6.851562c-50.441407 57.476562-107.542969 109.148438-169.367188 153.328125l-4.503906 2.863281c-1.265625.800782-2.722656 1.222656-4.265625 1.222656h-.007813c-4.328125 0-7.847656-3.519531-7.847656-7.847656 0-2.527344 1.230469-4.921875 3.296875-6.390625l3.664063-2.625c67.015624-47.863281 127.816406-104.089843 180.773437-167.144531h8.523437c52.957032 63.054688 113.757813 119.28125 180.773438 167.144531l3.6875 2.640625c2.058594 1.453125 3.28125 3.832032 3.28125 6.398438 0 4.3125-3.503906 7.816406-7.816406 7.816406zm0 0"/><path d="m463.328125 32.671875c-3.457031-18.566406-19.777344-32.671875-39.328125-32.671875-22.054688 0-40 17.945312-40 40v72h72c22.054688 0 40-17.945312 40-40 0-19.550781-14.105469-35.871094-32.671875-39.328125zm-7.328125 63.328125h-56v-56c0-13.230469 10.769531-24 24-24s24 10.769531 24 24v8h8c13.230469 0 24 10.769531 24 24s-10.769531 24-24 24zm0 0"/><path d="m280 88h56v-56c0-17.648438-14.351562-32-32-32-15.175781 0-27.910156 10.617188-31.183594 24.816406-14.199218 3.273438-24.816406 16.007813-24.816406 31.183594 0 17.648438 14.351562 32 32 32zm0-48h8v-8c0-8.824219 7.175781-16 16-16s16 7.175781 16 16v40h-40c-8.824219 0-16-7.175781-16-16s7.175781-16 16-16zm0 0"/><path d="m316.058594 342.992188 8.996094-72 15.878906 1.984374-9 72zm0 0"/><path d="m312.058594 374.988281 2-16.003906 15.875 1.984375-2 16.003906zm0 0"/><path d="m227.289062 184c-6.953124 0-13.601562 2-19.289062 5.726562-5.679688-3.726562-12.335938-5.726562-19.289062-5.726562h-1.472657c-19.429687 0-35.238281 15.808594-35.238281 35.238281 0 10.488281 4.625 20.355469 12.679688 27.074219l43.320312 36.101562 43.320312-36.101562c8.054688-6.710938 12.679688-16.585938 12.679688-27.074219 0-19.429687-15.808594-35.238281-35.238281-35.238281zm20.710938 35.238281c0 5.730469-2.519531 11.113281-6.921875 14.785157l-33.078125 27.5625-33.078125-27.5625c-4.402344-3.671876-6.921875-9.054688-6.921875-14.785157 0-10.605469 8.632812-19.238281 19.238281-19.238281h1.472657c5.144531 0 9.976562 2 13.609374 5.640625l5.695313 5.65625 5.65625-5.65625c3.640625-3.640625 8.472656-5.640625 13.617187-5.640625h1.472657c10.605469 0 19.238281 8.632812 19.238281 19.238281zm0 0"/></svg>