<svg height="502.624pt" viewBox="0 0 502.624 502.624" width="502.624pt" xmlns="http://www.w3.org/2000/svg"><path d="m315.3125 235.3125h72c22.054688 0 40-17.945312 40-40 0-19.550781-14.105469-35.871094-32.671875-39.328125-.570313-3.054687-1.601563-5.929687-2.816406-8.695313 2.289062-5.113281 3.488281-10.457031 3.488281-15.976562 0-19.550781-14.105469-35.871094-32.671875-39.328125-3.457031-18.570313-19.777344-32.671875-39.328125-32.671875-22.054688 0-40 17.945312-40 40v72h32zm96-40c0 13.230469-10.769531 24-24 24h-56v-56c0-13.234375 10.765625-24 24-24 13.230469 0 24 10.765625 24 24v8h8c13.230469 0 24 10.765625 24 24zm-112-96c0-13.234375 10.765625-24 24-24 13.230469 0 24 10.765625 24 24v8h8c13.230469 0 24 10.765625 24 24 0 .054688-.023438.101562-.023438.160156-6.695312-5.058594-14.953124-8.160156-23.976562-8.160156-19.3125 0-35.472656 13.765625-39.191406 32h-16.808594zm0 0"/><path d="m276.277344 399.023438 11.316406-11.316407 11.3125 11.316407-11.3125 11.3125zm0 0"/><path d="m298.910156 376.402344 10.746094-10.75 11.316406 11.3125-10.75 10.75zm0 0"/><path d="m253.648438 421.65625 11.316406-11.316406 11.3125 11.316406-11.3125 11.3125zm0 0"/><path d="m189.652344 416.96875 11.3125-11.3125 16 15.996094-11.316406 11.3125zm0 0"/><path d="m93.652344 320.96875 11.316406-11.3125 87.996094 87.996094-11.3125 11.3125zm0 0"/><path d="m502.625 179.3125-179.3125-179.3125-84.007812 84.007812-72 16-167.304688 167.304688 235.3125 235.3125 167.304688-167.304688 16-72zm-22.625 0-144 144h-92.6875v-8c0-30.878906-25.121094-56-56-56h-8v-92.6875l144-144zm-316.6875 80h-132.6875l132.6875-132.6875zm24 16c22.054688 0 40 17.945312 40 40v156.6875l-196.6875-196.6875zm56 64h132.6875l-132.6875 132.6875zm-64-195.3125v-30.273438l38.917969-8.648437zm209.582031 179.3125h-30.269531l38.917969-38.921875zm0 0"/><path d="m205.652344 160.96875 11.3125-11.3125 136 136-11.3125 11.3125zm0 0"/><path d="m181.652344 184.96875 11.3125-11.3125 136 136-11.3125 11.3125zm0 0"/></svg>