<svg height="496pt" viewBox="0 0 496 496" width="496pt" xmlns="http://www.w3.org/2000/svg"><path d="m434 144c-4.398438 0-8.734375.648438-13.023438 1.574219-9.375-36.03125-40.121093-62.078125-77.3125-65.246094-3.894531-44.945313-41.726562-80.328125-87.664062-80.328125-48.519531 0-88 39.480469-88 88v108.6875l-51.3125 51.3125 8 8-124.6875 124.6875v43.3125h43.3125l12.6875-12.6875 32 32 21.65625-21.65625-11.3125-11.3125-10.34375 10.34375-20.6875-20.6875 36.6875-36.6875 20.6875 20.6875-10.34375 10.34375 11.3125 11.3125 21.65625-21.65625-32-32 52.6875-52.6875 8 8 51.3125-51.3125h66.894531l49.792969 45.960938v66.039062h16v104c0 13.230469 10.769531 24 24 24 10.414062 0 19.214844-6.710938 22.527344-16h33.472656v-32h-16v16h-16v-48h16v16h16v-32h-32v-32h16v-66.039062l52.046875-48.050782c12.679687-11.695312 19.953125-28.300781 19.953125-45.558594v-2.351562c0-34.183594-27.816406-62-62-62zm-178-128c39.695312 0 72 32.304688 72 72v8h8c33.609375 0 62.046875 22.726562 69.824219 54.839844-3.152344 1.609375-6.191407 3.433594-9.023438 5.558594l-5.375 4.035156c-3.714843-27.304688-27.121093-48.433594-55.425781-48.433594h-24v-24c0-30.878906-25.121094-56-56-56s-56 25.121094-56 56v124.6875l-16-16v-108.6875c0-39.695312 32.304688-72 72-72zm-44.6875 208h62.792969c1.46875 5.625 3.695312 11.007812 6.65625 16h-53.449219zm60.6875-18v2h-56v-120c0-22.054688 17.945312-40 40-40s40 17.945312 40 40v40h40c19.03125 0 34.9375 13.390625 38.960938 31.222656l-3.761719-2.824218c-10.65625-8-23.863281-12.398438-37.199219-12.398438-34.183594 0-62 27.816406-62 62zm-235.3125 202h-20.6875v-20.6875l120-120 20.6875 20.6875zm139.3125-123.3125-36.6875-36.6875 36.6875-36.6875 36.6875 36.6875zm216 187.3125c0 4.40625-3.59375 8-8 8s-8-3.59375-8-8v-104h16zm16-120h-48v-48h48zm72-143.648438c0 12.800782-5.390625 25.121094-14.800781 33.800782l-49.664063 45.847656h-23.582031l62.390625-57.59375c6.136719-5.652344 9.65625-13.695312 9.65625-22.046875v-2.359375c0-16.542969-13.457031-30-30-30-6.449219 0-12.832031 2.128906-18 6l-32 24-32-24c-5.167969-3.871094-11.550781-6-18-6-16.542969 0-30 13.457031-30 30v2.359375c0 8.351563 3.511719 16.382813 9.65625 22.039063l62.398438 57.601562h-23.582032l-49.664062-45.839844c-9.417969-8.679687-14.808594-21-14.808594-33.808594v-2.351562c0-25.359375 20.640625-46 46-46 9.886719 0 19.6875 3.265625 27.601562 9.199219l13.09375 9.824219v.007812l4.519532 3.375 4.785156 3.59375 22.398438-16.800781c7.90625-5.933594 17.707031-9.199219 27.601562-9.199219 25.359375 0 46 20.640625 46 46zm-96 65.214844-59.496094-54.917968c-2.863281-2.648438-4.503906-6.390626-4.503906-10.289063v-2.359375c0-7.71875 6.28125-14 14-14 3.007812 0 5.992188.992188 8.390625 2.800781l41.609375 31.199219 41.609375-31.199219c2.398437-1.808593 5.382813-2.800781 8.390625-2.800781 7.71875 0 14 6.28125 14 14v2.359375c0 3.898437-1.640625 7.648437-4.503906 10.289063zm0 0"/><path d="m392 328c0 4.417969-3.582031 8-8 8s-8-3.582031-8-8 3.582031-8 8-8 8 3.582031 8 8zm0 0"/><path d="m184 248c0 4.417969-3.582031 8-8 8s-8-3.582031-8-8 3.582031-8 8-8 8 3.582031 8 8zm0 0"/><path d="m232 88v40h16v-40c0-4.40625 3.59375-8 8-8v-16c-13.230469 0-24 10.769531-24 24zm0 0"/><path d="m232 144h16v16h-16zm0 0"/><path d="m232 176h16v16h-16zm0 0"/></svg>