<svg height="486pt" viewBox="0 0 486 486.352" width="486pt" xmlns="http://www.w3.org/2000/svg"><path d="m258.574219 322.921875 11.902343-10.703125 10.707032 11.898438-11.902344 10.707031zm0 0"/><path d="m234.753906 344.316406 11.890625-10.703125 10.707031 11.890625-11.890624 10.703125zm0 0"/><path d="m210.972656 365.71875 11.890625-10.703125 10.703125 11.890625-11.890625 10.707031zm0 0"/><path d="m146.667969 329.644531 10.703125-11.894531 17.773437 16-10.707031 11.894531zm0 0"/><path d="m106.921875 272.328125c-10.21875-9.183594-16.074219-22.335937-16.074219-36.089844 0-26.519531 21.566406-48.300781 48.082032-48.558593l-.160157-16c-35.25.34375-63.921875 29.3125-63.921875 64.558593 0 18.28125 7.792969 35.761719 21.367188 47.976563l41.5625 37.410156 10.703125-11.890625zm0 0"/><path d="m439.558594 155.679688 46.960937-84.535157-47.640625-15.886719c-1.957031-3.066406-4.550781-5.65625-7.613281-7.617187l-15.875-47.640625-84.542969 46.976562v73.390626l-22.847656 22.847656c-8.34375-2.304688-16.953125-3.535156-25.710938-3.535156h-2.761718c-25.792969 0-50.03125 10.039062-68.269532 28.28125l-.410156.40625-.40625-.40625c-18.242187-18.242188-42.480468-28.28125-68.273437-28.28125h-2.761719c-53.238281 0-96.558594 43.320312-96.558594 96.558593 0 27.328125 11.648438 53.488281 31.960938 71.769531l36 32.398438-47.960938 47.960938-32.542968-32.550782-30.128907 130.535156 130.527344-30.121093-32.542969-32.550781 49.816406-49.816407 62.871094 56.578125 136.039063-122.433594c20.3125-18.28125 31.960937-44.441406 31.960937-71.769531 0-24.886719-9.679687-48.664062-26.703125-66.542969l14.015625-14.015624zm-9.421875-16h-47.976563l53.375-53.375c3.601563-3.601563 5.945313-8.113282 6.855469-13.007813l20.785156 6.925781zm-12.257813-80c4.945313 0 8.96875 4.023437 8.96875 8.96875 0 2.398437-.925781 4.648437-2.625 6.34375l-189.46875 189.464843-12.625-12.753906 189.40625-189.398437c1.671875-1.664063 3.984375-2.625 6.34375-2.625zm-71.03125-3.296876 59.464844-33.03125 6.925781 20.792969c-4.886719.933594-9.46875 3.304688-13.015625 6.847657l-53.375 53.375zm-325.328125 408.625 17.871094-77.464843 59.59375 59.585937zm65.328125-52.640624-12.6875-12.6875 48.550782-48.550782 13.351562 12.015625zm276-176.128907c0 22.800781-9.71875 44.625-26.664062 59.882813l-125.335938 112.800781-125.335937-112.800781c-16.945313-15.257813-26.664063-37.082032-26.664063-59.882813 0-44.421875 36.144532-80.558593 80.558594-80.558593h2.761719c21.511719 0 41.742187 8.375 56.960937 23.59375l11.71875 11.71875 11.71875-11.71875c15.21875-15.21875 35.449219-23.59375 56.960938-23.59375h2.761718c4.144532 0 8.246094.335937 12.296876.953124l-95.019532 95.023438 35.128906 35.496094 106.152344-106.160156c14.03125 14.886718 22 34.617187 22 55.246093zm0 0"/></svg>