<svg height="496pt" viewBox="0 0 496 496" width="496pt" xmlns="http://www.w3.org/2000/svg"><path d="m484.015625 120.703125-60.71875-60.71875c-13.578125-13.585937-36.648437-15.609375-52.386719-4.59375l-71.503906 50.050781-26.167969 25.992188-24.183593 56.429687-155.519532 196.992188 27.144532 27.144531-60.414063 60.40625c-4.882813 4.898438-11.394531 7.59375-18.328125 7.59375-14.304688 0-25.9375-11.640625-25.9375-25.945312 0-6.925782 2.695312-13.4375 7.59375-18.34375l65.09375-65.085938c4.71875-4.714844 7.3125-10.984375 7.3125-17.65625 0-13.769531-11.199219-24.96875-24.96875-24.96875-6.574219 0-13.007812 2.664062-17.65625 7.3125l-22.0625 22.0625c-1.671875 1.664062-3.984375 2.625-6.34375 2.625-4.945312 0-8.96875-4.023438-8.96875-8.96875 0-2.398438.929688-4.648438 2.625-6.34375l135.71875-135.71875c8.808594-8.800781 13.65625-20.511719 13.65625-32.96875s-4.847656-24.167969-13.65625-32.96875l-42.34375-42.34375v-60.6875c0-22.054688-17.945312-40-40-40-19.550781 0-35.871094 14.105469-39.328125 32.671875-18.566406 3.457031-32.671875 19.777344-32.671875 39.328125 0 22.054688 17.945312 40 40 40h60.6875l42.34375 42.34375c5.785156 5.785156 8.96875 13.480469 8.96875 21.65625s-3.183594 15.871094-8.96875 21.65625l-135.71875 135.71875c-4.71875 4.714844-7.3125 10.984375-7.3125 17.65625 0 13.769531 11.199219 24.96875 24.96875 24.96875 6.574219 0 13.007812-2.664062 17.65625-7.3125l22.0625-22.0625c1.671875-1.664062 3.984375-2.625 6.34375-2.625 4.945312 0 8.96875 4.023438 8.96875 8.96875 0 2.398438-.929688 4.648438-2.625 6.34375l-65.101562 65.09375c-7.914063 7.929688-12.273438 18.457031-12.273438 29.648438 0 23.128906 18.816406 41.945312 41.9375 41.945312 11.207031 0 21.742188-4.359375 29.65625-12.289062l60.40625-60.398438 27.152344 27.144531 196.96875-155.519531 56.453125-24.195312 25.089843-25.085938 50.953126-72.578125c4.832031-6.910156 7.382812-15.023437 7.382812-23.445313 0-10.929687-4.257812-21.199218-11.984375-28.929687zm-388.015625-24.703125h-56c-13.230469 0-24-10.769531-24-24s10.769531-24 24-24h8v-8c0-13.230469 10.769531-24 24-24s24 10.769531 24 24zm195.3125 40 12.6875-12.6875 116.6875 116.6875-12.6875 12.6875zm-8.609375 14.015625 111.289063 111.289063-40.160157 17.207031-44.167969-44.167969-44.167968-44.175781zm-2.015625 125.984375-33.375 33.375c-1.671875 1.664062-3.984375 2.625-6.34375 2.625-4.945312 0-8.96875-4.023438-8.96875-8.96875 0-2.398438.929688-4.648438 2.625-6.34375l33.375-33.375zm-57.375 9.375c-4.71875 4.714844-7.3125 10.984375-7.3125 17.65625 0 13.769531 11.199219 24.96875 24.96875 24.96875 6.574219 0 13.007812-2.664062 17.65625-7.3125l33.375-33.375 21.160156 21.160156-125.945312 99.4375-51.125-51.125 99.429687-125.9375 21.160157 21.160156zm22.191406-67.175781 11.191406-14.175781 83.28125 83.28125-14.175781 11.191406zm-130.59375 165.410156 11.203125-14.183594 48.460938 48.460938-14.175781 11.191406zm360.59375-219.699219-44.582031 63.699219-114.523437-114.519531 63.691406-44.585938c9.574218-6.695312 23.621094-5.488281 31.886718 2.792969l60.726563 60.726563c4.703125 4.703124 7.296875 10.960937 7.296875 17.609374 0 5.128907-1.550781 10.0625-4.496094 14.277344zm0 0"/></svg>