<svg height="496pt" viewBox="0 0 496 496" width="496pt" xmlns="http://www.w3.org/2000/svg"><path d="m496 208c0-48.824219-17.273438-96.070312-48.542969-133.414062-2.289062-13.296876-12.738281-23.746094-26.03125-26.035157-37.355469-31.277343-84.601562-48.550781-133.425781-48.550781-100.550781 0-185.222656 70.472656-204.039062 168.40625-15.730469 2.019531-27.960938 15.328125-27.960938 31.59375 0 9.609375 4.335938 18.128906 11.054688 24-6.71875 5.871094-11.054688 14.390625-11.054688 24s4.335938 18.128906 11.054688 24c-6.71875 5.871094-11.054688 14.390625-11.054688 24 0 13.953125 9.023438 25.710938 21.496094 30.089844-3.464844 5.109375-5.496094 11.277344-5.496094 17.910156 0 12.097656 6.816406 22.511719 16.734375 27.953125l-14.917969 14.917969c-7.074218-11.285156-19.535156-18.871094-33.816406-18.871094-22.054688 0-40 17.945312-40 40v88h88c22.054688 0 40-17.945312 40-40 0-14.28125-7.585938-26.742188-18.863281-33.816406l14.917969-14.917969c5.433593 9.917969 15.847656 16.734375 27.945312 16.734375 6.632812 0 12.800781-2.03125 17.910156-5.496094 4.378906 12.472656 16.136719 21.496094 30.089844 21.496094 9.609375 0 18.128906-4.335938 24-11.054688 5.871094 6.71875 14.390625 11.054688 24 11.054688s18.128906-4.335938 24-11.054688c5.871094 6.71875 14.390625 11.054688 24 11.054688 16.265625 0 29.574219-12.230469 31.59375-27.960938 97.933594-18.816406 168.40625-103.488281 168.40625-204.039062zm-64-128c0 8.824219-7.175781 16-16 16s-16-7.175781-16-16 7.175781-16 16-16 16 7.175781 16 16zm-360 120c0-8.824219 7.175781-16 16-16s16 7.175781 16 16-7.175781 16-16 16-16-7.175781-16-16zm0 48c0-8.824219 7.175781-16 16-16s16 7.175781 16 16-7.175781 16-16 16-16-7.175781-16-16zm0 48c0-8.824219 7.175781-16 16-16s16 7.175781 16 16-7.175781 16-16 16-16-7.175781-16-16zm16 48c0-8.824219 7.175781-16 16-16s16 7.175781 16 16c0 3.511719-1.222656 6.742188-3.230469 9.457031l-4.769531-4.769531-11.007812 11.007812c-7.382813-1.414062-12.992188-7.902343-12.992188-15.695312zm0 136h-72v-72c0-13.230469 10.769531-24 24-24s24 10.769531 24 24v24h24c13.230469 0 24 10.769531 24 24s-10.769531 24-24 24zm0-64h-8v-8c0-1.457031-.28125-2.839844-.433594-4.257812l32.433594-32.429688 12.6875 12.6875-32.429688 32.433594c-1.417968-.152344-2.800781-.433594-4.257812-.433594zm64-8c-7.792969 0-14.28125-5.609375-15.695312-12.992188l11.007812-11.007812-4.769531-4.769531c2.714843-2.007813 5.945312-3.230469 9.457031-3.230469 8.824219 0 16 7.175781 16 16s-7.175781 16-16 16zm48 16c-8.824219 0-16-7.175781-16-16s7.175781-16 16-16 16 7.175781 16 16-7.175781 16-16 16zm48 0c-8.824219 0-16-7.175781-16-16s7.175781-16 16-16 16 7.175781 16 16-7.175781 16-16 16zm48 0c-8.824219 0-16-7.175781-16-16s7.175781-16 16-16 16 7.175781 16 16-7.175781 16-16 16zm29.65625-27.878906c-4.726562-11.769532-16.207031-20.121094-29.65625-20.121094-9.609375 0-18.128906 4.335938-24 11.054688-5.871094-6.71875-14.390625-11.054688-24-11.054688s-18.128906 4.335938-24 11.054688c-5.871094-6.71875-14.390625-11.054688-24-11.054688-6.632812 0-12.800781 2.03125-17.910156 5.496094-4.378906-12.472656-16.136719-21.496094-30.089844-21.496094-7.847656 0-15.160156 2.847656-20.878906 7.808594l-2.929688-2.929688c4.960938-5.71875 7.808594-13.03125 7.808594-20.878906 0-13.953125-9.023438-25.710938-21.496094-30.089844 3.464844-5.109375 5.496094-11.277344 5.496094-17.910156 0-9.609375-4.335938-18.128906-11.054688-24 6.71875-5.871094 11.054688-14.390625 11.054688-24s-4.335938-18.128906-11.054688-24c6.71875-5.871094 11.054688-14.390625 11.054688-24 0-13.449219-8.351562-24.929688-20.121094-29.65625 17.792969-89.824219 95.679688-154.34375 188.121094-154.34375 40.449219 0 79.726562 12.816406 112.28125 36.296875-7.601562 4.328125-13.265625 11.589844-15.335938 20.320313-19.441406 2.917968-30.050781 17.558593-39.449218 30.734374-9.457032 13.222657-17.617188 24.648438-33.496094 24.648438v16c24.121094 0 36.015625-16.65625 46.503906-31.351562 8.03125-11.242188 15.175782-21.105469 26.878906-23.839844 3.042969 10.527344 11.273438 18.757812 21.800782 21.800781-2.726563 11.703125-12.589844 18.847656-23.839844 26.878906-14.6875 10.496094-31.34375 22.390625-31.34375 46.511719h16c0-15.878906 11.425781-24.039062 24.648438-33.496094 13.167968-9.398437 27.816406-20.007812 30.734374-39.449218 8.730469-2.078126 15.992188-7.734376 20.320313-15.335938 23.480469 32.554688 36.296875 71.832031 36.296875 112.28125 0 92.441406-64.519531 170.328125-154.34375 188.121094zm0 0"/></svg>