<svg height="496pt" viewBox="-32 0 496 496" width="496pt" xmlns="http://www.w3.org/2000/svg"><path d="m168 252.734375c-8.832031-8.230469-20.273438-12.734375-32.398438-12.734375-26.25 0-47.601562 21.351562-47.601562 47.601562 0 12.710938 4.953125 24.664063 13.945312 33.65625l66.054688 66.054688 66.0625-66.054688c8.984375-8.992187 13.9375-20.945312 13.9375-33.65625 0-26.25-21.351562-47.601562-47.601562-47.601562-12.125 0-23.566407 4.503906-32.398438 12.734375zm64 34.867187c0 8.4375-3.289062 16.375-9.257812 22.34375l-54.742188 54.742188-54.742188-54.742188c-5.96875-5.96875-9.257812-13.90625-9.257812-22.34375 0-17.425781 14.175781-31.601562 31.601562-31.601562 8.4375 0 16.375 3.289062 22.34375 9.257812l10.054688 10.054688 10.0625-10.054688c5.960938-5.96875 13.898438-9.257812 22.335938-9.257812 17.425781 0 31.601562 14.175781 31.601562 31.601562zm0 0"/><path d="m48 317.382812v-5.382812c0-7.566406.734375-15.160156 2.183594-22.550781l-15.703125-3.082031c-1.648438 8.410156-2.480469 17.03125-2.480469 25.632812v5.382812c0 31.976563 11.601562 62.847657 32.664062 86.921876l.929688 1.0625 12.039062-10.527344-.929687-1.0625c-18.511719-21.167969-28.703125-48.289063-28.703125-76.394532zm0 0"/><path d="m57.097656 266.832031-14.753906-6.199219c-2.398438 5.710938-4.414062 11.625-5.984375 17.589844l15.480469 4.066406c1.367187-5.242187 3.144531-10.449218 5.257812-15.457031zm0 0"/><path d="m69.542969 244.550781-13.023438-9.292969c-3.894531 5.460938-7.40625 11.261719-10.429687 17.253907l14.285156 7.199219c2.65625-5.253907 5.738281-10.359376 9.167969-15.160157zm0 0"/><path d="m304 317.382812v-5.382812h-16v5.382812c0 25.03125-8.304688 49.832032-23.367188 69.824219l12.773438 9.625c17.144531-22.742187 26.59375-50.96875 26.59375-79.449219zm0 0"/><path d="m244.472656 410.734375 14.015625-16.023437 12.035157 10.53125-14.015626 16.023437zm0 0"/><path d="m379.753906 32c-3.53125 0-7 .921875-10.050781 2.664062l-21.671875 12.390626 7.945312 13.890624 21.671876-12.394531c2.617187-1.480469 6.351562.617188 6.351562 3.695313v3.753906h16v-3.753906c0-11.15625-9.089844-20.246094-20.246094-20.246094zm0 0"/><path d="m379.753906 0c-9.082031 0-18.042968 2.382812-25.921875 6.878906l-43.953125 25.121094h-101.878906v-8c0-13.230469-10.769531-24-24-24h-32c-13.230469 0-24 10.769531-24 24v72h16v16h-8c-22.054688 0-40 17.945312-40 40v10.886719c-58.464844 26.625-96 84.511719-96 149.113281v5.382812c0 39.738282 14.40625 78.097657 40.574219 107.992188l6.929687 7.914062c-13.503906 3.75-23.503906 16.023438-23.503906 30.710938 0 17.648438 14.351562 32 32 32h224c17.648438 0 32-14.351562 32-32 0-14.6875-10-26.960938-23.503906-30.710938l6.929687-7.914062c26.167969-29.894531 40.574219-68.253906 40.574219-107.992188v-5.382812c0-64.601562-37.535156-122.488281-96-149.113281v-10.886719c0-22.054688-17.945312-40-40-40h-8v-16h16v-16h101.878906l43.953125 25.121094c7.878907 4.496094 16.839844 6.878906 25.921875 6.878906 28.804688 0 52.246094-23.441406 52.246094-52.246094v-7.507812c0-28.804688-23.441406-52.246094-52.246094-52.246094zm-83.753906 464c0 8.824219-7.175781 16-16 16h-224c-8.824219 0-16-7.175781-16-16s7.175781-16 16-16h224c8.824219 0 16 7.175781 16 16zm24-152v5.382812c0 35.855469-13 70.472657-36.617188 97.464844l-15.007812 17.152344h-200.75l-15.007812-17.160156c-23.617188-26.992188-36.617188-61.601563-36.617188-97.457032v-5.382812c0-59.414062 35.128906-112.625 89.625-136h124.757812c54.488282 23.375 89.617188 76.585938 89.617188 136zm-96-160v8h-112v-8c0-13.230469 10.769531-24 24-24h64c13.230469 0 24 10.769531 24 24zm-48-40h-16v-16h16zm16-32h-48v-56c0-4.414062 3.59375-8 8-8h32c4.40625 0 8 3.585938 8 8zm16-32h96v16h-96zm208 11.753906c0 19.988282-16.265625 36.246094-36.246094 36.246094-6.296875 0-12.515625-1.648438-17.984375-4.777344l-41.769531-23.863281v-22.71875l41.769531-23.863281c5.460938-3.128906 11.6875-4.777344 17.984375-4.777344 19.980469 0 36.246094 16.257812 36.246094 36.246094zm0 0"/></svg>