<svg height="496pt" viewBox="-32 0 496 496" width="496pt" xmlns="http://www.w3.org/2000/svg"><path d="m344 168c0-19.550781-14.105469-35.871094-32.671875-39.328125-.566406-3.054687-1.601563-5.929687-2.816406-8.695313 2.289062-5.113281 3.488281-10.457031 3.488281-15.976562 0-19.550781-14.105469-35.871094-32.671875-39.328125-3.457031-18.566406-19.777344-32.671875-39.328125-32.671875-22.054688 0-40 17.945312-40 40v72h32v64h72c22.054688 0 40-17.945312 40-40zm-111.191406-40h-16.808594v-56c0-13.230469 10.769531-24 24-24s24 10.769531 24 24v8h8c13.230469 0 24 10.769531 24 24 0 .054688-.023438.105469-.023438.160156-6.695312-5.054687-14.953124-8.160156-23.976562-8.160156-19.3125 0-35.472656 13.769531-39.191406 32zm71.191406 64h-56v-56c0-13.230469 10.769531-24 24-24s24 10.769531 24 24v8h8c13.230469 0 24 10.769531 24 24s-10.769531 24-24 24zm0 0"/><path d="m418.464844 327.152344-66.6875-66.679688c-7.21875-7.226562-7.671875-18.960937-1.023438-26.710937h.007813c21.429687-25.027344 33.238281-56.945313 33.238281-89.890625v-5.757813c0-76.152343-61.953125-138.113281-138.113281-138.113281-36.886719 0-71.574219 14.367188-97.65625 40.457031l-134.695313 134.6875c-8.726562 8.726563-13.535156 20.335938-13.535156 32.6875 0 12.425781 5.113281 24.511719 14.03125 33.167969l249.273438 241.945312c8.671874 8.414063 20.109374 13.054688 32.863281 13.054688 12.34375 0 23.953125-4.808594 32.6875-13.535156l89.609375-89.609375c8.726562-8.726563 13.535156-20.335938 13.535156-33.023438 0-12.351562-4.808594-23.960937-13.535156-32.679687zm-103.152344 40.847656 24.6875-24.6875 12.6875 12.6875-24.6875 24.6875zm-22.625 0 12 12-61.3125 61.3125-37.238281-36.144531 61.855469-61.855469 12 12 36-36 12.6875 12.6875zm-12.6875-35.3125-12.6875-12.6875 24.6875-24.6875 12.6875 12.6875zm-35.3125-12.6875 12 12-62.03125 62.023438-37.230469-36.136719 62.574219-62.574219 12 12 36-36 12.6875 12.6875zm-12.6875-35.3125-12.6875-12.6875 24.6875-24.6875 12.6875 12.6875zm-35.3125-12.6875 12 12-62.742188 62.742188-37.234374-36.132813 63.289062-63.289063 12 12 36-36 12.6875 12.6875zm-12.6875-35.3125-12.6875-12.6875 24.6875-24.6875 12.6875 12.6875zm-35.3125-12.6875 12 12-63.457031 63.457031-37.230469-36.136719 64.007812-64.007812 12 12 36-36 12.6875 12.6875zm-12.6875-35.3125-12.6875-12.6875 24.6875-24.6875 12.6875 12.6875zm-35.3125-12.6875 12 12-64.175781 64.175781-20.992188-20.375 100.480469-100.488281 8.6875 8.6875zm154.175781 276.457031 61.136719-61.144531 12 12 36-36 8.6875 8.6875-96.695312 96.703125c-.503907-.429687-1.0625-.765625-1.542969-1.230469zm152.289063-70.921875-89.617188 89.609375c-5.703125 5.710938-13.304687 8.855469-22.03125 8.855469-1.296875 0-2.550781-.207031-3.816406-.367188l103.625-103.632812-267.3125-267.3125-109.910156 109.914062c-1.3125-3.425781-2.089844-7.058593-2.089844-10.769531 0-8.070312 3.144531-15.664062 8.847656-21.367187l134.695313-134.695313c23.066406-23.066406 53.730469-35.769531 86.34375-35.769531 67.328125 0 122.113281 54.777344 122.113281 122.113281v5.757813c0 29.128906-10.441406 57.34375-29.390625 79.464844-12.058594 14.054687-11.242187 35.335937 1.847656 48.441406l66.6875 66.6875c5.710938 5.703125 8.855469 13.296875 8.855469 21.703125 0 8.070312-3.144531 15.664062-8.847656 21.367187zm0 0"/></svg>