<svg height="497pt" viewBox="0 0 497 497.056" width="497pt" xmlns="http://www.w3.org/2000/svg"><path d="m411.277344 413.230469c-4.128906 4.121093-11.625 3.242187-14.679688-1.695313l-34.167968-55.183594-13.601563 8.425782 34.160156 55.183594c4.671875 7.542968 12.75 12.039062 21.617188 12.039062 6.78125 0 13.167969-2.640625 17.972656-7.449219l18.832031-18.832031-11.308594-11.3125zm0 0"/><path d="m328.730469 332.332031 13.601562-8.425781 9.503907 15.351562-13.601563 8.421876zm0 0"/><path d="m118.875 50.769531c4.136719-4.105469 11.632812-3.242187 14.679688 1.695313l14.640624 23.640625 13.601563-8.425781-14.632813-23.640626c-4.671874-7.542968-12.753906-12.039062-21.617187-12.039062-6.78125 0-13.167969 2.640625-17.976563 7.449219l-27.664062 27.664062 11.3125 11.3125zm0 0"/><path d="m158.398438 92.605469 13.605468-8.421875 9.589844 15.492187-13.601562 8.425781zm0 0"/><path d="m497.074219 316.960938c0-20.648438-12.039063-39.761719-30.671875-48.679688l-57.367188-27.433594c0-.289062.039063-.558594.039063-.847656 0-39.703125-32.300781-72-72-72h-8v-8c0-39.703125-32.300781-72-72-72-.285157 0-.558594.039062-.847657.039062l-27.4375-57.367187c-8.914062-18.632813-28.023437-30.671875-48.679687-30.671875-9.328125 0-18.351563 2.585938-26.519531 7.265625-8.402344-4.707031-17.992188-7.265625-28.042969-7.265625-15.335937 0-29.757813 5.976562-40.597656 16.824219l-35.050781 35.039062c-10.847657 10.855469-16.824219 25.28125-16.824219 40.609375 0 10.046875 2.5625 19.640625 7.265625 28.046875-4.679688 8.152344-7.265625 17.183594-7.265625 26.519531 0 20.648438 12.042969 39.761719 30.671875 48.679688l121.328125 58.015625v3.808594l-185.0468752 40.242187 19.0468752 123.832032 166-110.664063v1.046875h1.058593l-110.671874 166 123.832031 19.054688 40.230469-185.054688h3.816406l58.023437 121.320312c8.914063 18.632813 28.023438 30.679688 48.679688 30.679688 9.328125 0 18.359375-2.585938 26.519531-7.265625 8.402344 4.707031 18 7.265625 28.042969 7.265625 15.335937 0 29.757812-5.976562 40.597656-16.824219l35.050781-35.046875c10.847656-10.847656 16.820313-25.273437 16.820313-40.601562 0-10.046875-2.558594-19.640625-7.261719-28.046875 4.679688-8.152344 7.261719-17.183594 7.261719-26.519531zm-37.582031-34.242188c13.113281 6.273438 21.582031 19.714844 21.582031 34.242188 0 4.335937-.839844 8.582031-2.316407 12.648437-2.730468-2.53125-5.632812-4.898437-8.882812-6.90625l-71.886719-44.503906c3.96875-6.304688 6.96875-13.253907 8.832031-20.671875zm-146.417969-122.71875v24h24c30.882812 0 56 25.128906 56 56s-25.117188 56-56 56h-136v-136c0-30.871094 25.121093-56 56-56 30.882812 0 56 25.128906 56 56zm-98.71875-122.425781 25.191406 52.671875c-7.414063 1.867187-14.367187 4.867187-20.671875 8.832031l-44.503906-71.886719c-2.007813-3.246094-4.375-6.152344-6.902344-8.878906 4.0625-1.472656 8.3125-2.3125 12.640625-2.3125 14.535156 0 27.976563 8.472656 34.246094 21.574219zm-153.144531 25.601562 35.050781-35.046875c7.8125-7.816406 18.214843-12.128906 29.285156-12.128906 14.449219 0 27.617187 7.335938 35.226563 19.617188l45.46875 73.445312c-13.070313 13.050781-21.167969 31.066406-21.167969 50.9375v39.726562l-116.382813-72.039062c-12.28125-7.597656-19.617187-20.765625-19.617187-35.214844 0-11.066406 4.3125-21.464844 12.136719-29.296875zm9.449218 118.105469c-13.113281-6.273438-21.585937-19.714844-21.585937-34.242188 0-4.335937.839843-8.582031 2.320312-12.648437 2.730469 2.53125 5.632813 4.898437 8.882813 6.90625l124.796875 77.253906v17.449219zm-39.585937 213.101562-12.949219-84.167968 166.949219-36.285156v17.789062zm155.785156 84.5625-84.167969-12.945312 102.664063-154h17.792969zm128.9375-52.53125-54.722656-114.414062h17.449219l77.257812 124.808594c2.007812 3.246094 4.375 6.152344 6.902344 8.878906-4.0625 1.472656-8.3125 2.3125-12.640625 2.3125-14.535157 0-27.976563-8.472656-34.246094-21.585938zm153.144531-25.589843-35.050781 35.046875c-7.816406 7.816406-18.214844 12.128906-29.285156 12.128906-14.449219 0-27.617188-7.335938-35.226563-19.617188l-72.039062-116.382812h39.734375c19.875 0 37.890625-8.097656 50.929687-21.160156l73.457032 45.472656c12.277343 7.597656 19.613281 20.765625 19.613281 35.214844 0 11.066406-4.308594 21.464844-12.132813 29.296875zm0 0"/><path d="m257.074219 120c-22.054688 0-40 17.945312-40 40v56h16v-56c0-13.230469 10.769531-24 24-24zm0 0"/><path d="m217.074219 232h16v15.992188h-16zm0 0"/><path d="m257.074219 264h16v16h-16zm0 0"/><path d="m321.074219 264h16v16h-16zm0 0"/><path d="m289.074219 264h16v16h-16zm0 0"/></svg>