<svg height="496pt" viewBox="0 0 496 496" width="496pt" xmlns="http://www.w3.org/2000/svg"><path d="m356.558594 74.617188 14.761718-12.304688c8.054688-6.710938 12.679688-16.585938 12.679688-27.074219 0-19.429687-15.816406-35.238281-35.238281-35.238281h-1.480469c-6.832031 0-13.570312 2.046875-19.28125 5.761719-5.695312-3.714844-12.441406-5.761719-19.28125-5.761719h-1.480469c-19.421875 0-35.238281 15.808594-35.238281 35.238281 0 10.488281 4.625 20.355469 12.679688 27.074219l14.761718 12.304688c-29.25 5.039062-55.984375 17.503906-78 35.613281-5.195312-13-17.855468-22.230469-32.679687-22.230469h-1.480469c-6.832031 0-13.570312 2.046875-19.28125 5.761719-5.695312-3.714844-12.441406-5.761719-19.28125-5.761719h-1.480469c-19.421875 0-35.238281 15.808594-35.238281 35.238281 0 10.488281 4.625 20.355469 12.679688 27.074219l14.761718 12.304688c-79.050781 13.621093-139.441406 82.503906-139.441406 165.382812 0 92.640625 75.367188 168 168 168 62.289062 0 118.375-33.855469 147.785156-88.617188 4.046875.289063 8.085938.617188 12.214844.617188 92.632812 0 168-75.359375 168-168 0-82.878906-60.390625-151.761719-139.441406-165.382812zm-61.628906-24.59375c-4.410157-3.671876-6.929688-9.054688-6.929688-14.785157 0-10.605469 8.632812-19.238281 19.238281-19.238281h1.480469c5.066406 0 10.015625 2.054688 13.625 5.65625l5.679688 5.632812 5.65625-5.65625c3.585937-3.578124 8.535156-5.632812 13.601562-5.632812h1.480469c10.605469 0 19.238281 8.632812 19.238281 19.238281 0 5.730469-2.519531 11.113281-6.929688 14.785157l-26.75 22.296874c-2.113281-.082031-4.183593-.320312-6.320312-.320312s-4.207031.238281-6.320312.320312zm-160 88c-4.410157-3.671876-6.929688-9.054688-6.929688-14.785157 0-10.605469 8.632812-19.238281 19.238281-19.238281h1.480469c5.066406 0 10.015625 2.054688 13.625 5.65625l5.679688 5.632812 5.65625-5.65625c3.585937-3.578124 8.535156-5.632812 13.601562-5.632812h1.480469c10.261719 0 18.597656 8.105469 19.054687 18.855469-10.886718 11.167969-20.289062 23.800781-27.753906 37.640625-4.078125-.296875-8.125-.496094-12.0625-.496094-2.136719 0-4.207031.238281-6.320312.320312zm131.621093 258.175781c-22.3125 32.152343-59.230469 51.800781-98.550781 51.800781-66.167969 0-120-53.832031-120-120 0-64.511719 51.207031-117.152344 115.105469-119.753906-1.976563 10.296875-3.105469 20.890625-3.105469 31.753906 0 70.9375 44.257812 131.601562 106.550781 156.199219zm-98.550781 83.800781c-83.816406 0-152-68.183594-152-152s68.183594-152 152-152c1.503906 0 3.113281.199219 4.648438.246094-2.121094 5.144531-3.976563 10.417968-5.585938 15.800781-74.558594.511719-135.0625 61.28125-135.0625 135.953125 0 74.992188 61.007812 136 136 136 46.105469 0 89.273438-23.816406 114.222656-62.503906 5.402344 1.535156 10.898438 2.785156 16.496094 3.777344-27.320312 46.359374-76.453125 74.726562-130.71875 74.726562zm160-88c-83.816406 0-152-68.183594-152-152s68.183594-152 152-152 152 68.183594 152 152-68.183594 152-152 152zm0 0"/><path d="m328 104c-74.992188 0-136 61.007812-136 136s61.007812 136 136 136 136-61.007812 136-136-61.007812-136-136-136zm0 256c-66.167969 0-120-53.832031-120-120s53.832031-120 120-120 120 53.832031 120 120-53.832031 120-120 120zm0 0"/><path d="m416 240c0 45.449219-35.433594 83.96875-80.65625 87.695312l1.3125 15.945313c53.464844-4.410156 95.34375-49.9375 95.34375-103.640625zm0 0"/><path d="m302.007812 340.71875c5.65625 1.457031 11.488282 2.441406 17.335938 2.921875l1.3125-15.945313c-4.945312-.40625-9.878906-1.238281-14.664062-2.472656zm0 0"/><path d="m80 328h-16c0 57.34375 46.65625 104 104 104v-16c-48.519531 0-88-39.480469-88-88zm0 0"/><path d="m85 298.664062-15.078125-5.328124c-1.992187 5.617187-3.507813 11.449218-4.488281 17.34375l15.78125 2.640624c.839844-4.984374 2.113281-9.914062 3.785156-14.65625zm0 0"/></svg>