<svg height="499pt" viewBox="0 0 499 499.904" width="499pt" xmlns="http://www.w3.org/2000/svg"><path d="m475.851562 131.367188 24.007813-24.007813-23.878906-23.878906c-.449219-.449219-.9375-.847657-1.402344-1.289063 9.355469-18.457031 7.609375-38.960937-5.140625-51.71875-12.609375-12.609375-33.195312-14.519531-52.105469-4.921875-.496093-.519531-.886719-1.109375-1.398437-1.621093l-23.882813-23.882813-23.902343 23.90625-23.746094-23.953125-63.460938 63.953125c-27.226562 27.460937-31.519531 69.335937-13.089844 101.480469-7.253906 8.414062-11.398437 19.328125-11.398437 30.46875 0 4.128906.605469 8.21875 1.6875 12.167968l-29.984375 30.640626c-14.34375 14.34375-32.242188 23.863281-51.703125 27.753906v-38.5625c0-74.992188-61.007813-136-136-136h-8v56c0 56.671875 35.167969 105.496094 84.78125 125.832031-24.933594 6.714844-47.824219 19.707031-66.503906 38.394531l-42.664063 41.039063c-4.839844 4.65625-7.613281 11.183593-7.613281 17.902343 0 13.691407 11.144531 24.832032 24.925781 24.832032 6.617188 0 13.082032-2.710938 17.738282-7.445313l41.445312-42.28125c3.722656-3.71875 7.738281-7.007812 11.890625-10.054687v27.78125c0 74.992187 61.007813 136 136 136h8v-56c0-57.421875-36.6875-107.695313-88.296875-127.253906 1.398438-.054688 2.792969-.207032 4.199219-.207032 27.25 0 53.296875-7.394531 76.097656-20.9375v4.398438c0 48.523437 39.480469 88 88 88h8v-40c0-37.871094-23.898437-70.695313-58.527344-82.917969l23.160157-22.65625c3.6875.917969 7.460937 1.550781 11.367187 1.550781 11.488281-.03125 21.773437-4.117187 30.167969-11.320312 12.933594 7.449218 27.40625 11.273437 41.925781 11.273437 21.511719-.007812 43.050781-8.191406 59.433594-24.574219l63.878906-63.882812-23.878906-23.878906c-.046875-.054688-.089844-.089844-.128907-.128906zm1.382813-24-13.789063 13.792968c-13.753906-9.289062-29.9375-14.289062-46.898437-14.289062-10.117187 0-19.925781 1.863281-29.144531 5.273437 3.777344-10.496093 5.417968-21.585937 4.921875-32.617187 24.847656-9.457032 53.304687-3.757813 72.34375 15.28125zm-19.109375-65.582032c7.152344 7.160156 8.253906 18.863282 3.527344 30.269532-7.527344-4.78125-15.695313-8.3125-24.199219-10.496094-2.210937-8.214844-5.625-15.957032-10.152344-23.09375 11.632813-4.992188 23.640625-3.847656 30.824219 3.320312zm-53.503906-6.539062c6.808594 6.808594 11.957031 14.914062 15.34375 23.761718-10.050782-.421874-20.199219.960938-29.976563 4.207032-2.289062-9.40625-6.144531-18.488282-11.695312-26.78125l13.75-13.753906zm-112.328125 39.976562 52.101562-52.496094 12.394531 12.496094c26.304688 26.539063 26.304688 69.730469 0 96.28125l-39.839843 40.144532-12.304688 12.304687-12.351562-12.449219c-26.304688-26.542968-26.304688-69.742187 0-96.28125zm-243.839844 72.679688v-39.734375c62.453125 4.136719 112 56.257812 112 119.734375v39.738281c-62.367187-4.152344-112-56.464844-112-119.738281zm176 296v39.738281c-62.457031-4.136719-112-56.257813-112-119.738281v-37.40625c1.351563-.648438 2.6875-1.335938 4.0625-1.921875 60.664063 6.089843 107.9375 58.089843 107.9375 119.328125zm88-96v23.554687c-35.953125-3.992187-64-34.554687-64-71.554687v-15.300782c2.75-2.160156 5.390625-4.472656 8.007813-6.832031 32.640624 7.375 55.992187 36.269531 55.992187 70.132813zm-61.671875-86.566406c-25.210938 25.214843-58.753906 39.113281-94.425781 39.113281-31.398438 0-60.910157 12.222656-83.167969 34.480469l-41.496094 42.328124c-1.65625 1.679688-3.953125 2.644532-6.40625 2.644532-4.875 0-8.832031-3.957032-8.832031-8.832032 0-2.390624.984375-4.710937 2.710937-6.367187l42.777344-41.152344c25.207032-25.214843 58.75-39.109375 94.421875-39.109375 31.402344 0 60.914063-12.226562 83.167969-34.488281l25.984375-26.546875c1.398437 1.921875 2.90625 3.769531 4.59375 5.464844l1.351563 1.351562c1.871093 1.875 3.925781 3.464844 6.039062 4.96875zm53.6875-33.457032c-.015625 0-.03125 0-.046875 0-8.167969 0-15.859375-3.183594-21.648437-8.96875l-1.351563-1.351562c-5.707031-5.703125-8.96875-13.589844-8.96875-21.65625 0-6.007813 1.824219-11.917969 5.109375-16.902344 1.113281 1.265625 2.175781 2.558594 3.378906 3.769531l12.390625 12.496094-.097656.09375 23.882813 23.878906c1.304687 1.304688 2.6875 2.464844 4.046874 3.65625-4.921874 3.226563-10.65625 4.976563-16.695312 4.984375zm120.191406-19.941406c-26.535156 26.527344-69.710937 26.527344-96.230468 0l-12.523438-12.523438 12.953125-13.054687 39.570313-39.566406c12.847656-12.847657 29.933593-19.929688 48.117187-19.929688 18.167969 0 35.265625 7.082031 48.121094 19.929688l12.566406 12.566406zm0 0"/><path d="m319.71875 70.332031 15.886719-16.015625 11.359375 11.265625-15.886719 16.019531zm0 0"/><path d="m310.621094 143.585938c-9.554688-14.339844-7.695313-33.609376 4.40625-45.832032l8.152344-8.210937-11.359376-11.261719-8.160156 8.207031c-17.433594 17.601563-20.105468 45.351563-6.351562 65.976563zm0 0"/><path d="m128.8125 372.542969 15.933594-1.328125c-.191406-2.40625-.292969-4.847656-.292969-7.3125v-7.910156h-16v7.910156c0 2.914062.117187 5.800781.359375 8.640625zm0 0"/><path d="m190.339844 459 6.496094-14.625c-24.375-10.832031-42.910157-32.65625-49.59375-58.398438l-15.484376 4.015626c7.894532 30.414062 29.796876 56.214843 58.582032 69.007812zm0 0"/></svg>