<svg height="499pt" viewBox="0 0 499.37647 499" width="499pt" xmlns="http://www.w3.org/2000/svg"><path d="m445.71875 261.851562 53.65625-53.664062-195.703125-195.710938c-7.917969-7.921874-18.457031-12.289062-29.664063-12.289062-11.617187 0-22.128906 4.753906-29.734374 12.410156l-.023438-.027344-230.441406 226.753907c-8.71875 8.574219-13.7539065 20.511719-13.808594 32.742187-.0546875 12.25 4.878906 24.242188 13.542969 32.90625l194.53125 194.519532 232-231.992188 1.878906-1.878906zm-171.710938-245.65625c6.9375 0 13.449219 2.695313 18.34375 7.601563l184.402344 184.398437-36.6875 36.6875-12.722656-12.71875 23.96875-23.96875-173.65625-173.65625-11.3125 11.3125 162.34375 162.34375-12.65625 12.648438-160.359375-160.367188c-4.902344-4.90625-7.597656-11.417968-7.597656-18.34375-.007813-14.304687 11.628906-25.9375 25.933593-25.9375zm-248.984374 234.535157 207.480468-204.140625c1.007813 9.503906 5 18.351562 11.847656 25.207031l.402344.398437-220.609375 220.601563c-5.25-5.648437-8.183593-12.90625-8.144531-20.648437.03125-8 3.328125-15.808594 9.023438-21.417969zm183.042968 226.144531-172.691406-172.6875 220.691406-220.679688 172.6875 172.6875zm0 0"/><path d="m236.71875 120.226562-164.6875 164.691407v38.621093l116.6875 116.6875h38.625l164.6875-164.6875v-38.621093l-116.6875-116.691407zm139.3125 148.691407-155.3125 155.308593h-25.375l-107.3125-107.308593v-25.378907l155.3125-155.3125h25.375l107.3125 107.3125zm0 0"/><path d="m252.03125 200.226562c-.214844 0-.40625.058594-.621094.066407l-27.378906-27.375-35.3125 35.308593 35.3125 35.3125v1.378907l-80 80v35.308593h35.3125l80-80h1.375l43.3125 43.3125 35.3125-35.3125-35.375-35.375c.007812-.214843.0625-.40625.0625-.625 0-4.804687-1.292969-9.285156-3.4375-13.246093l22.75-22.753907-35.3125-35.308593-22.75 22.75c-3.960938-2.144531-8.441406-3.441407-13.25-3.441407zm12 28v12h12c6.617188 0 12 5.386719 12 12 0 6.617188-5.382812 12-12 12h-36v-36c0-6.613281 5.386719-12 12-12 6.617188 0 12 5.386719 12 12zm-40-32.6875 10.777344 10.777344c-4.871094 3.839844-8.457032 9.199219-9.945313 15.433594l-13.519531-13.523438zm-51.3125 148.6875h-12.6875v-12.6875l64-64v12.6875h12.6875zm144-56-12.6875 12.691407-21.519531-21.523438c6.226562-1.484375 11.585937-5.070312 15.433593-9.941406zm-16-72-11.375 11.378907c-2.917969-1.585938-6.144531-2.664063-9.558594-3.128907-.464844-3.425781-1.542968-6.648437-3.128906-9.558593l11.375-11.378907zm0 0"/><path d="m202.371094 402.570312 16-16 11.3125 11.3125-15.996094 16zm0 0"/><path d="m226.371094 378.574219 47.996094-48 11.3125 11.3125-47.996094 48zm0 0"/></svg>