<svg height="496pt" viewBox="0 0 496 496" width="496pt" xmlns="http://www.w3.org/2000/svg"><path d="m271.855469 330.625c.023437-.882812.144531-1.738281.144531-2.625 0-48.519531-39.480469-88-88-88h-8v-8c0-48.519531-39.480469-88-88-88s-88 39.480469-88 88v184h140.808594c.382812.414062.734375.855469 1.144531 1.257812l74.046875 74.054688 74.054688-74.054688c8.992187-8.992187 13.945312-20.945312 13.945312-33.65625v-8c0-20.832031-13.472656-38.539062-32.144531-44.976562zm-255.855469 69.375v-168c0-39.695312 32.296875-72 72-72s72 32.304688 72 72v24h24c39.703125 0 72 32.296875 72 72v.015625c-12.558594.105469-24.359375 5.03125-33.257812 13.929687l-6.742188 6.742188-6.742188-6.742188c-8.992187-8.992187-20.945312-13.945312-33.65625-13.945312-26.25 0-47.601562 21.351562-47.601562 47.601562v8c0 5.6875 1.046875 11.207032 2.953125 16.398438zm272-16.398438c0 8.4375-3.289062 16.375-9.257812 22.34375l-62.742188 62.742188-62.742188-62.742188c-5.96875-5.96875-9.257812-13.90625-9.257812-22.34375v-8c0-17.425781 14.175781-31.601562 31.601562-31.601562 8.4375 0 16.375 3.289062 22.34375 9.257812l18.054688 18.054688 18.054688-18.054688c5.96875-5.96875 13.90625-9.257812 22.34375-9.257812 17.425781 0 31.601562 14.175781 31.601562 31.601562zm0 0"/><path d="m88 176c-30.871094 0-56 25.121094-56 56v32h16v-32c0-22.054688 17.945312-40 40-40 11.335938 0 22.191406 4.855469 29.800781 13.335938l11.902344-10.679688c-10.625-11.855469-25.832031-18.65625-41.703125-18.65625zm0 0"/><path d="m456 0h-256c-22.054688 0-40 17.945312-40 40v112c0 22.054688 17.945312 40 40 40h43.054688l-18.839844 37.695312 113.082031-37.695312h118.703125c22.054688 0 40-17.945312 40-40v-112c0-22.054688-17.945312-40-40-40zm24 152c0 13.230469-10.769531 24-24 24h-121.296875l-78.910156 26.304688 13.152343-26.304688h-68.945312c-13.230469 0-24-10.769531-24-24v-112c0-13.230469 10.769531-24 24-24h256c13.230469 0 24 10.769531 24 24zm0 0"/><path d="m208 32h-16v128h48v-16h-32zm0 0"/><path d="m288 32c-17.648438 0-32 14.351562-32 32v64c0 17.648438 14.351562 32 32 32s32-14.351562 32-32v-64c0-17.648438-14.351562-32-32-32zm16 96c0 8.824219-7.175781 16-16 16s-16-7.175781-16-16v-64c0-8.824219 7.175781-16 16-16s16 7.175781 16 16zm0 0"/><path d="m416 160h48v-16h-32v-40h32v-16h-32v-40h32v-16h-48zm0 0"/><path d="m368.992188 144h-1.984376l-15.078124-113.054688-15.859376 2.109376 16.921876 126.945312h30.015624l16.921876-126.945312-15.859376-2.109376zm0 0"/><path d="m416 336c-11.886719 0-23.351562 2.574219-34.113281 7.679688l-60.679688-10.304688 24.226563 45.089844c-6.1875 11.574218-9.433594 24.464844-9.433594 37.535156 0 44.113281 35.886719 80 80 80s80-35.886719 80-80-35.886719-80-80-80zm0 144c-35.289062 0-64-28.710938-64-64 0-11.679688 3.246094-23.167969 9.40625-33.246094l2.394531-3.914062-13.007812-24.207032 33.605469 5.710938 2.378906-1.222656c9.167968-4.730469 19-7.121094 29.222656-7.121094 35.289062 0 64 28.710938 64 64s-28.710938 64-64 64zm0 0"/><path d="m368 408h96v16h-96zm0 0"/><path d="m384 376h64v16h-64zm0 0"/><path d="m384 440h64v16h-64zm0 0"/><path d="m32 280h16v16h-16zm0 0"/><path d="m32 312h16v16h-16zm0 0"/></svg>