<svg height="496pt" viewBox="0 0 496 496.816" width="496pt" xmlns="http://www.w3.org/2000/svg"><path d="m353.136719 126.097656 10.332031-12.21875 18.917969 16-10.335938 12.21875zm0 0"/><path d="m326.273438 82.40625c-3.722657-3.160156-5.867188-7.765625-5.867188-12.636719v-5.203125c0-8.949218 7.273438-16.382812 16.21875-16.558594l-.328125-16c-17.585937.359376-31.890625 14.96875-31.890625 32.558594v5.195313c0 9.589843 4.203125 18.652343 11.53125 24.855469l28.0625 23.75 10.34375-12.214844zm0 0"/><path d="m431.839844 0c-17.238282 0-33.464844 6.71875-45.65625 18.910156l-1.777344 1.777344-1.773438-1.777344c-12.191406-12.191406-28.410156-18.910156-45.65625-18.910156-35.601562 0-64.570312 28.96875-64.570312 64.566406v5.195313c0 4.542969.503906 9.023437 1.433594 13.390625l-47.894532-19.152344h-99.074218l-81.199219 32.480469c-27.496094 11-45.265625 37.230469-45.265625 66.847656v220.671875h48v76.945312l71.746094 35.863282 56.253906-24.105469 56.257812 24.113281 71.742188-35.871094v-76.945312h48v-216.601562l32 27.082031 89.136719-75.425781c14.527343-12.292969 22.863281-30.261719 22.863281-49.285157v-5.203125c0-35.597656-28.964844-64.566406-64.566406-64.566406zm-162.617188 98.542969-46.078125 51.839843 15.75 39.378907-51.429687 45.710937 35.335937-155.472656h.070313zm-92.816406 113.34375-29.972656-131.886719h59.949218zm-46.460938-131.886719h.070313l35.335937 155.472656-51.429687-45.710937 15.75-39.378907-46.078125-51.839843zm-106.761718 94.777344c16.738281 39.0625 25.222656 80.414062 25.222656 122.902344v38.320312h-32v-172.671875c0-1.257813.203125-2.472656.28125-3.710937zm-6.777344 193.222656v-16h32v16zm48 83.054688v-153.375c0-44.664063-8.917969-88.144532-26.519531-129.199219l-14.054688-32.808594c6.121094-10.769531 15.679688-19.496094 27.785157-24.335937l16.191406-6.480469 43.335937 48.761719-16.25 40.628906 73.511719 65.347656v199.132812l-47.742188 20.464844zm224 0-56.253906 28.136718-47.746094-20.464844v-199.132812l73.515625-65.347656-16.25-40.628906 42.121094-47.394532c3.230469 4.707032 7.023437 9.058594 11.480469 12.832032l29.964843 25.359374-10.308593 24.066407c-17.601563 41.054687-26.523438 84.535156-26.523438 129.199219zm48-287.726563v172.671875h-32v-38.320312c0-42.488282 8.488281-83.832032 25.226562-122.902344l6.550782-15.289063c.089844 1.28125.222656 2.550781.222656 3.839844zm-32 204.671875v-16h32v16zm176-298.230469c0 14.308594-6.261719 27.824219-17.191406 37.070313l-78.808594 66.679687-78.804688-66.6875c-10.929687-9.246093-17.195312-22.753906-17.195312-37.0625v-5.203125c0-26.773437 21.792969-48.566406 48.570312-48.566406 12.96875 0 25.167969 5.054688 34.34375 14.222656l13.085938 13.089844 13.089844-13.089844c9.167968-9.167968 21.375-14.222656 34.34375-14.222656 26.777344 0 48.566406 21.792969 48.566406 48.566406zm0 0"/><path d="m80.40625 408h16v16h-16zm0 0"/><path d="m80.40625 376h16v16h-16zm0 0"/><path d="m64.6875 194.832031c10.433594 33.167969 15.71875 67.769531 15.71875 102.847657v62.320312h16v-62.320312c0-36.703126-5.535156-72.917969-16.453125-107.648438zm0 0"/><path d="m256.40625 416h16v16h-16zm0 0"/><path d="m256.40625 384h16v16h-16zm0 0"/><path d="m256.40625 352h16v16h-16zm0 0"/><path d="m216.40625 408c0 4.417969-3.578125 8-8 8-4.417969 0-8-3.582031-8-8s3.582031-8 8-8c4.421875 0 8 3.582031 8 8zm0 0"/><path d="m216.40625 376c0 4.417969-3.578125 8-8 8-4.417969 0-8-3.582031-8-8s3.582031-8 8-8c4.421875 0 8 3.582031 8 8zm0 0"/><path d="m216.40625 344c0 4.417969-3.578125 8-8 8-4.417969 0-8-3.582031-8-8s3.582031-8 8-8c4.421875 0 8 3.582031 8 8zm0 0"/><path d="m216.40625 312c0 4.417969-3.578125 8-8 8-4.417969 0-8-3.582031-8-8s3.582031-8 8-8c4.421875 0 8 3.582031 8 8zm0 0"/><path d="m216.40625 280c0 4.417969-3.578125 8-8 8-4.417969 0-8-3.582031-8-8s3.582031-8 8-8c4.421875 0 8 3.582031 8 8zm0 0"/></svg>