<svg height="496pt" viewBox="-112 0 496 496" width="496pt" xmlns="http://www.w3.org/2000/svg"><path d="m58.847656 225.503906 9.039063-5.023437-7.773438-13.984375-9.042969 5.023437c-3.335937 1.855469-6.359374 4.207031-8.972656 6.992188l11.644532 10.96875c1.488281-1.578125 3.210937-2.921875 5.105468-3.976563zm0 0"/><path d="m120 191.535156v-47.535156h-16v38.121094l-35.886719 19.933594 7.773438 13.984374zm0 0"/><path d="m236.464844 183.550781-36.464844-20.253906v-35.296875c8.824219 0 16-7.175781 16-16v-32c0-8.824219-7.175781-16-16-16v-64h-128v64c-8.824219 0-16 7.175781-16 16v32c0 8.824219 7.175781 16 16 16v35.296875l-36.464844 20.253906c-21.917968 12.175781-35.535156 35.3125-35.535156 60.394531 0 3.039063.199219 6.109376.609375 9.125l27.757813 208.210938c2.640624 19.796875 19.679687 34.71875 39.648437 34.71875h135.96875c19.96875 0 37.007813-14.921875 39.648437-34.71875l27.757813-208.210938c.410156-3.015624.609375-6.085937.609375-9.125 0-25.082031-13.617188-48.21875-35.535156-60.394531zm-148.464844-167.550781h96v48h-96zm-16.007812 64h128.007812v32h-128zm-28.679688 117.535156 44.6875-24.832031v-44.703125h96v44.703125l44.695312 24.832031c15.679688 8.710938 25.710938 24.746094 27.039063 42.464844h-239.46875c1.328125-17.710938 11.359375-33.753906 27.046875-42.464844zm160.671875 282.464844h-135.96875c-11.976563 0-22.199219-8.953125-23.792969-20.832031l-1.488281-11.167969h186.53125l-1.488281 11.167969c-1.59375 11.878906-11.816406 20.832031-23.792969 20.832031zm27.414063-48h-190.796876l-23.464843-176h237.726562zm0 0"/><path d="m168.398438 272c-12.132813 0-23.574219 4.503906-32.398438 12.734375-8.832031-8.230469-20.273438-12.734375-32.398438-12.734375-26.25 0-47.601562 21.351562-47.601562 47.601562 0 12.710938 4.953125 24.664063 13.945312 33.65625l66.054688 66.054688 66.0625-66.054688c8.984375-8.992187 13.9375-20.945312 13.9375-33.65625 0-26.25-21.351562-47.601562-47.601562-47.601562zm22.34375 69.945312-54.742188 54.742188-54.742188-54.742188c-5.96875-5.96875-9.257812-13.90625-9.257812-22.34375 0-17.425781 14.175781-31.601562 31.601562-31.601562 8.4375 0 16.375 3.289062 22.34375 9.257812l10.054688 10.054688 10.0625-10.054688c5.960938-5.96875 13.898438-9.257812 22.335938-9.257812 17.425781 0 31.601562 14.175781 31.601562 31.601562 0 8.4375-3.289062 16.375-9.257812 22.34375zm0 0"/></svg>