<svg height="499.312pt" viewBox="0 0 499.312 499.312" width="499.312pt" xmlns="http://www.w3.org/2000/svg"><path d="m211.3125 256h16v16h-16zm0 0"/><path d="m243.3125 280h16v16h-16zm0 0"/><path d="m307.3125 147.3125 66.0625-66.054688c8.984375-8.992187 13.9375-20.945312 13.9375-33.65625 0-26.25-21.351562-47.601562-47.601562-47.601562-12.125 0-23.566407 4.503906-32.398438 12.734375-8.832031-8.230469-20.273438-12.734375-32.402344-12.734375-26.246094 0-47.597656 21.351562-47.597656 47.601562 0 12.710938 4.953125 24.664063 13.945312 33.65625zm-32.402344-131.3125c8.441406 0 16.378906 3.289062 22.347656 9.257812l10.054688 10.054688 10.0625-10.054688c5.960938-5.96875 13.898438-9.257812 22.335938-9.257812 17.425781 0 31.601562 14.175781 31.601562 31.601562 0 8.4375-3.289062 16.375-9.257812 22.34375l-54.742188 54.742188-54.746094-54.742188c-5.964844-5.96875-9.253906-13.90625-9.253906-22.34375 0-17.425781 14.175781-31.601562 31.597656-31.601562zm0 0"/><path d="m371.3125 155.238281c0 10.488281 4.625 20.355469 12.679688 27.082031l43.320312 36.09375 43.328125-36.101562c8.046875-6.71875 12.671875-16.585938 12.671875-27.074219 0-19.421875-15.808594-35.238281-35.242188-35.238281h-1.46875c-6.847656 0-13.410156 1.9375-19.226562 5.777344-5.695312-3.761719-12.367188-5.777344-19.351562-5.777344h-1.472657c-19.429687 0-35.238281 15.816406-35.238281 35.238281zm35.238281-19.238281h1.472657c5.144531 0 9.976562 2 13.121093 5.105469l5.648438 6.726562 6.191406-6.191406c3.640625-3.640625 8.472656-5.640625 13.617187-5.640625h1.46875c10.609376 0 19.242188 8.632812 19.242188 19.238281 0 5.730469-2.519531 11.121094-6.921875 14.785157l-33.078125 27.5625-33.074219-27.554688c-4.40625-3.671875-6.925781-9.0625-6.925781-14.792969 0-10.605469 8.632812-19.238281 19.238281-19.238281zm0 0"/><path d="m475.3125 448h-64c-4.410156 0-8-3.585938-8-8v-24h-16v24c0 13.230469 10.765625 24 24 24h64c4.40625 0 8 3.585938 8 8s-3.59375 8-8 8h-264c-4.410156 0-8-3.585938-8-8s3.589844-8 8-8h56c13.230469 0 24-10.769531 24-24s-10.769531-24-24-24h-40c-4.410156 0-8-3.585938-8-8s3.589844-8 8-8h80c0 13.230469 10.765625 24 24 24 13.230469 0 24-10.769531 24-24v-48c0-4.414062 3.589844-8 8-8 4.40625 0 8 3.585938 8 8v24c0 13.230469 10.765625 24 24 24 13.230469 0 24-10.769531 24-24v-91.3125l-213.503906-213.511719-34 221.015625-96.496094 96.496094-20.679688-20.6875c-10.3125-10.3125-28.328124-10.3125-38.632812 0l-16 16 115.3125 115.3125 16-16c5.160156-5.167969 8-12.023438 8-19.3125s-2.839844-14.152344-8-19.3125l-20.6875-20.6875 96.488281-96.488281 100.199219-15.414063v71.902344h-80c-13.234375 0-24 10.769531-24 24s10.765625 24 24 24h40c4.40625 0 8 3.585938 8 8s-3.59375 8-8 8h-56c-13.234375 0-24 10.769531-24 24s10.765625 24 24 24h264c13.230469 0 24-10.769531 24-24s-10.769531-24-24-24zm-287.480469-154.792969 9.273438-60.246093 170.46875 22.613281 26.921875 26.921875-188.390625 28.984375zm28.984375-188.382812 132.144532 132.144531-149.433594-19.824219zm-93.503906 359.175781c0 3.023438-1.175781 5.855469-3.3125 8l-4.6875 4.6875-92.6875-92.6875 4.6875-4.6875c4.261719-4.28125 11.71875-4.28125 16 0l76.6875 76.6875c2.136719 2.144531 3.3125 4.984375 3.3125 8zm-36.6875-64 92.6875-92.6875 12.6875 12.6875-92.6875 92.6875zm316.6875-102.679688v78.679688c0 4.414062-3.59375 8-8 8-4.410156 0-8-3.585938-8-8v-24c0-13.230469-10.769531-24-24-24-13.234375 0-24 10.769531-24 24v48c0 4.414062-3.59375 8-8 8-4.410156 0-8-3.585938-8-8v-90.367188zm0 0"/><path d="m275.3125 256h16v16h-16zm0 0"/></svg>