<svg xmlns="http://www.w3.org/2000/svg" width="148" height="148" viewBox="0 0 148 148">
  <g id="Group_31" data-name="Group 31" transform="translate(-1258 -6633)">
    <circle id="Ellipse_5" data-name="Ellipse 5" cx="74" cy="74" r="74" transform="translate(1258 6633)" fill="#fff"/>
    <g id="_024-diamond" data-name="024-diamond" transform="translate(1288 6665)">
      <path id="Path_99" data-name="Path 99" d="M63.979,13.389l2.649-2.208A6.323,6.323,0,0,0,62.58,0h-.266a6.373,6.373,0,0,0-3.46,1.034A6.362,6.362,0,0,0,55.4,0h-.266a6.323,6.323,0,0,0-4.048,11.181l2.649,2.208a30.023,30.023,0,0,0-14,6.39,6.323,6.323,0,0,0-5.864-3.989H33.6a6.373,6.373,0,0,0-3.46,1.034,6.362,6.362,0,0,0-3.46-1.034H26.42a6.323,6.323,0,0,0-4.048,11.181l2.649,2.208A30.127,30.127,0,1,0,56.663,73.1c.726.052,1.451.111,2.192.111a30.128,30.128,0,0,0,5.124-59.821ZM52.921,8.976a3.452,3.452,0,0,1,2.209-6.105H55.4A3.481,3.481,0,0,1,57.84,3.886L58.859,4.9l1.015-1.015a3.478,3.478,0,0,1,2.441-1.011h.266a3.452,3.452,0,0,1,2.209,6.105l-4.8,4c-.379-.015-.751-.057-1.134-.057s-.755.043-1.134.057Zm-28.71,15.79a3.452,3.452,0,0,1,2.209-6.105h.266a3.481,3.481,0,0,1,2.445,1.015l1.019,1.011,1.015-1.015A3.478,3.478,0,0,1,33.6,18.661h.266a3.445,3.445,0,0,1,3.419,3.383A30.289,30.289,0,0,0,32.31,28.8c-.732-.053-1.458-.089-2.164-.089-.383,0-.755.043-1.134.057ZM47.829,71.092A21.514,21.514,0,1,1,29.267,37.367,30.016,30.016,0,0,0,47.829,71.092ZM30.145,86.129a27.274,27.274,0,1,1,0-54.548c.27,0,.559.036.834.044a29.917,29.917,0,0,0-1,2.835A24.4,24.4,0,1,0,50.641,72.043a29.921,29.921,0,0,0,2.96.678A27.093,27.093,0,0,1,30.145,86.129Zm28.71-15.79A27.274,27.274,0,1,1,86.129,43.065,27.3,27.3,0,0,1,58.855,70.339Zm0,0" fill="#73a895"/>
      <path id="Path_100" data-name="Path 100" d="M216.4,104a24.4,24.4,0,1,0,24.4,24.4A24.431,24.431,0,0,0,216.4,104Zm0,45.935A21.532,21.532,0,1,1,237.935,128.4,21.557,21.557,0,0,1,216.4,149.935Zm0,0" transform="translate(-157.548 -85.339)" fill="#73a895"/>
      <path id="Path_101" data-name="Path 101" d="M349.816,240a15.87,15.87,0,0,1-14.473,15.736l.236,2.861A18.758,18.758,0,0,0,352.687,240Zm0,0" transform="translate(-275.171 -196.935)" fill="#73a895"/>
      <path id="Path_102" data-name="Path 102" d="M302.008,328a18.616,18.616,0,0,0,3.111.524l.236-2.861a15.715,15.715,0,0,1-2.631-.444Zm0,0" transform="translate(-247.817 -266.866)" fill="#73a895"/>
      <path id="Path_103" data-name="Path 103" d="M66.871,328H64a18.683,18.683,0,0,0,18.661,18.661V343.79A15.809,15.809,0,0,1,66.871,328Zm0,0" transform="translate(-52.516 -269.145)" fill="#73a895"/>
      <path id="Path_104" data-name="Path 104" d="M68.945,294.292l-2.706-.956a18.337,18.337,0,0,0-.805,3.112l2.832.474A15.851,15.851,0,0,1,68.945,294.292Zm0,0" transform="translate(-53.692 -240.701)" fill="#73a895"/>
    </g>
  </g>
</svg>
