<svg xmlns="http://www.w3.org/2000/svg" width="133.906" height="133.906" viewBox="0 0 133.906 133.906">
  <g id="Group_36" data-name="Group 36" transform="translate(-748 -5706)">
    <g id="Group_35" data-name="Group 35" transform="translate(117 1566)">
      <circle id="Ellipse_2" data-name="Ellipse 2" cx="66.953" cy="66.953" r="66.953" transform="translate(631 4140)" fill="#fff"/>
    </g>
    <g id="_012-contract" data-name="012-contract" transform="translate(771 5731)">
      <path id="Path_64" data-name="Path 64" d="M73.454,44.888V6.8a6.809,6.809,0,0,0-6.8-6.8H14.963a6.809,6.809,0,0,0-6.8,6.8v6.8H19.044v40.86L2.088,72.163a7.131,7.131,0,1,0,10.1,10.064l9.663-10.088a6.816,6.816,0,0,0,3.988,1.315h51.69a6.809,6.809,0,0,0,6.8-6.8V44.888ZM10.882,6.8a4.086,4.086,0,0,1,4.081-4.081H61.214A6.766,6.766,0,0,0,59.851,6.8v4.081H10.882Zm25.845,28L28.5,26.574a4.411,4.411,0,1,1,6.237-6.238l1.993,1.991,1.994-1.991a4.371,4.371,0,0,1,3.118-1.293,4.412,4.412,0,0,1,3.119,7.531ZM46.882,28.5a7.03,7.03,0,0,0,1.9-6.614,6.8,6.8,0,0,1,5.629,6.683v4.081h4.081a6.8,6.8,0,1,1,0,13.6H43.931l1.2-8.405-4.325.619V34.571Zm-26.7,41.455-1.967-1.967,19.9-21.142,2.148,2.148ZM18.3,71.917l-2.111,2.2L9.954,67.882l2.111-2.2ZM41.924,41.051l-.718,5.033-4.315-4.315Zm-7.9,1.7,2.164,2.164-19.9,21.144-2.345-2.345ZM10.25,80.324a4.411,4.411,0,1,1-6.218-6.259l4.04-4.218,6.238,6.238ZM23.757,70.156,43.15,49.91l.3-.314.088-.627h14.95a9.522,9.522,0,0,0,0-19.044h-1.36v-1.36a9.533,9.533,0,0,0-9.522-9.522c-.068,0-.135.009-.2.011a7.083,7.083,0,0,0-10.61-.643l-.069.069-.068-.068A7.132,7.132,0,0,0,26.573,28.5L36.727,38.65l1.36-1.36v1.56l-4.738.677L21.764,51.622V13.6H62.572V6.8a4.081,4.081,0,1,1,8.162,0V66.653a6.733,6.733,0,0,0,1.4,4.081H25.845A4.056,4.056,0,0,1,23.757,70.156Zm57.859-3.5a4.081,4.081,0,0,1-8.162,0V47.609h8.162Zm0,0" transform="translate(0)" fill="#4d4d4a"/>
      <path id="Path_65" data-name="Path 65" d="M321.522,232H318.8a1.362,1.362,0,0,1-1.36,1.36H312v2.72h5.441A4.086,4.086,0,0,0,321.522,232Zm0,0" transform="translate(-258.95 -192.553)" fill="#4d4d4a"/>
      <path id="Path_66" data-name="Path 66" d="M280,240h2.721v2.721H280Zm0,0" transform="translate(-232.391 -199.192)" fill="#4d4d4a"/>
      <path id="Path_67" data-name="Path 67" d="M272,320h21.764v2.721H272Zm0,0" transform="translate(-225.751 -265.59)" fill="#4d4d4a"/>
      <path id="Path_68" data-name="Path 68" d="M272,352h21.764v2.721H272Zm0,0" transform="translate(-225.751 -292.149)" fill="#4d4d4a"/>
      <path id="Path_69" data-name="Path 69" d="M224,384h29.926v2.721H224Zm0,0" transform="translate(-185.913 -318.708)" fill="#4d4d4a"/>
      <path id="Path_70" data-name="Path 70" d="M392,152h2.721v2.721H392Zm0,0" transform="translate(-325.347 -126.155)" fill="#4d4d4a"/>
      <path id="Path_71" data-name="Path 71" d="M392,88h2.721v2.721H392Zm0,0" transform="translate(-325.347 -73.037)" fill="#4d4d4a"/>
      <path id="Path_72" data-name="Path 72" d="M392,120h2.721v2.721H392Zm0,0" transform="translate(-325.347 -99.596)" fill="#4d4d4a"/>
    </g>
  </g>
</svg>
