<?xml version="1.0" encoding="utf-8"?>
<!-- Generator: Adobe Illustrator 23.0.3, SVG Export Plug-In . SVG Version: 6.00 Build 0)  -->
<svg version="1.1" id="Layer_1" xmlns="http://www.w3.org/2000/svg" xmlns:xlink="http://www.w3.org/1999/xlink" x="0px" y="0px"
	 viewBox="0 0 148 148" style="enable-background:new 0 0 148 148;" xml:space="preserve">
<style type="text/css">
	.st0{fill:#FFFFFF;}
	.st1{fill:#73A895;}
</style>
<g id="Group_31" transform="translate(-1258 -6633)">
	<circle id="Ellipse_5" class="st0" cx="1332" cy="6707" r="74"/>
	<g>
		<path class="st1" d="M1329.2,6708.9c-1.6-1.5-3.6-2.3-5.8-2.3c-4.7,0-8.6,3.8-8.6,8.6c0,2.3,0.9,4.4,2.5,6l11.9,11.9l11.9-11.9
			c1.6-1.6,2.5-3.8,2.5-6c0-4.7-3.8-8.6-8.6-8.6C1332.8,6706.6,1330.8,6707.4,1329.2,6708.9z M1340.7,6715.2c0,1.5-0.6,2.9-1.7,4
			l-9.8,9.8l-9.8-9.8c-1.1-1.1-1.7-2.5-1.7-4c0-3.1,2.5-5.7,5.7-5.7c1.5,0,2.9,0.6,4,1.7l1.8,1.8l1.8-1.8c1.1-1.1,2.5-1.7,4-1.7
			C1338.1,6709.5,1340.7,6712,1340.7,6715.2z"/>
		<path class="st1" d="M1307.6,6720.5v-1c0-1.4,0.1-2.7,0.4-4.1l-2.8-0.6c-0.3,1.5-0.4,3.1-0.4,4.6v1c0,5.7,2.1,11.3,5.9,15.6
			l0.2,0.2l2.2-1.9l-0.2-0.2C1309.4,6730.5,1307.6,6725.6,1307.6,6720.5z"/>
		<path class="st1" d="M1309.3,6711.4l-2.7-1.1c-0.4,1-0.8,2.1-1.1,3.2l2.8,0.7C1308.6,6713.3,1308.9,6712.3,1309.3,6711.4z"/>
		<path class="st1" d="M1311.5,6707.4l-2.3-1.7c-0.7,1-1.3,2-1.9,3.1l2.6,1.3C1310.3,6709.2,1310.9,6708.3,1311.5,6707.4z"/>
		<path class="st1" d="M1353.6,6720.5v-1h-2.9v1c0,4.5-1.5,9-4.2,12.5l2.3,1.7C1351.9,6730.7,1353.6,6725.6,1353.6,6720.5z"/>
		<path class="st1" d="M1342.9,6737.3l2.5-2.9l2.2,1.9l-2.5,2.9L1342.9,6737.3z"/>
		<path class="st1" d="M1367.2,6669.2c-0.6,0-1.3,0.2-1.8,0.5l-3.9,2.2l1.4,2.5l3.9-2.2c0.5-0.3,1.1,0.1,1.1,0.7v0.7h2.9v-0.7
			C1370.9,6670.9,1369.2,6669.2,1367.2,6669.2z"/>
		<path class="st1" d="M1367.2,6663.5c-1.6,0-3.2,0.4-4.7,1.2l-7.9,4.5h-18.3v-1.4c0-2.4-1.9-4.3-4.3-4.3h-5.8
			c-2.4,0-4.3,1.9-4.3,4.3v12.9h2.9v2.9h-1.4c-4,0-7.2,3.2-7.2,7.2v2c-10.5,4.8-17.3,15.2-17.3,26.8v1c0,7.1,2.6,14,7.3,19.4
			l1.2,1.4c-2.4,0.7-4.2,2.9-4.2,5.5c0,3.2,2.6,5.8,5.8,5.8h40.3c3.2,0,5.8-2.6,5.8-5.8c0-2.6-1.8-4.8-4.2-5.5l1.2-1.4
			c4.7-5.4,7.3-12.3,7.3-19.4v-1c0-11.6-6.7-22-17.3-26.8v-2c0-4-3.2-7.2-7.2-7.2h-1.4v-2.9h2.9v-2.9h18.3l7.9,4.5
			c1.4,0.8,3,1.2,4.7,1.2c5.2,0,9.4-4.2,9.4-9.4v-1.3C1376.6,6667.7,1372.4,6663.5,1367.2,6663.5z M1352.2,6746.9
			c0,1.6-1.3,2.9-2.9,2.9h-40.3c-1.6,0-2.9-1.3-2.9-2.9c0-1.6,1.3-2.9,2.9-2.9h40.3C1350.9,6744,1352.2,6745.3,1352.2,6746.9z
			 M1356.5,6719.6v1c0,6.4-2.3,12.7-6.6,17.5l-2.7,3.1h-36.1l-2.7-3.1c-4.2-4.9-6.6-11.1-6.6-17.5v-1c0-10.7,6.3-20.2,16.1-24.4
			h22.4C1350.2,6699.3,1356.5,6708.9,1356.5,6719.6z M1339.2,6690.8v1.4h-20.1v-1.4c0-2.4,1.9-4.3,4.3-4.3h11.5
			C1337.3,6686.5,1339.2,6688.4,1339.2,6690.8z M1330.6,6683.6h-2.9v-2.9h2.9V6683.6z M1333.5,6677.9h-8.6v-10.1
			c0-0.8,0.6-1.4,1.4-1.4h5.8c0.8,0,1.4,0.6,1.4,1.4V6677.9z M1336.4,6672.1h17.3v2.9h-17.3V6672.1z M1373.7,6674.2
			c0,3.6-2.9,6.5-6.5,6.5c-1.1,0-2.2-0.3-3.2-0.9l-7.5-4.3v-4.1l7.5-4.3c1-0.6,2.1-0.9,3.2-0.9c3.6,0,6.5,2.9,6.5,6.5V6674.2z"/>
	</g>
</g>
</svg>
