<svg xmlns="http://www.w3.org/2000/svg" width="133.906" height="133.906" viewBox="0 0 133.906 133.906">
  <g id="Group_37" data-name="Group 37" transform="translate(-631 -4140)">
    <g id="Group_38" data-name="Group 38">
      <circle id="Ellipse_2" data-name="Ellipse 2" cx="66.953" cy="66.953" r="66.953" transform="translate(631 4140)" fill="#73a895"/>
      <g id="_023-bow" data-name="023-bow" transform="translate(638.981 4203.305) rotate(-45)">
        <path id="Path_54" data-name="Path 54" d="M359.362,365.946a1.635,1.635,0,0,1-2.476-.286l-5.764-9.308-2.294,1.421,5.762,9.308a4.288,4.288,0,0,0,6.678.774l3.177-3.177-1.908-1.908Zm0,0" transform="translate(-289.964 -296.242)" fill="#fff"/>
        <path id="Path_55" data-name="Path 55" d="M328.73,325.328l2.294-1.421,1.6,2.59-2.294,1.421Zm0,0" transform="translate(-273.257 -269.269)" fill="#fff"/>
        <path id="Path_56" data-name="Path 56" d="M86.48,35.166a1.636,1.636,0,0,1,2.476.286l2.47,3.988,2.294-1.421-2.468-3.988a4.288,4.288,0,0,0-6.679-.774l-4.666,4.666,1.908,1.908Zm0,0" transform="translate(-66.405 -26.602)" fill="#fff"/>
        <path id="Path_57" data-name="Path 57" d="M158.4,85.6l2.3-1.421,1.618,2.613-2.294,1.421Zm0,0" transform="translate(-131.657 -69.983)" fill="#fff"/>
        <path id="Path_58" data-name="Path 58" d="M83.87,53.466A9.15,9.15,0,0,0,78.7,45.254l-9.677-4.628c0-.049.007-.094.007-.143A12.159,12.159,0,0,0,56.881,28.339H55.532V26.989A12.159,12.159,0,0,0,43.386,14.844c-.048,0-.094.007-.143.007L38.615,5.174A9.148,9.148,0,0,0,30.4,0a8.972,8.972,0,0,0-4.473,1.226A9.7,9.7,0,0,0,14.352,2.838L8.44,8.748A9.708,9.708,0,0,0,6.827,20.329,8.961,8.961,0,0,0,5.6,24.8a9.152,9.152,0,0,0,5.174,8.211L31.241,42.8v.642L.027,50.231,3.24,71.119l28-18.667v.177h.179l-18.668,28L33.64,83.844l6.786-31.215h.644l9.787,20.465a9.149,9.149,0,0,0,8.211,5.175,8.969,8.969,0,0,0,4.473-1.226A9.7,9.7,0,0,0,75.12,75.43l5.912-5.912a9.709,9.709,0,0,0,1.612-11.58A8.961,8.961,0,0,0,83.87,53.466Zm-6.339-5.776a6.435,6.435,0,0,1,3.64,5.776A6.241,6.241,0,0,1,80.78,55.6a9.745,9.745,0,0,0-1.5-1.165L67.156,46.927a12.045,12.045,0,0,0,1.49-3.487Zm-24.7-20.7v4.048h4.048a9.446,9.446,0,0,1,0,18.892H33.94V26.989a9.446,9.446,0,1,1,18.892,0ZM36.181,6.338l4.249,8.885a12.089,12.089,0,0,0-3.487,1.49L29.436,4.587a9.777,9.777,0,0,0-1.164-1.5A6.252,6.252,0,0,1,30.4,2.7,6.436,6.436,0,0,1,36.181,6.338ZM10.348,10.657,16.26,4.745A6.988,6.988,0,0,1,27.142,6.008L34.812,18.4a12.11,12.11,0,0,0-3.571,8.592v6.7L11.61,21.539a6.987,6.987,0,0,1-1.262-10.882Zm1.594,19.922A6.436,6.436,0,0,1,8.3,24.8a6.227,6.227,0,0,1,.391-2.134,9.746,9.746,0,0,0,1.5,1.165L31.241,36.866v2.943ZM5.264,66.525,3.08,52.328l28.161-6.121v3ZM31.542,80.789l-14.2-2.184L34.662,52.629h3Zm21.749-8.861-9.231-19.3H47L60.037,73.682a9.778,9.778,0,0,0,1.164,1.5,6.252,6.252,0,0,1-2.132.39A6.435,6.435,0,0,1,53.292,71.928Zm25.833-4.317-5.912,5.912A6.988,6.988,0,0,1,62.33,72.26L50.179,52.629h6.7a12.107,12.107,0,0,0,8.591-3.569l12.391,7.67a6.988,6.988,0,0,1,1.262,10.882Zm0,0" transform="translate(0)" fill="#fff"/>
        <path id="Path_59" data-name="Path 59" d="M223.821,120a6.755,6.755,0,0,0-6.747,6.747v9.446h2.7v-9.446a4.054,4.054,0,0,1,4.048-4.048Zm0,0" transform="translate(-180.435 -99.758)" fill="#fff"/>
        <path id="Path_60" data-name="Path 60" d="M217.074,232h2.7v2.7h-2.7Zm0,0" transform="translate(-180.435 -192.866)" fill="#fff"/>
        <path id="Path_61" data-name="Path 61" d="M257.074,264h2.7v2.7h-2.7Zm0,0" transform="translate(-213.688 -219.468)" fill="#fff"/>
        <path id="Path_62" data-name="Path 62" d="M321.074,264h2.7v2.7h-2.7Zm0,0" transform="translate(-266.892 -219.468)" fill="#fff"/>
        <path id="Path_63" data-name="Path 63" d="M289.074,264h2.7v2.7h-2.7Zm0,0" transform="translate(-240.29 -219.468)" fill="#fff"/>
      </g>
    </g>
  </g>
</svg>
