<svg xmlns="http://www.w3.org/2000/svg" width="148" height="148" viewBox="0 0 148 148">
  <g id="Group_29" data-name="Group 29" transform="translate(-951 -6633)">
    <circle id="Ellipse_4" data-name="Ellipse 4" cx="74" cy="74" r="74" transform="translate(951 6633)" fill="#fff"/>
    <g id="_028-clothes" data-name="028-clothes" transform="translate(984.594 6664)">
      <path id="Path_85" data-name="Path 85" d="M353.137,116.175l1.942-2.3,3.556,3.007-1.943,2.3Zm0,0" transform="translate(-288.871 -93.296)" fill="#73a895"/>
      <path id="Path_86" data-name="Path 86" d="M308.516,41.48a3.113,3.113,0,0,1-1.1-2.375v-.978a3.128,3.128,0,0,1,3.048-3.112l-.062-3.007a6.153,6.153,0,0,0-5.994,6.119V39.1a6.111,6.111,0,0,0,2.167,4.672l5.274,4.464,1.944-2.3Zm0,0" transform="translate(-249.06 -25.992)" fill="#73a895"/>
      <path id="Path_87" data-name="Path 87" d="M78.691,0a11.653,11.653,0,0,0-8.284,3.426l-.323.322-.322-.322a11.72,11.72,0,0,0-20,8.271v.941a11.626,11.626,0,0,0,.26,2.426l-8.691-3.47H23.353L8.62,17.478A12.98,12.98,0,0,0,.406,29.587V69.563h8.71V83.5L22.134,90l10.207-4.367L42.55,90l13.018-6.5V69.563h8.71V30.325l5.806,4.906L86.258,21.567a11.669,11.669,0,0,0,4.149-8.928V11.7A11.72,11.72,0,0,0,78.691,0ZM49.183,17.851l-8.361,9.391,2.858,7.134-9.332,8.281L40.76,14.492h.013ZM32.342,38.384,26.9,14.492H37.781Zm-8.43-23.892h.013l6.412,28.164L21,34.376l2.858-7.134L15.5,17.851ZM4.539,31.662A56.135,56.135,0,0,1,9.116,53.926v6.942H3.309V29.587c0-.228.037-.448.051-.672Zm-1.23,35v-2.9H9.116v2.9Zm8.71,15.046V53.926a58.989,58.989,0,0,0-4.812-23.4l-2.55-5.943A10.1,10.1,0,0,1,9.7,20.169l2.938-1.174L20.5,27.828l-2.949,7.36L30.89,47.026V83.1l-8.663,3.707Zm40.645,0-10.207,5.1L33.793,83.1V47.026l13.34-11.838-2.949-7.36,7.643-8.586a11.708,11.708,0,0,0,2.083,2.325l5.437,4.594-1.871,4.36a58.989,58.989,0,0,0-4.813,23.4Zm8.71-52.123v31.28H55.568V53.926a56.141,56.141,0,0,1,4.577-22.264l1.189-2.77C61.35,29.124,61.374,29.354,61.374,29.587ZM55.568,66.664v-2.9h5.806v2.9ZM87.5,12.639a8.774,8.774,0,0,1-3.119,6.715l-14.3,12.079-14.3-12.081a8.772,8.772,0,0,1-3.12-6.714V11.7A8.817,8.817,0,0,1,67.709,5.475l2.374,2.371,2.375-2.371A8.816,8.816,0,0,1,87.5,11.7Zm0,0" transform="translate(0)" fill="#73a895"/>
      <path id="Path_88" data-name="Path 88" d="M80.406,408h3.007v3.007H80.406Zm0,0" transform="translate(-64.964 -334.693)" fill="#73a895"/>
      <path id="Path_89" data-name="Path 89" d="M80.406,376h3.007v3.007H80.406Zm0,0" transform="translate(-64.964 -307.971)" fill="#73a895"/>
      <path id="Path_90" data-name="Path 90" d="M64.688,190.934a64.338,64.338,0,0,1,2.954,19.33v11.713h3.007V210.264a67.381,67.381,0,0,0-3.092-20.233Zm0,0" transform="translate(-52.199 -156.278)" fill="#73a895"/>
      <path id="Path_91" data-name="Path 91" d="M256.406,416h3.007v3.007h-3.007Zm0,0" transform="translate(-209.604 -341.19)" fill="#73a895"/>
      <path id="Path_92" data-name="Path 92" d="M256.406,384h3.007v3.007h-3.007Zm0,0" transform="translate(-209.604 -314.524)" fill="#73a895"/>
      <path id="Path_93" data-name="Path 93" d="M256.406,352h3.007v3.007h-3.007Zm0,0" transform="translate(-209.604 -288.314)" fill="#73a895"/>
      <path id="Path_94" data-name="Path 94" d="M203.413,401.5a1.5,1.5,0,1,1-1.5-1.5A1.5,1.5,0,0,1,203.413,401.5Zm0,0" transform="translate(-163.753 -328.197)" fill="#73a895"/>
      <path id="Path_95" data-name="Path 95" d="M203.413,369.5a1.5,1.5,0,1,1-1.5-1.5A1.5,1.5,0,0,1,203.413,369.5Zm0,0" transform="translate(-163.753 -301.419)" fill="#73a895"/>
      <path id="Path_96" data-name="Path 96" d="M203.413,337.5a1.5,1.5,0,1,1-1.5-1.5A1.5,1.5,0,0,1,203.413,337.5Zm0,0" transform="translate(-163.753 -275.208)" fill="#73a895"/>
      <path id="Path_97" data-name="Path 97" d="M203.413,305.5a1.5,1.5,0,1,1-1.5-1.5A1.5,1.5,0,0,1,203.413,305.5Zm0,0" transform="translate(-163.753 -248.998)" fill="#73a895"/>
      <path id="Path_98" data-name="Path 98" d="M203.413,273.5a1.5,1.5,0,1,1-1.5-1.5A1.5,1.5,0,0,1,203.413,273.5Zm0,0" transform="translate(-163.753 -222.788)" fill="#73a895"/>
    </g>
  </g>
</svg>
