<svg xmlns="http://www.w3.org/2000/svg" width="2029.648" height="2006.737" viewBox="0 0 2029.648 2006.737">
  <g id="Group_24" data-name="Group 24" transform="translate(-634.699 946.563) rotate(-56)">
    <g id="Group_12" data-name="Group 12" transform="translate(169.639 651.162)">
      <path id="Path_19" data-name="Path 19" d="M175.733,951.326c4.419-5.155,10.9-12.938,17.558-20.5l18.443-19.519c.088,2.14-1.516,6.624-4.236,12.7-1.36,3.036-3,6.472-4.849,10.212q-.694,1.4-1.424,2.859-.66,1.5-1.347,3.049-1.392,3.092-2.872,6.387c-2,4.361-4.1,8.957-6.258,13.684-2.127,4.736-4.522,9.488-6.388,14.528-3.956,9.971-7.879,20.045-11.282,29.424-2.487,13.793,2.536,14.74,8.98,9.845a44.191,44.191,0,0,0,5.017-4.622,60.8,60.8,0,0,0,5.042-5.882,53.873,53.873,0,0,0,7.679-13.676q1.66-3.54,3.359-7.167c.568-1.208,1.1-2.44,1.7-3.645q.932-1.8,1.876-3.6,3.755-7.248,7.531-14.806,1.876-3.78,3.771-7.606c1.263-2.551,2.463-5.157,3.9-7.64L230.2,930.1l4.092-7.723c1.368-2.574,2.66-5.2,4.186-7.675q4.385-7.569,8.733-15.083,2.145-3.78,4.275-7.529c1.421-2.5,2.769-5.04,4.326-7.41q4.493-7.267,8.856-14.328c2.913-4.709,5.641-9.451,8.49-13.952l8.537-13.032,7.9-12.436c1.224-2.045,2.547-3.946,3.837-5.814q1.91-2.827,3.738-5.523c4.838-7.225,9.091-13.884,12.608-19.774,3.7-5.713,6.725-10.607,8.757-14.623,3.236-3.853,2.059-4.026-2.312-1.38a158.828,158.828,0,0,0-21.129,15.914c-4.571,3.919-9.613,8.352-14.978,13.178-1.325,1.22-2.738,2.407-4.044,3.724s-2.635,2.656-3.979,4.011q-4.005,4.1-8.2,8.4-4.147,4.339-8.432,8.819c-1.4,1.516-2.884,2.981-4.225,4.571s-2.691,3.191-4.042,4.8c-5.392,6.433-10.782,13.018-16.023,19.6-10.109,17.856-20.051,35.636-28.617,54.17" transform="translate(-145.755 -512.81)" fill="#94d2ba" opacity="0.8"/>
      <path id="Path_20" data-name="Path 20" d="M890.475,1012.424q2.286,3.777,4.509,7.455c1.479,2.458,3.047,4.847,4.345,7.328,2.744,4.913,5.437,9.73,8.105,14.5a775.068,775.068,0,0,0-34.11-86.967c-3.544-7.317-7.079-14.861-10.905-22.526q-6.178-11.266-12.72-23.2c-2.125-4.046-4.6-7.953-7.1-11.948s-5.044-8.077-7.638-12.226c-5.034-8.441-11.07-16.6-17.192-25.28-9.615-12.858-13.958-13.629-13.878-8.846a44.56,44.56,0,0,0,2.506,11.1,134.956,134.956,0,0,0,6.583,15.935L802.267,866.2q-2.592-2.743-5.077-5.375c-1.708-1.71-3.469-3.306-5.153-4.906-6.783-6.361-13.088-12.113-19.015-17.393-6.2-5.024-12.045-9.545-17.57-13.769q-4.16-3.138-8.091-6.1c-2.7-1.894-5.425-3.633-8.05-5.377-10.586-6.887-20.134-13.316-30.545-19.093-5.116-2.991-10.251-6.044-15.517-9.28-2.582-1.683-5.454-3.084-8.243-4.707q-4.2-2.41-8.62-4.945c5.069,3.326,10.267,6.535,15.332,9.961q7.467,5.335,14.97,10.693c10.239,6.914,19.732,14.839,29.615,22.458,2.427,1.95,4.995,3.767,7.326,5.832l7.087,6.128,14.273,12.283c4.7,4.174,9.138,8.622,13.746,12.93l6.871,6.517c2.292,2.177,4.631,4.316,6.754,6.647A628.386,628.386,0,0,1,884.91,987.958l1.6,6.052c.491,2.035.895,4.108,1.345,6.153Z" transform="translate(387.016 -519.975)" fill="#94d2ba"/>
      <path id="Path_21" data-name="Path 21" d="M461.145,1771.068l9.833,1.9c3.281.644,6.6.989,9.9,1.5l19.895,2.837c6.639,1.09,13.333,1.543,20.031,2.193q10.063.932,20.142,1.862c6.731.445,13.483.628,20.247.953l10.158.434c3.39.154,6.783.326,10.173.24l20.393-.123,10.23-.068,10.212-.541a710.07,710.07,0,0,0,277.269-76.745,701.737,701.737,0,0,0,121.943-79.545,686.024,686.024,0,0,0,229.746-352.434c24.1-88.537,28.909-179.026,16.272-262.163a36.168,36.168,0,0,1-1.88-6.155c-.635-2.545-1.391-5.5-2.028-8.663.36,3.24.885,6.468,1.109,9.72l.724,9.753,1.448,19.506c.311,3.248.321,6.509.416,9.763l.251,9.77c.144,6.513.38,13.028.453,19.539l-.457,19.529-.229,9.763-.127,4.882-.354,4.867-1.419,19.471-.71,9.737c-.333,3.234-.776,6.456-1.158,9.685A715.931,715.931,0,0,1,1163.476,1445.2l-2.471,4.2c-.839,1.389-1.769,2.721-2.65,4.083l-5.353,8.136-10.722,16.264c-1.724,2.757-3.777,5.279-5.659,7.924l-5.766,7.848-11.572,15.672-12.322,15.087-6.168,7.542c-2.045,2.524-4.1,5.04-6.322,7.406l-13.082,14.439-6.546,7.212c-2.15,2.438-4.555,4.629-6.822,6.954a698.886,698.886,0,0,1-120.448,98.415,676.511,676.511,0,0,1-139.384,69.088,689.731,689.731,0,0,1-151.363,35.805l-9.659,1.23c-3.23.327-6.474.527-9.71.794l-19.42,1.486c-6.457.631-12.968.592-19.453.806l-19.461.471c-6.486.014-12.981-.286-19.465-.424-6.484-.231-12.969-.245-19.442-.667l-19.4-1.541c-6.46-.553-12.929-.9-19.35-1.9-3.584-1.142-13.816-2.269-27.815-3.382l-23.349-2.808c-4.238-.516-8.64-.914-13.108-1.543l-13.612-2.185q3.984,1.4,8.286,2.783c2.876.885,5.838,1.917,8.98,2.578C447.109,1768.438,453.852,1769.815,461.145,1771.068Z" transform="translate(119.758 -286.02)" fill="#94d2ba" opacity="0.7"/>
      <path id="Path_22" data-name="Path 22" d="M192.622,1658.369c.383,3.181.86,7.151,1.362,11.319.269,2.084.471,4.252.811,6.344s.706,4.156,1.039,6.124c1.349,7.918,2.43,14.252,2.43,14.252a891.759,891.759,0,0,0,73.608,124.533,795.843,795.843,0,0,0,91.18,107.169A700.231,700.231,0,0,0,478.1,2019.6l8.13,5.19c2.709,1.751,5.435,3.5,8.291,5.044l17.066,9.673q4.3,2.438,8.632,4.89c2.888,1.635,5.925,3.01,8.9,4.534l18.1,9.013c6.019,3.166,12.364,5.735,18.688,8.5l19.173,8.27c6.525,2.567,13.2,4.92,19.887,7.416l10.093,3.709c1.7.6,3.374,1.276,5.1,1.829l5.192,1.6a106.215,106.215,0,0,1,16.826,7.371c2.717,1.452,5.429,3.009,8.188,4.653s5.639,3.106,8.581,4.781c5.9,3.279,12.211,6.826,19.352,10.487l5.517,2.765,5.933,2.485c4.082,1.658,8.42,3.313,13.071,4.946l13.612,2.185c4.468.629,8.871,1.027,13.108,1.543l23.349,2.808c14,1.113,24.232,2.24,27.815,3.382,6.421.994,12.89,1.346,19.35,1.9l19.4,1.541c6.474.422,12.958.436,19.442.667,6.484.138,12.979.438,19.465.424l19.461-.471c6.484-.214,13-.175,19.453-.806l19.42-1.486c3.236-.268,6.48-.467,9.71-.794l9.659-1.23a689.734,689.734,0,0,0,151.363-35.806,676.492,676.492,0,0,0,139.384-69.088,698.885,698.885,0,0,0,120.448-98.415c2.267-2.324,4.672-4.515,6.822-6.953l6.546-7.212,13.082-14.439c2.226-2.366,4.277-4.881,6.322-7.406l6.168-7.542,12.323-15.087,11.572-15.672,5.766-7.848c1.882-2.646,3.935-5.167,5.659-7.924l10.722-16.264,5.353-8.136c.88-1.362,1.81-2.695,2.65-4.083l2.471-4.2a715.936,715.936,0,0,0,100.154-292.656c.383-3.23.825-6.451,1.158-9.685l.71-9.737,1.419-19.471.354-4.867.127-4.882.228-9.763.457-19.529c-.072-6.511-.308-13.026-.453-19.539l-.251-9.77c-.095-3.255-.1-6.515-.416-9.763l-1.448-19.506-.724-9.753c-.224-3.253-.749-6.48-1.109-9.72-1.714-8.235-3.119-17.494-3.755-23.01a38.041,38.041,0,0,1-.4-4.849c.09-.276.619.959,1.265,4.367,0,0-.072-.436-.206-1.267-.115-.833-.337-2.051-.681-3.608-.632-3.121-1.545-7.618-2.664-13.135-1.076-5.513-2.351-12.045-3.754-19.234-1.7-7.13-3.5-14.915-5.3-23q-.667-3.036-1.345-6.12c-.426-2.059-.889-4.127-1.465-6.171-1.057-4.116-2.123-8.26-3.182-12.391l-3-12.341q-.719-3.058-1.424-6.069-.808-2.977-1.6-5.89c-2.072-7.772-3.875-15.184-5.268-21.913q-.5-2.534-.965-4.913-.519-2.364-1-4.559c-.607-2.936-1.08-5.663-1.4-8.14q1.947,5.912,3.849,11.689,1.66,5.854,3.289,11.59c2.2,7.638,4.37,15.143,6.513,22.575,1.878,7.5,3.738,14.933,5.6,22.353.924,3.711,1.954,7.393,2.816,11.123q1.2,5.616,2.4,11.255c1.588,7.529,3.368,15.083,4.944,22.8,1.386,7.756,2.8,15.631,4.238,23.688,1.646,8.038,2.613,16.359,3.826,24.911,1.123,8.56,2.668,17.348,3.343,26.535a9.777,9.777,0,0,1-.755-1.457c12.637,83.137,7.832,173.626-16.272,262.163A685.918,685.918,0,0,1,1300.8,1991.112a701.77,701.77,0,0,1-121.943,79.545A710.066,710.066,0,0,1,901.583,2147.4c36.531-1.312,73.157-6.2,109.588-13.493,18.3-3.4,36.293-8.328,54.441-13.1l26.916-8.367c2.238-.728,4.522-1.347,6.727-2.168l6.641-2.425,13.308-4.872c4.429-1.66,8.92-3.2,13.312-4.972l13.106-5.542c8.718-3.767,17.618-7.239,26.118-11.567,8.566-4.193,17.254-8.229,25.772-12.624l25.281-13.849a733.14,733.14,0,0,0,95.869-66.114q11.192-9.547,22.421-19.127c7.27-6.63,14.361-13.491,21.555-20.277l5.377-5.114c1.771-1.726,3.436-3.561,5.157-5.338q5.125-5.384,10.255-10.778l10.255-10.827,9.726-11.333,9.718-11.391c1.609-1.909,3.255-3.793,4.836-5.727l4.575-5.947c6.077-7.951,12.23-15.877,18.231-23.939q8.508-12.445,17.05-24.933c1.391-2.1,2.9-4.133,4.19-6.3l3.942-6.47q3.934-6.48,7.873-12.973c2.586-4.351,5.32-8.625,7.772-13.063l7.2-13.421c4.721-9,9.782-17.845,13.9-27.181,4.275-9.255,8.708-18.463,12.806-27.836q5.7-14.247,11.429-28.549A708.6,708.6,0,0,0,1560,1578.316a845.477,845.477,0,0,0,10.627-150.783,826.541,826.541,0,0,0-15.638-144.138c-5.394-33.8-14.39-64.826-24.277-94.208-5.38-14.552-10.407-28.934-16.642-42.647q-2.234-5.184-4.456-10.337c-1.532-3.413-2.849-6.912-4.563-10.226l-9.776-20.02c-1.639-3.318-3.209-6.669-4.9-9.957l-5.3-9.739q-5.267-9.748-10.543-19.51-5.65-9.56-11.325-19.167c-3.794-6.406-7.449-12.934-11.636-19.181q-6.048-9.526-12.172-19.175c-1.969-3.271-4.151-6.412-6.34-9.572q-3.252-4.767-6.53-9.576-3.252-4.835-6.536-9.718-1.642-2.447-3.287-4.908l-3.5-4.789q-7-9.621-14.063-19.6c-1.187-1.66-2.323-3.343-3.518-4.956q-1.836-2.388-3.643-4.744l-7.079-9.356-6.834-9.206q-1.679-2.286-3.335-4.55c-1.111-1.5-2.306-2.913-3.444-4.368q-6.894-8.659-13.437-17.13l-6.515-8.436q-3.388-4.052-6.733-8.052l-13.257-16.036-3.291-4.007-3.446-3.833-6.912-7.675q-6.964-7.708-13.982-15.472c-4.832-5.044-9.883-9.947-14.968-15.007q-3.845-3.771-7.747-7.6c-2.631-2.526-5.213-5.188-8.046-7.566q-8.362-7.326-17.25-14.871-4.481-3.759-9.07-7.614c-3.151-2.44-6.4-4.835-9.7-7.287q-9.89-7.329-20.582-14.921a556.7,556.7,0,0,0-107.5-55.807c-13.695-4.645-25.077-7.867-35.254-10.364-10.263-2.247-19.432-3.469-28.492-4.865-4.544-.652-9.054-1.4-13.75-2.037-4.727-.531-9.6-1.127-14.758-1.864-10.339-1.409-21.765-3.748-35.887-5.982-7.035-1.238-14.217-2.74-21.456-4.425-7.264-1.541-14.645-2.921-21.958-4.592l-10.938-2.506q-2.725-.648-5.425-1.294c-1.8-.428-3.615-.724-5.406-1.1l-21.006-4.292-9.969-2.088c-3.25-.691-6.437-1.092-9.521-1.621-6.169-.99-11.962-1.886-17.249-2.629-5.287-.71-10.066-1.405-14.211-1.627a79.892,79.892,0,0,0-10.4.08c-58,.987-109.868,10.553-158.948,25.375-49.1,14.956-95.6,35.184-143.34,61.061l-3.569,1.866-3.567,2.039q-3.6,2.027-7.282,4.106l-14.878,8.229c-5.017,2.633-9.819,5.614-14.507,8.469s-9.231,5.639-13.547,8.276A229.388,229.388,0,0,0,452,785.506c-5.542,4.232-9.222,7.521-10.179,9.465-3.876,7.84.712,9.407-1.541,14.429-1.115,2.51-3.915,5.878-10.222,11.335-3.154,2.728-7.184,5.978-12.318,9.905-5.057,4.038-11.016,9.039-18.354,14.8,3.1-1.385,6.663-3.187,10.529-5.265,1.917-1.055,3.925-2.16,6-3.3q1.543-.867,3.135-1.759,1.623-.836,3.287-1.693c8.842-4.579,18.2-9.652,26.638-14.157,17.334-8.3,30.932-14.376,29.051-10.529-6.46,5.581-14.046,11.524-22.129,17.585-7.891,6.361-16.145,13.049-24.328,19.5-15.976,13.452-31.222,26.657-40.423,37.612l10.668-7.706,2.666-1.934,2.761-1.8,5.517-3.617c7.381-4.783,14.61-9.761,22.041-14.4l22.5-13.39c3.68-2.3,7.529-4.3,11.345-6.315l11.389-6.057c11.477-6.857,23-11.864,33.166-16.153q3.641-1.676,7.247-3.335c2.409-1.092,4.9-1.993,7.319-2.987q7.307-2.879,14.439-5.692l7.083-2.748,3.51-1.335,3.553-1.162,13.939-4.464,9.881-5.26c3.583-.973,7.221-1.574,10.726-2.312l10.337-2.111,9.953-2.09q2.444-.525,4.853-1.041l4.855-.825c6.429-1.092,12.685-2.205,18.85-3.362q4.613-.885,9.194-1.761l9.241-1.411c3.691-1.253,7.774-2.465,12.133-3.652q3.274-.858,6.725-1.759l3.489-.866q1.784-.339,3.6-.681c9.685-1.775,19.967-3.586,29.987-5.219,10.088-1.265,19.872-2.6,28.482-4.191,2.146-.44,4.24-.736,6.248-1.059s3.925-.685,5.744-1.066a69.279,69.279,0,0,0,9.6-2.639c-3.005,2.575-2.7,4.355-.267,5.653l13.7-1.625,14.555-1.107L807.6,750.7c2.646-.278,5.336-.35,8.068-.44l8.321-.307c3.11.689,6.982,1.547,11.236,2.491,4.236.95,8.831,1.893,13.394,3.254,9.047,2.516,18.083,5.026,24.108,6.7,1.183-.06,2.442-.171,3.756-.2,1.313-.01,2.687-.023,4.106-.033,2.843-.025,5.871-.05,8.971-.074l18.675-.177,21.335.852c2.907.769,5.591,1.528,8.074,2.279a60.684,60.684,0,0,1,6.853,2.376,114.351,114.351,0,0,1,10.636,4.9,69.014,69.014,0,0,1,13.25,9.019l3.522.59c1.177.218,2.345.506,3.526.753l7.151,1.514q7.218,1.5,14.653,2.882,3.721.673,7.459,1.346l7.412,1.666q7.434,1.626,14.908,3.063c3.026,2.257,6.692,4.437,10.767,6.984,4.051,2.613,8.595,5.318,13.547,8.087,4.939,2.8,10.341,5.519,15.968,8.546,5.567,3.195,11.45,6.443,17.575,9.712l9.736,4.156c3.207,1.395,6.26,3.053,9.344,4.552l17.908,9.07,4.3,2.232q2.071,1.231,4.108,2.442l7.98,4.812q7.816,4.768,14.9,9.329c8.794,5.3,17.371,10.687,25.906,15.713l3.189,1.882,3.069,2.029,6.1,3.978q6.082,3.925,12.068,7.6c6.675,3.682,12.938,8.037,19.385,12.16q4.431,2.543,8.62,4.945c2.79,1.623,5.661,3.024,8.243,4.707,5.266,3.236,10.4,6.289,15.517,9.28,10.411,5.777,19.959,12.205,30.545,19.093,2.625,1.745,5.351,3.483,8.05,5.377q3.94,2.969,8.091,6.1c5.526,4.223,11.374,8.745,17.57,13.769,5.927,5.281,12.232,11.033,19.015,17.393,1.685,1.6,3.446,3.2,5.153,4.906q2.487,2.635,5.077,5.375l10.716,11.551a134.96,134.96,0,0,1-6.583-15.935,44.561,44.561,0,0,1-2.506-11.1c-.08-4.783,4.263-4.011,13.878,8.846,6.122,8.679,12.158,16.84,17.192,25.281q3.891,6.224,7.638,12.226c2.5,3.995,4.972,7.9,7.1,11.948q6.557,11.964,12.72,23.2c3.827,7.665,7.361,15.209,10.905,22.526a775.044,775.044,0,0,1,34.11,86.967c2.524,4.587,5.252,9.025,7.56,13.569q3.462,6.841,6.848,13.52,3.388,6.73,6.719,13.345,2.947,6.792,5.865,13.51,2.888,6.755,5.678,13.546c.459,1.134.94,2.263,1.372,3.407l1.2,3.464,2.347,6.963q2.314,6.992,4.491,14.114c.708,2.382,1.477,4.76,2.1,7.184q.839,3.66,1.687,7.352s-.1,4.215-.239,10.078c-.072,2.913-.154,6.233-.239,9.644-.043,1.7-.088,3.419-.132,5.12-.125,1.712-.249,3.407-.368,5.042q2.654,13.982,5.3,27.906,2.481,10.393,4.729,20.681,1.1,5.163,2.183,10.284c.6,3.431,1.062,6.869,1.568,10.3q1.472,10.3,2.681,20.59l.3,2.576.158,2.582.29,5.168.473,10.356q.167,5.19.331,10.4c.031,1.736.105,3.476.084,5.217l-.2,5.227q-.426,10.467-1.172,21.076c-.329,7.087-1.57,14.178-2.6,21.362q-.861,5.373-1.734,10.821c-.636,3.62-1.148,7.28-2.1,10.911a656.31,656.31,0,0,1-34.941,152.97c-1.969,9.313-4.869,18.323-7.5,27.256q-2.012,6.7-3.97,13.232-.5,1.632-.986,3.25-.567,1.586-1.133,3.153-1.133,3.142-2.243,6.219c-2.218,10.812-8.482,24.3-16.986,36.251-4.116,6.046-8.4,11.913-12.557,17.153-4.4,5.1-8.544,9.646-11.977,13.316-7.846,13.639-16.939,26.334-25.735,39.351-1.432,2.66-3.088,5.184-4.721,7.745l-4.917,7.737q-4.953,7.8-9.977,15.709c-3.557,5.12-7.231,10.208-10.88,15.351q-2.753,3.854-5.509,7.715c-1.851,2.565-3.635,5.2-5.663,7.622q-5.946,7.412-11.882,14.81-2.99,3.691-5.968,7.371c-1.948,2.493-4.17,4.717-6.243,7.077q-6.36,6.955-12.639,13.826c-2.129,2.255-4.153,4.6-6.359,6.741s-4.415,4.256-6.6,6.369c-5.184,6.472-10.043,13.022-14.756,19.494q-7.353,9.372-13.939,18.948a45.389,45.389,0,0,1,4.059-10.055,64.461,64.461,0,0,1,4.534-6.925c.977-1.323,2.08-2.74,3.328-4.269,1.22-1.557,2.557-3.261,4.026-5.135-4.279,4.182-8.953,7.774-13.4,11.477q-6.724,5.484-13.294,10.632l-3.271,2.545q-1.694,1.176-3.368,2.339l-6.663,4.52q-6.6,4.415-12.962,8.391c-2.133,1.3-4.17,2.66-6.318,3.79l-6.332,3.3q-6.249,3.178-12.15,5.823c-3.937,1.744-7.712,3.361-11.413,4.662q-5.647,1.805-10.841,3c-3.9,2.86-7.8,5.725-11.457,8.412-1.833,1.347-3.608,2.65-5.291,3.886-1.7,1.205-3.37,2.249-4.88,3.267-6.079,4.022-10.14,6.707-10.14,6.707l-9.556,2.568c-1.808.49-3.707,1.006-5.661,1.534l-6.11,1.37a710.331,710.331,0,0,1-102.925,48.292c-35.4,13.116-71.318,22.9-105.387,27.665-9.568,2.436,9.578-2.442,23.639-7.589,1.757-.644,3.438-1.292,4.974-1.932a43.885,43.885,0,0,0,4.083-2.062c2.349-1.343,3.878-2.557,4.086-3.514s-.909-1.653-3.835-1.964c-1.467-.171-3.374-.179-5.816-.194-2.452-.063-5.421-.041-8.969.084q-10.649.374-21.746,1.255c-7.42.352-15.005.59-22.68,1.081q-5.752.376-11.6.756-5.854.155-11.785.311l-11.907.426-5.99.249-3,.123-3.014-.016a641.169,641.169,0,0,1-96.22-5.375c-10.673-1.864-20.9-3.8-30.775-5.777-9.8-2.407-19.229-4.988-28.414-7.468-5.065-.981-10.035-2.526-15.094-3.822l-15.275-3.968c-2.563-.673-5.165-1.241-7.735-1.987l-7.723-2.314q-7.77-2.3-15.742-4.522a648.345,648.345,0,0,1-413.536-358.595c-39.463-86.687-58.813-182.256-57.583-276.6a643.306,643.306,0,0,1,63.585-270.811,650.734,650.734,0,0,0-65.824,236.643A659.784,659.784,0,0,0,163.665,1525,677.822,677.822,0,0,0,192.622,1658.369Z" transform="translate(-159.464 -651.162)" fill="#94d2ba" opacity="0.8"/>
    </g>
    <g id="Group_14" data-name="Group 14" transform="translate(149.839 670.921)">
      <g id="Group_13" data-name="Group 13" opacity="0.8">
        <path id="Path_23" data-name="Path 23" d="M342.566,894.967A705.442,705.442,0,0,1,575.138,724.7a716.775,716.775,0,0,1,139.2-46.8,711.24,711.24,0,0,1,438.628,41.769c92.164,39.965,176.658,99.5,245.049,174.745.105-.1.584.224,1.638,1.214,2.641,2.538,7.109,7.286,12.205,12.919l7.963,8.945c2.693,3.106,5.159,6.461,7.614,9.59a716.029,716.029,0,0,1,73.416,113.922l7.153,13.979,3.571,6.986,1.786,3.491,1.619,3.571q6.452,14.287,12.9,28.556,5.776,14.546,11.545,29.072c3.592,9.776,6.824,19.677,10.247,29.5a734.513,734.513,0,0,1,28.126,121.014l-1.728-12.279-.432-3.069-.57-3.047-1.154-6.089-4.614-24.347-5.729-24.092c-1-4-1.816-8.052-2.979-12.01l-3.436-11.882-3.435-11.88c-1.133-3.962-2.25-7.928-3.654-11.8l-7.967-23.386c-1.255-3.923-2.8-7.737-4.314-11.561l-4.522-11.481-4.52-11.477c-1.491-3.83-3.312-7.519-4.952-11.286-4.071-8.953-7.55-17.038-9.866-22.662-2.547-5.509-3.765-8.638-2.927-7.84a22.393,22.393,0,0,1,2.392,3.52c.58.985,1.259,2.139,2.024,3.444.73,1.323,1.458,2.839,2.279,4.474,3.252,6.554,7.389,15.289,11.641,24.678a733.469,733.469,0,0,1,42.035,130.354,713.111,713.111,0,0,1,16.751,137.876,690.494,690.494,0,0,1-10.049,134.544,681.717,681.717,0,0,1-32.711,120.594,727.041,727.041,0,0,1-955.5,435.672c-6.931-2.738-15.073-6.236-18.49-7.963-2.308-1.074-3.026-1.66-2.467-1.516.551.16,2.487.813,5.577,2.026a730.784,730.784,0,0,0,449.376,37.179,743.157,743.157,0,0,0,150.04-53.452l9.1-4.3,8.905-4.729q8.906-4.737,17.832-9.482c3.005-1.526,5.9-3.25,8.794-4.991l8.7-5.172c5.787-3.483,11.66-6.832,17.387-10.432q8.467-5.594,16.955-11.2l8.486-5.61c2.864-1.823,5.515-3.96,8.282-5.925,10.934-8.07,22.108-15.857,32.538-24.663l15.918-12.876q7.65-6.82,15.312-13.653l7.661-6.838c1.265-1.154,2.584-2.25,3.806-3.452l3.664-3.606q7.329-7.215,14.672-14.442c2.419-2.436,4.96-4.754,7.28-7.291l6.986-7.589q6.989-7.588,13.993-15.192c4.59-5.135,8.877-10.547,13.337-15.813l6.63-7.953c2.2-2.662,4.477-5.262,6.5-8.07a738.622,738.622,0,0,0,86.873-142l4.518-9.463,4.063-9.677q4.042-9.686,8.089-19.389l2.024-4.851,1.779-4.948,3.559-9.9c2.355-6.61,4.8-13.193,7.085-19.831q3.067-10.081,6.138-20.173c2.031-6.733,4.221-13.425,5.789-20.294,3.364-13.672,7.143-27.264,9.6-41.172q2.018-10.13,4.03-20.238,1.515-10.2,3.03-20.364c2.3-13.524,3.357-27.175,4.75-40.761q-.824,7.35-1.648,14.715l-.823,7.365c-.265,2.459-.529,4.917-.973,7.355q-2.367,14.654-4.748,29.379c-1.864,9.761-4.083,19.483-6.114,29.261l-1.566,7.328-1.921,7.258q-1.922,7.258-3.851,14.54a741.061,741.061,0,0,1-41.724,114.4c-1.631,3.919-3.865,9.006-6.56,14.933-1.364,2.958-2.828,6.132-4.371,9.481-1.594,3.324-3.125,6.9-5.127,10.405l-13.82,25.632-1.728,3.2-1.882,3.117-3.773,6.225-7.552,12.45-3.777,6.225-1.892,3.11-2.041,3.014-8.171,12.053-8.171,12.055c-1.323,2.039-2.789,3.972-4.26,5.9l-4.382,5.814c1.123-1.234,1.812-1.868,2.008-1.845.21.261-1.776,3.343-5.139,8.095-1.681,2.376-3.707,5.17-5.974,8.235-1.14,1.528-2.335,3.129-3.569,4.783s-2.67,3.24-4.059,4.919A710.638,710.638,0,0,1,1192.428,2015.3c-2.119,1.09-4.1,2.113-6.11,3.147l-5.069,2.639-5.182,2.411-10.366,4.818-10.368,4.818-5.19,2.393-5.293,2.16-21.179,8.636-5.3,2.142-5.392,1.9-10.786,3.81-10.79,3.808c-1.8.625-3.59,1.292-5.4,1.882l-5.48,1.646L1058.6,2068.1c-1.831.537-3.647,1.123-5.491,1.619l-5.552,1.383-11.111,2.765-11.111,2.765c-1.856.446-3.7.952-5.565,1.351l-5.616,1.117-22.468,4.462c-1.876.356-3.74.778-5.624,1.08l-5.666.848-11.333,1.69-11.333,1.691c-1.893.265-3.775.6-5.674.809l-5.7.574-22.814,2.288c-1.9.175-3.8.416-5.707.537l-5.725.3-11.452.593-11.454.592c-1.909.084-3.818.224-5.729.265l-5.735.019-22.946.072-5.74,0-5.731-.259-11.465-.523c-122.406-5.178-243.159-43.781-347.256-109.107-6.653-3.861-12.936-8.3-19.3-12.612-6.336-4.353-12.759-8.591-19.025-13.042l-18.4-13.925-9.191-6.98-8.846-7.416L392.148,1916.2l-16.955-15.682-8.465-7.86c-2.787-2.658-5.408-5.483-8.12-8.217L342.469,1867.9c-5.24-5.645-10.245-11.51-15.379-17.258l-7.653-8.665c-2.576-2.869-4.863-5.978-7.309-8.957l-14.446-18.066c-4.707-6.106-9.091-12.456-13.649-18.677l-6.776-9.381c-2.3-3.1-4.267-6.427-6.416-9.628l-12.631-19.4c-4.094-6.54-7.846-13.289-11.786-19.928l-5.84-10c-1.979-3.318-3.627-6.816-5.456-10.214l-10.712-20.545c-3.419-6.924-6.532-14-9.811-20.993l-4.857-10.522c-1.609-3.514-2.948-7.143-4.433-10.708l-8.7-21.494c-2.693-7.245-5.153-14.577-7.739-21.863l-3.835-10.948c-1.21-3.672-2.238-7.4-3.366-11.1l-6.616-22.244c-1.93-7.492-3.726-15.02-5.593-22.532l-2.773-11.273-2.259-11.391-4.464-22.8-3.382-22.991-1.677-11.5-1.135-11.568-2.238-23.143-1.144-23.232-.543-11.619-.008-11.635.025-23.273c.132-6.867.714-17.486,1.208-22.458.547-5.8.862-4.839.726,1.987.257-.22.716-2.033.64.24a725.906,725.906,0,0,0,180.279,507.013l8.365,9.448,4.18,4.723c1.393,1.574,2.917,3.026,4.367,4.546q8.813,9.017,17.616,18.029c2.87,3.067,6.015,5.853,9.082,8.716l9.231,8.556,9.224,8.55c3.1,2.818,6.392,5.42,9.576,8.14q9.64,8.061,19.272,16.11,10.007,7.573,20.006,15.135l5,3.781c1.652,1.277,3.328,2.52,5.077,3.663l10.354,7.046,10.346,7.038c3.452,2.339,6.857,4.748,10.463,6.842-3.7-2.216-7.173-4.764-10.693-7.217l-10.5-7.371-10.424-7.328c-3.446-2.457-6.692-5.166-10.027-7.723l-19.685-15.452q-9.359-8.153-18.562-16.165c-3.034-2.7-6.169-5.264-9.076-8.052l-8.64-8.353q-4.292-4.16-8.541-8.274-2.12-2.058-4.232-4.1c-1.417-1.352-2.81-2.724-4.112-4.174q-7.964-8.56-15.74-16.92c-2.549-2.82-5.238-5.478-7.618-8.385q-3.617-4.316-7.182-8.574a705.98,705.98,0,0,1-134.105-221.318,690.8,690.8,0,0,1-43.98-250.935l-.42,6.922c0-7.476.115-14.688.3-20.08a59.684,59.684,0,0,1,.52-6.523,8.111,8.111,0,0,1,.543-2.635c.327-.761.448,1.887.418,6.614.189,4.734.311,11.549.323,19.128a716.563,716.563,0,0,0,89.771,338.217,716.985,716.985,0,0,0,66.2,97.987,704.989,704.989,0,0,0,81.625,85.9,724.136,724.136,0,0,0,95.363,70.765l12.709,7.741,6.355,3.871c2.113,1.3,4.345,2.4,6.511,3.6l26.182,14.191,26.877,12.865c2.249,1.052,4.458,2.191,6.741,3.17l6.877,2.869,13.752,5.746a720.542,720.542,0,0,0,113.725,35.707,700,700,0,0,0,466.2-58.975l13.318-6.927c4.417-2.353,8.947-4.5,13.215-7.118l25.927-15.159,25.19-16.363c2.129-1.321,4.139-2.814,6.169-4.279l6.093-4.392,12.187-8.782a704.972,704.972,0,0,0,89.724-79.749c55.462-57.948,99.666-126.292,132.207-199.528,51.547-116.679,69.3-246.214,53-371.01-15.949-124.928-66.681-244.874-145.015-344-2.9-3.695-5.739-7.3-8.48-10.786q-1.022-1.311-2.022-2.6-1.059-1.24-2.094-2.458l-4.055-4.758c-5.264-6.211-9.948-11.847-13.812-16.618-1.886-2.427-3.763-4.46-5.336-6.3s-2.915-3.423-3.971-4.738c-2.108-2.627-3.1-4.141-2.715-4.256.428-.082,2.158,1.208,4.929,3.623,1.384,1.206,3.03,2.693,4.9,4.431.93.874,1.946,1.784,2.96,2.8q1.487,1.561,3.129,3.289c4.361,4.62,9.457,10.148,15.04,16.316l4.273,4.74c1.423,1.642,2.779,3.4,4.205,5.143l8.71,10.886,7.3,9.2c2.475,3.034,4.614,6.324,6.939,9.471l13.682,19.072c4.349,6.5,8.519,13.116,12.787,19.662l6.367,9.844,5.881,10.136c3.9,6.77,7.9,13.481,11.712,20.292l10.773,20.792,2.695,5.2c.913,1.724,1.8,3.462,2.58,5.25l4.882,10.636,4.884,10.633c1.611,3.551,3.326,7.056,4.707,10.706l8.739,21.7,2.187,5.423c.683,1.825,1.292,3.676,1.944,5.513l3.847,11.041,3.849,11.041c.623,1.845,1.323,3.666,1.882,5.532l1.658,5.606,6.639,22.417c1.189,3.713,1.985,7.533,2.944,11.308l2.783,11.354,2.781,11.351c.955,3.779,1.549,7.636,2.341,11.45l4.479,22.946c1.21,7.7,2.271,15.421,3.417,23.129l1.672,11.572,1.129,11.639c.72,7.762,1.588,15.513,2.189,23.287l1.142,23.37.286,5.844c.119,1.946.185,3.9.152,5.846l0,11.705c.488,31.224-2.047,62.439-5.8,93.476l-3.425,23.219c-.3,1.933-.543,3.875-.882,5.8l-1.144,5.76-2.287,11.52-2.288,11.526c-.405,1.915-.708,3.855-1.2,5.752l-1.43,5.7-5.725,22.82c-8.549,30.171-18.218,60.168-30.812,89.068l-4.02,9.6c-1.323,3.2-2.652,6.406-4.213,9.5l-8.992,18.739-4.491,9.364c-1.584,3.077-3.287,6.093-4.925,9.14l-9.91,18.235-2.477,4.557c-.841,1.51-1.786,2.96-2.674,4.442l-5.406,8.846-10.8,17.686-11.668,17.111-5.834,8.55c-.983,1.417-1.925,2.864-2.937,4.258l-3.129,4.121A716.943,716.943,0,0,1,1322.47,1918.93c66.077-55.038,121.487-122.657,163.486-197.216,16.114-28.568,29.348-58.773,41.452-89.456q4.206-11.639,8.418-23.306c.689-1.948,1.436-3.878,2.08-5.842l1.813-5.933,3.633-11.878c5.209-15.739,8.77-31.974,12.958-48.066,1.755-8.128,3.3-16.309,4.972-24.474.788-4.09,1.711-8.159,2.392-12.273l1.856-12.382,1.862-12.392c.611-4.135,1.319-8.26,1.648-12.436q1.259-12.488,2.518-25.007c.506-4.166.673-8.36.885-12.553l.654-12.586.656-12.6c.142-4.2.064-8.418.109-12.629-.025-8.426.181-16.865-.023-25.308q-.559-12.654-1.119-25.342a723.27,723.27,0,0,0-17.313-118.991c-4.339-19.471-9.957-38.564-15.838-57.508q-4.826-14.08-9.644-28.13l-10.95-27.587a721.871,721.871,0,0,0-54.62-104.82,673.87,673.87,0,0,0-71.164-94.149c-52.861-58.424-115.471-108.648-186.057-146.5l-13.191-7.184c-4.425-2.349-9.013-4.392-13.516-6.606q-6.788-3.256-13.588-6.519l-6.8-3.263c-2.292-1.039-4.635-1.962-6.951-2.95-9.3-3.865-18.583-7.829-27.949-11.623q-14.272-5.126-28.6-10.267a703.426,703.426,0,0,0-119.284-28.564,657.181,657.181,0,0,0-115.92-7.2,729.407,729.407,0,0,0-109.16,11.164,751.383,751.383,0,0,0-101.444,26.924q-12.1,4.453-24.125,8.881c-4.038,1.387-7.914,3.185-11.845,4.814q-5.875,2.49-11.738,4.976c-3.9,1.668-7.817,3.281-11.687,4.989q-5.718,2.759-11.426,5.509l-11.393,5.493c-3.8,1.821-7.6,3.612-11.261,5.694q-11.081,6.014-22.129,12.014c-3.728,1.913-7.221,4.246-10.825,6.375l-10.728,6.513-10.7,6.521-10.389,7.019L482.1,799.285c-3.45,2.349-6.968,4.6-10.261,7.179q-10.029,7.5-20.072,15.016c-3.4,2.429-6.571,5.167-9.8,7.825l-9.681,8-9.691,8c-3.139,2.784-6.213,5.647-9.325,8.468s-6.213,5.661-9.323,8.5l-4.668,4.252-2.333,2.129-2.23,2.244-17.9,17.984c-1.481,1.516-3.024,2.972-4.458,4.538l-4.267,4.735q-4.274,4.734-8.558,9.486t-8.589,9.51c-2.814,3.219-5.447,6.612-8.19,9.918q-4.076,4.99-8.169,10l-4.1,5.009c-1.383,1.66-2.742,3.341-4,5.11q-7.714,10.445-15.5,20.991c-1.284,1.765-2.631,3.489-3.867,5.3l-3.639,5.48q-3.644,5.483-7.309,11t-7.354,11.043c-2.364,3.75-4.569,7.62-6.873,11.438q-3.425,5.746-6.873,11.524c-2.248,3.88-4.729,7.638-6.747,11.683-5.9,11.2-12.845,23.472-15.7,27.677-1.454,2.327-1.65,2.15-.771-.047.9-2.148,2.932-6.225,5.871-11.806A695.053,695.053,0,0,1,541.386,759.645l11.428-6.184c3.824-2.041,7.587-4.219,11.541-6.015l23.538-11.306,2.952-1.418,3.012-1.279,6.036-2.551,12.1-5.11c4.055-1.66,8.044-3.514,12.168-5.021s8.255-3.028,12.39-4.547c16.437-6.4,33.446-11.384,50.481-16.677L713,692.758c2.177-.549,4.339-1.169,6.532-1.662l6.606-1.388,13.248-2.783c4.429-.911,8.854-1.895,13.308-2.752q6.724-1.077,13.468-2.154l13.524-2.162c2.261-.34,4.513-.77,6.789-1.035l6.84-.755c9.13-.975,18.29-2.09,27.513-2.958q13.874-.845,27.86-1.7a724.1,724.1,0,0,1,114.124,4.485c10.2,1.463,20.436,2.7,30.588,4.361q15.166,2.892,30.3,5.773c10.014,2.267,19.959,4.812,29.928,7.21,2.481.642,5,1.142,7.449,1.9l7.363,2.2,14.719,4.4a725.1,725.1,0,0,1,113.287,46.2q13.435,7.276,26.854,14.549c2.263,1.166,4.421,2.516,6.591,3.845l6.513,3.973,13.022,7.949,6.509,3.977c2.154,1.35,4.215,2.843,6.326,4.256l12.59,8.6c4.18,2.89,8.428,5.684,12.549,8.655l12.131,9.227a692.564,692.564,0,0,1,90.316,81.6,708.324,708.324,0,0,1,187.078,444.52q.364,8.452.728,16.875c.09,2.808.313,5.61.3,8.418l-.041,8.412q-.04,8.409-.08,16.8c-.029,2.8,0,5.594-.072,8.385l-.448,8.371a738.189,738.189,0,0,0-2.629-109.543,769.936,769.936,0,0,0-19.191-106.879l-7.379-25.32c-1.136-4.248-2.715-8.352-4.1-12.52l-4.281-12.458c-1.455-4.141-2.792-8.325-4.341-12.431l-4.863-12.232-4.863-12.23-2.436-6.112-2.717-5.99-10.87-23.954c-3.888-7.852-7.965-15.614-11.937-23.423-3.841-7.885-8.365-15.394-12.709-23-4.4-7.576-8.583-15.283-13.464-22.561l-14.207-22.1-15.227-21.415-3.81-5.353c-1.282-1.773-2.689-3.456-4.026-5.188l-8.128-10.325-8.13-10.325c-1.323-1.747-2.761-3.4-4.209-5.042l-4.312-4.958c-5.779-6.585-11.436-13.285-17.323-19.774l-18.218-18.965-4.557-4.742-4.775-4.522-9.574-9.025-9.576-9.025c-1.57-1.537-3.25-2.946-4.923-4.365l-5.009-4.271c-6.7-5.668-13.316-11.444-20.092-17.025L1294.527,807.2l-5.225-4.018c-1.732-1.356-3.594-2.531-5.384-3.8l-10.848-7.5c-7.26-4.962-14.369-10.167-21.958-14.637l-22.467-13.9c-7.659-4.349-15.421-8.533-23.135-12.806-3.882-2.092-7.688-4.334-11.635-6.3l-11.907-5.791-11.917-5.791c-3.977-1.921-7.916-3.929-12.024-5.573q-12.207-5.181-24.431-10.37c-4.042-1.812-8.218-3.283-12.38-4.8l-12.487-4.565-12.5-4.565c-4.2-1.43-8.465-2.656-12.7-3.995l-12.728-3.934-6.369-1.964c-2.119-.677-4.248-1.315-6.412-1.825l-25.875-6.583c-2.164-.531-4.308-1.138-6.486-1.6l-6.552-1.323L1006,678.9l-13.127-2.639c-4.4-.753-8.827-1.352-13.244-2.033l-13.265-1.987c-4.427-.625-8.836-1.43-13.3-1.775a719.094,719.094,0,0,0-164.951.1c-3.411.271-6.785.843-10.167,1.335l-10.14,1.506L757.67,674.92c-3.37.537-6.766.913-10.1,1.652l-20.064,3.981-10.023,1.994c-3.318.765-6.614,1.627-9.92,2.438l-19.809,4.935c-3.314.761-6.571,1.745-9.823,2.74l-9.765,2.933c-6.495,2-13.049,3.81-19.486,5.974l-19.208,6.789-9.6,3.4c-3.189,1.16-6.3,2.53-9.451,3.785l-18.85,7.692-4.709,1.925-4.616,2.144-9.228,4.291c-6.141,2.886-12.333,5.661-18.428,8.64L536.56,749.68l-9.017,4.727c-3.036,1.518-5.885,3.38-8.838,5.054-11.687,6.908-23.559,13.526-34.793,21.2L466.84,791.818,450.3,803.782c-11.205,7.749-21.648,16.527-32.343,25-5.417,4.151-10.473,8.743-15.6,13.26L386.978,855.6c-5,4.666-9.844,9.512-14.777,14.264l-7.377,7.165-3.691,3.584c-1.2,1.228-2.349,2.5-3.526,3.75-4.7,5.094-9.375,10.084-13.812,14.752-2.226,2.327-4.386,4.581-6.451,6.735-2.024,2.191-3.861,4.365-5.651,6.346-7.1,7.974-12.512,13.707-14.585,15.363s-.311-1.218,4.219-7.206c2.267-2.991,5.221-6.76,8.733-11.121C333.473,904.79,337.832,900.1,342.566,894.967ZM826.124,2085.777a725.214,725.214,0,0,0,144.179-7.8,702.544,702.544,0,0,1-281.881-15.219,712.708,712.708,0,0,1-254.895-125.854c54.7,43.451,117.734,79.205,184.7,104.75A691.811,691.811,0,0,0,826.124,2085.777Z" transform="translate(-149.839 -660.767)" fill="#cfeae0"/>
        <path id="Path_24" data-name="Path 24" d="M377.326,1325.6c5.976,2.736,12.213,4.847,18.387,7.173q9.279,3.437,18.6,6.885c6.254,2.173,12.631,4.008,18.953,6.03l9.51,2.969c3.18.959,6.32,2.067,9.56,2.819,25.688,6.828,51.67,12.865,77.821,16.583a650.08,650.08,0,0,0,153.194,5.1c4.635-.411,7.418-.973,5.011-.924-2.452.124-7.912.269-13.316.607a642.944,642.944,0,0,1-147.444-5.933,652.537,652.537,0,0,1-147.064-40.8c-5.594-2.382-10.224-4.192-10.761-4.168C368.8,1321.744,372.689,1323.6,377.326,1325.6Z" transform="translate(82.511 38.202)" fill="#cfeae0"/>
        <path id="Path_25" data-name="Path 25" d="M651.244,2046.1a710.631,710.631,0,0,0,228.108-85.422,700.866,700.866,0,0,0,101.238-72.2,674.664,674.664,0,0,0,87.481-90.138,708.486,708.486,0,0,0,120.82-222.938,683.351,683.351,0,0,0,28.334-125.5,691.484,691.484,0,0,0,4.223-129.354,744.319,744.319,0,0,0-14.217-103.931,734.119,734.119,0,0,0-29.543-99.644q-4.771-12.047-9.537-24.075c-3.477-7.891-7.093-15.717-10.625-23.573-3.378-7.935-7.556-15.474-11.417-23.164l-5.878-11.489c-.94-1.936-2.026-3.792-3.1-5.653l-3.213-5.591c-16.591-30.138-36.021-58.587-57.076-85.688l-7.97-10.115-3.985-5.061c-1.362-1.658-2.808-3.246-4.209-4.873l-16.924-19.424c-5.807-6.326-11.878-12.411-17.8-18.634l-4.47-4.645c-1.479-1.559-2.975-3.1-4.569-4.544l-9.4-8.832-9.4-8.836c-1.582-1.456-3.1-2.987-4.738-4.384l-4.921-4.176-19.7-16.727c-6.789-5.308-13.678-10.5-20.519-15.76l-5.141-3.935-2.575-1.963-2.67-1.835-10.681-7.342L916.474,789.3c-1.8-1.205-3.534-2.5-5.377-3.633l-5.532-3.4-22.154-13.621c-7.533-4.3-15.219-8.362-22.831-12.563-3.839-2.045-7.587-4.265-11.5-6.168L837.3,744.246l-11.786-5.676-5.9-2.841c-1.979-.922-4.018-1.71-6.023-2.571L789.4,723.006l-3.032-1.265-3.09-1.113-6.186-2.23-12.382-4.462c-4.141-1.456-8.237-3.055-12.423-4.4l-12.629-3.834a669.874,669.874,0,0,0-134.466-26.77,649.926,649.926,0,0,0-130.756.905c-7.161.78-11.146,1.477-8.488,1.506,3.115.027,10.825-.593,18.743-1.442a666.054,666.054,0,0,1,263.845,30.055,681.95,681.95,0,0,1,401.43,347.357,690.783,690.783,0,0,1,70.1,261.976,679.47,679.47,0,0,1-31.929,255.4A704.51,704.51,0,0,1,1066,1799.567a680.8,680.8,0,0,1-88.847,90.9,699.013,699.013,0,0,1-102.991,72.341,711.528,711.528,0,0,1-231.194,83.844c-4.287.691-6.577,1.261-4.941,1.224C640.773,2047.627,647.03,2046.928,651.244,2046.1Z" transform="translate(183.471 -644.582)" fill="#cfeae0"/>
        <path id="Path_26" data-name="Path 26" d="M797.812,760.154A678.283,678.283,0,0,1,899.92,868.545a692.049,692.049,0,0,1,75.992,128.175,681.218,681.218,0,0,1,46.875,142.209,685.8,685.8,0,0,1,14.332,150.341l-.1,10.263c.016,3.421-.341,6.826-.492,10.234q-.592,10.221-1.179,20.412l-.294,5.093-.541,5.071-1.078,10.133c-.763,6.748-1.319,13.514-2.232,20.232-3.968,26.821-8.535,53.546-15.5,79.825-1.718,6.573-3.252,13.2-5.108,19.753q-3,9.764-6,19.56l-2.993,9.808c-.985,3.277-2.279,6.456-3.4,9.694q-3.484,9.68-6.98,19.4l-1.742,4.867c-.613,1.611-1.315,3.189-1.969,4.787l-3.987,9.577q-4,9.59-8.017,19.234-4.477,9.446-8.986,18.951c-3.022,6.329-5.873,12.777-9.348,18.934q-6.693,12.525-13.281,24.859L929.58,1653.77q-1.774,2.959-3.546,5.91c-1.239,1.93-2.545,3.81-3.812,5.715q-3.823,5.693-7.628,11.358t-7.585,11.306c-2.617,3.691-5.388,7.258-8.064,10.883l-8.074,10.808c-2.693,3.59-5.3,7.237-8.235,10.619l-17.077,20.6c-1.386,1.742-2.9,3.374-4.406,5l-4.505,4.908-9,9.807-4.495,4.9-2.249,2.45-2.36,2.339-9.467,9.321c-12.38,12.686-25.869,24.188-39.208,35.939q-10.4,8.35-20.841,16.738c-3.427,2.872-7.093,5.441-10.722,8.068s-7.27,5.256-10.913,7.894a677.478,677.478,0,0,1-94.622,56.311c-4.464,2.164-8.976,4.259-10.016,5.013-.082.263,3.168-1.022,7.77-3.083a677.884,677.884,0,0,0,193.3-139.847l20.078-21.755c6.423-7.493,12.668-15.141,19.019-22.707,1.559-1.915,3.215-3.752,4.694-5.731l4.454-5.931,8.918-11.864,4.464-5.935,2.23-2.973,2.08-3.082q4.163-6.163,8.332-12.337t8.35-12.351c2.687-4.186,5.18-8.5,7.786-12.756q3.873-6.4,7.751-12.816c1.277-2.148,2.629-4.255,3.849-6.439l3.557-6.62q3.564-6.622,7.138-13.265l3.582-6.645c1.2-2.214,2.417-4.419,3.452-6.723q6.5-13.663,13.047-27.426c62.127-137.7,77.445-292.329,45.53-436.529l-6.468-26.912c-2.4-8.906-5.118-17.725-7.657-26.591l-1.934-6.643c-.7-2.2-1.49-4.365-2.228-6.55l-4.505-13.079c-1.518-4.355-2.964-8.737-4.54-13.069l-5.13-12.851a659.267,659.267,0,0,0-48.8-99.267,707.872,707.872,0,0,0-64.34-90.259l-18.393-20.845c-1.5-1.765-3.106-3.438-4.744-5.081l-4.859-4.978-9.722-9.957c-6.334-6.791-13.341-12.9-20.121-19.253l-10.232-9.467c-3.468-3.092-7.112-5.988-10.66-8.994-4.832-4.075-7.941-6.418-8.3-6.453C789.626,753.022,793.549,756.579,797.812,760.154Z" transform="translate(371.257 -563.689)" fill="#cfeae0"/>
        <path id="Path_27" data-name="Path 27" d="M1089.217,1149.242a764.038,764.038,0,0,1-86.471,156.348,754.155,754.155,0,0,1-122.772,131.471q-8.72,7-17.41,13.966c-2.907,2.308-5.766,4.676-8.706,6.931q-4.5,3.268-8.982,6.527-8.97,6.523-17.9,13.014c-6.1,4.106-12.271,8.087-18.377,12.123l-9.163,6.022-2.287,1.5-2.351,1.39-4.7,2.781L771.376,1512.4c-1.559.909-3.1,1.864-4.674,2.736l-4.775,2.535-9.527,5.057-9.49,5.04c-3.168,1.658-6.275,3.423-9.527,4.875a782.623,782.623,0,0,1-154.058,56.558c-5.353,1.469-6.062,1.909-2.432,1.222,3.561-.669,11.055-2.415,16.067-3.777l9.381-2.5,4.713-1.25c1.568-.437,3.113-.967,4.674-1.446l18.8-5.923,9.48-2.978c3.145-1.066,6.258-2.266,9.4-3.395q9.412-3.435,18.922-6.9l4.76-1.734c1.576-.616,3.129-1.3,4.7-1.942q4.694-1.959,9.409-3.929,9.427-3.944,18.938-7.926,9.325-4.4,18.731-8.842c6.262-2.973,12.617-5.818,18.728-9.214,12.329-6.579,24.912-12.9,36.974-20.352,6.083-3.625,12.251-7.157,18.321-10.882l17.93-11.749,9-5.894c2.983-2,5.84-4.189,8.772-6.277q8.745-6.335,17.531-12.7c2.97-2.063,5.76-4.374,8.593-6.632l8.5-6.795,8.513-6.805c2.849-2.259,5.7-4.522,8.387-6.982a746.451,746.451,0,0,0,119.131-128.911,752.729,752.729,0,0,0,84.176-152.17c1.057-2.543,2.076-4.995,3.018-7.262.794-2.323,1.522-4.454,2.154-6.3a50.057,50.057,0,0,0,2-6.9c-.109-.29-.9,1.335-2.16,4.378C1093.117,1139.465,1091.58,1144,1089.217,1149.242Z" transform="translate(299.25 -162.557)" fill="#cfeae0"/>
        <path id="Path_28" data-name="Path 28" d="M549.108,1803.942a715.407,715.407,0,0,0,152.818,54.492,702.311,702.311,0,0,0,160.787,17.3l10.1.009,10.084-.488,20.156-.971c3.364-.091,6.7-.494,10.047-.806l10.031-.975,10.025-.973c3.337-.352,6.69-.566,10-1.125l19.905-2.915,9.942-1.456,9.858-1.921,19.691-3.867c3.294-.578,6.527-1.43,9.772-2.23l9.724-2.4c51.82-12.825,102.042-31.2,148.833-55.463a698.9,698.9,0,0,0,127.339-81.968c2.467-1.973,4.972-3.9,7.408-5.912l7.124-6.25,14.246-12.5,3.559-3.125,3.409-3.287,6.8-6.6,13.592-13.191c4.4-4.523,8.63-9.21,12.952-13.806,4.265-4.649,8.677-9.167,12.816-13.923l12.17-14.487,6.081-7.241c1-1.214,2.049-2.395,3.018-3.637l2.851-3.771c8.77-11.5,15.513-21.063,15.069-21.384-.426-.342-7.9,8.718-16.651,20.183A673.734,673.734,0,0,1,1295.908,1716.9c1.062-1.064,1.4-1.564.952-1.447a699.462,699.462,0,0,0,249.719-455.846c.981-9.8,1.422-17.227,1.066-17.153-.364-.111-1.44,7.768-2.415,17.486a690.377,690.377,0,0,1-29.994,134.373,702.959,702.959,0,0,1-55.846,125.727,694.492,694.492,0,0,1-178.633,206.761q-2.018,1.549-4.187,3.213c-1.456,1.09-3.018,2.131-4.579,3.253l-9.745,6.984a700.993,700.993,0,0,1-98.372,59.638,719.164,719.164,0,0,1-106.434,42.235c-73.03,22.7-150.209,32.771-228.429,30.115l-20.876-.969c-3.483-.078-6.933-.572-10.395-.86l-10.372-1-10.362-1-5.178-.5c-1.72-.214-3.429-.5-5.143-.741l-20.547-3.038c-3.415-.545-6.857-.921-10.243-1.606l-10.16-2.032q-10.155-2.031-20.294-4.057c-6.715-1.549-13.367-3.343-20.045-5l-10-2.532-5-1.273-4.925-1.516a708.713,708.713,0,0,1-150.861-63.837,698.261,698.261,0,0,1-236.913-221.809c-47.782-72.359-82.785-152.643-101.38-238.9q-2.638-13.624-5.289-27.323c-1.508-9.173-2.687-18.412-4.042-27.61l-.987-6.9c-.276-2.306-.451-4.625-.679-6.935q-.651-6.933-1.3-13.851t-1.278-13.808q-.321-6.912-.638-13.793c-1.216-18.336-.905-36.507-.907-54.3q.574-13.337,1.132-26.377.139-3.258.274-6.5.284-3.228.566-6.431.549-6.413,1.088-12.73a719.632,719.632,0,0,1,23.872-131.2,731.348,731.348,0,0,1,43.7-116.934c2.1-4.542,2.166-5.063.245-1.716-1.384,2.462-4.431,8.708-6.116,12.53a714.94,714.94,0,0,0-42.629,119.137A686.443,686.443,0,0,0,163.081,1112.2a702.619,702.619,0,0,0-.677,120l1.444,14.888.722,7.441c.241,2.477.442,4.962.852,7.42q2.16,14.781,4.316,29.541,2.845,14.642,5.686,29.261c.845,4.9,2.2,9.679,3.345,14.505l3.561,14.446a703.666,703.666,0,0,0,39.479,111.769,663.165,663.165,0,0,0,57.722,103.017l3.092,4.861,3.31,4.7,6.612,9.37q3.3,4.681,6.581,9.346c1.1,1.551,2.172,3.125,3.3,4.651l3.5,4.491q6.989,8.986,13.941,17.922c1.169,1.481,2.292,3,3.5,4.45l3.684,4.289,7.354,8.568,7.342,8.562c1.232,1.419,2.427,2.87,3.686,4.262l3.872,4.085q7.739,8.177,15.468,16.342l3.865,4.084,4.063,3.884,8.126,7.77,8.128,7.777,4.067,3.89c1.376,1.274,2.827,2.465,4.238,3.7,11.4,9.761,22.543,19.893,34.674,28.906l8.955,6.961c3.014,2.288,5.912,4.744,9.076,6.84l18.727,13.059c3.162,2.135,6.206,4.464,9.481,6.451q4.879,3.034,9.774,6.077c6.546,4.03,13.051,8.188,19.714,12.144q10.189,5.6,20.471,11.247c3.433,1.87,6.855,3.789,10.327,5.626Q543.77,1801.369,549.108,1803.942Z" transform="translate(-138.923 -457.557)" fill="#cfeae0"/>
      </g>
    </g>
  </g>
</svg>
