<svg xmlns="http://www.w3.org/2000/svg" width="133.642" height="133.646" viewBox="0 0 133.642 133.646">
    <defs>
        <style>
            .cls-1{fill:#93d1ba}
        </style>
    </defs>
    <g id="_003-balloon" data-name="003-balloon" transform="translate(-.5)">
        <path id="Path_30" d="M217.215 117.191L220 113.9l5.1 4.309-2.783 3.292zm0 0" class="cls-1" data-name="Path 30" transform="translate(-158.322 -83.209)"/>
        <path id="Path_31" d="M179.157 55.279l2.787-3.291-7.565-6.4a4.465 4.465 0 0 1-1.58-3.4v-1.4a4.484 4.484 0 0 1 4.369-4.462l-.088-4.311a8.821 8.821 0 0 0-8.592 8.773v1.4a8.76 8.76 0 0 0 3.106 6.7zm0 0" class="cls-1" data-name="Path 31" transform="translate(-122.725 -23.383)"/>
        <path id="Path_32" d="M99.414 153.665l1.507-4.036 6.14 2.292-1.507 4.038zm0 0" class="cls-1" data-name="Path 32" transform="translate(-72.262 -109.312)"/>
        <path id="Path_33" d="M36.936 93.358l-.47-1.306a4.474 4.474 0 0 1 2.507-5.652l-1.582-4.012a8.821 8.821 0 0 0-4.982 11.129l.469 1.3a8.667 8.667 0 0 0 5.133 5.21l9.111 3.4 1.507-4.038-9.114-3.4a4.369 4.369 0 0 1-2.579-2.631zm0 0" class="cls-1" data-name="Path 33" transform="translate(-22.937 -60.185)"/>
        <path id="Path_34" d="M369.2 151.921l6.141-2.292 1.506 4.037-6.142 2.292zm0 0" class="cls-1" data-name="Path 34" transform="translate(-269.352 -109.312)"/>
        <path id="Path_35" d="M414.216 82.375l-1.582 4.012a4.475 4.475 0 0 1 2.509 5.656l-.475 1.308a4.372 4.372 0 0 1-2.58 2.629l-9.112 3.4 1.506 4.037 9.11-3.4a8.672 8.672 0 0 0 5.133-5.21l.475-1.307a8.823 8.823 0 0 0-4.984-11.125zm0 0" class="cls-1" data-name="Path 35" transform="translate(-294.031 -60.179)"/>
        <path id="Path_36" d="M122.912 14.078a16.766 16.766 0 0 0-13.1.569l-.543.257-.261-.572a17.071 17.071 0 0 0-9.637-8.964 16.806 16.806 0 0 0-7.685-.908A17.347 17.347 0 0 0 67.8 5.1l-.479.479-.48-.479a17.347 17.347 0 0 0-23.893-.64 16.769 16.769 0 0 0-7.682.908 17.071 17.071 0 0 0-9.639 8.964l-.261.572-.545-.257a16.77 16.77 0 0 0-13.091-.569 17.39 17.39 0 0 0-10.2 22.181L2 37.565a17.171 17.171 0 0 0 10.156 10.323l25.339 9.457c1.134 2.818 7.1 16.455 22.306 33.784l-9.284-3.914a12.624 12.624 0 0 0-13.955 2.807 13.062 13.062 0 0 0 0 18.268 12.619 12.619 0 0 0 13.953 2.81l9.544-4.025c.222.205.462.393.7.578l-6.882 18.933a4.183 4.183 0 0 1-8.114-1.429v-.259a4.186 4.186 0 0 1 4.182-4.182h2.285V116.4h-2.285a8.5 8.5 0 0 0-8.493 8.493v.257a8.493 8.493 0 0 0 16.475 2.9l6.726-18.494a10.485 10.485 0 0 0 2.666.377 10.674 10.674 0 0 0 2.666-.373l6.726 18.5a8.494 8.494 0 0 0 16.475-2.9v-.259a8.5 8.5 0 0 0-8.493-8.493h-2.285v4.311h2.285a4.186 4.186 0 0 1 4.182 4.182v.257a4.183 4.183 0 0 1-8.114 1.429l-6.882-18.933c.239-.185.477-.373.7-.578l9.544 4.025a12.619 12.619 0 0 0 13.955-2.807 13.062 13.062 0 0 0 0-18.268 12.622 12.622 0 0 0-13.958-2.807l-9.54 4.018c-.132-.121-.277-.226-.415-.341 14.414-16.482 20.472-29.617 21.95-33.168l26.371-9.842a17.171 17.171 0 0 0 10.153-10.323l.47-1.3a17.4 17.4 0 0 0-10.197-22.185zM54.539 4.311a13.01 13.01 0 0 1 9.254 3.832l3.527 3.527 3.526-3.527a13.088 13.088 0 0 1 22.34 9.257v1.4a13.063 13.063 0 0 1-4.632 9.988L67.319 46.754 46.085 28.786a13.058 13.058 0 0 1-4.633-9.986v-1.4A13.1 13.1 0 0 1 54.539 4.311zM63.7 89.049C50.338 74 44.071 61.527 42.071 57.067l9.922-17.635 13.17 11.144V88.6a10.468 10.468 0 0 0-1.463.449zM6.06 36.11l-.47-1.31a13.067 13.067 0 0 1 7.635-16.679 12.5 12.5 0 0 1 9.753.424l4.487 2.121 2.081-4.535a12.79 12.79 0 0 1 7.217-6.72 12.43 12.43 0 0 1 2.691-.645 17.266 17.266 0 0 0-2.313 8.634v1.4a17.367 17.367 0 0 0 6.16 13.28l5.342 4.52L39.2 53.379 13.66 43.85a12.872 12.872 0 0 1-7.6-7.74zm42.781 71.011a8.329 8.329 0 0 1-9.209-1.858 8.734 8.734 0 0 1 0-12.214 8.317 8.317 0 0 1 9.206-1.858l8.625 3.636A10.446 10.446 0 0 0 56.762 97h-15.31v4.311h15.307a10.765 10.765 0 0 0 .7 2.172zm12.011-7.964a6.467 6.467 0 1 1 6.467 6.467 6.475 6.475 0 0 1-6.466-6.467zM85.8 91.192a8.326 8.326 0 0 1 9.209 1.858 8.732 8.732 0 0 1 0 12.214 8.318 8.318 0 0 1-9.206 1.858l-8.624-3.636a10.446 10.446 0 0 0 .705-2.172h15.302V97H77.879a10.7 10.7 0 0 0-.705-2.172zM69.475 88.6V50.576l13.17-11.144 9.433 16.762c-1.452 3.424-7.54 16.5-21.825 32.64-.263-.074-.509-.182-.778-.234zm59.574-53.8l-.47 1.306a12.88 12.88 0 0 1-7.6 7.743l-25.538 9.532L86 36.6l5.342-4.521A17.367 17.367 0 0 0 97.5 18.8v-1.4a17.269 17.269 0 0 0-2.313-8.633 12.5 12.5 0 0 1 2.694.642 12.8 12.8 0 0 1 7.215 6.721l2.08 4.535 4.486-2.121a12.515 12.515 0 0 1 9.757-.425 13.078 13.078 0 0 1 7.63 16.681zm0 0" class="cls-1" data-name="Path 36"/>
    </g>
</svg>
