<?xml version="1.0" encoding="utf-8"?>
<!-- Generator: Adobe Illustrator 23.0.3, SVG Export Plug-In . SVG Version: 6.00 Build 0)  -->
<svg version="1.1" id="Layer_1" xmlns="http://www.w3.org/2000/svg" xmlns:xlink="http://www.w3.org/1999/xlink" x="0px" y="0px"
	 viewBox="0 0 133.9 133.9" style="enable-background:new 0 0 133.9 133.9;" xml:space="preserve">
<style type="text/css">
	.st0{fill:#FFFFFF;}
	.st1{fill:#4D4D4A;}
</style>
<g id="Group_36" transform="translate(-748 -5706)">
	<g id="Group_35" transform="translate(117 1566)">
		<circle id="Ellipse_2" class="st0" cx="698" cy="4207" r="67"/>
	</g>
	<g>
		<path class="st1" d="M849,5779.9c-0.1,10.5-6.9,19.8-16.8,23.3l0.9,2.6c11-3.8,18.5-14.2,18.7-25.8L849,5779.9z"/>
		<path class="st1" d="M848.9,5777.4l2.7-0.2c-0.1-1-0.2-1.9-0.4-2.9l-2.7,0.5C848.7,5775.6,848.8,5776.5,848.9,5777.4z"/>
		<path class="st1" d="M850.4,5771.4c-0.3-1-0.7-1.9-1.1-2.9l-2.5,1.1c0.4,0.8,0.7,1.7,1,2.6L850.4,5771.4z"/>
		<path class="st1" d="M849,5757.8l-10.6-12.2l7.9-14.5v-3.1h-5.5c-2.9,0-4.3,1.8-5.5,3.2c-1.2,1.4-1.9,2.2-3.4,2.2
			c-1.5,0-2.2-0.8-3.4-2.2c-1.2-1.4-2.6-3.2-5.5-3.2c-2.9,0-4.3,1.8-5.5,3.2c-1.2,1.4-1.9,2.2-3.4,2.2c-1.5,0-2.2-0.8-3.4-2.2
			c-1.2-1.4-2.6-3.2-5.5-3.2h-5.5v3.1l5.5,10.1c-0.1,0.1-0.2,0.2-0.3,0.4l-2.9-1c-0.5-0.2-1-0.3-1.5-0.3c-2.7,0-4.9,2.2-4.9,4.9v3.9
			c0,2.6,2.1,4.8,4.7,4.9l-3.3,3.8c-1.4,1.6-2.7,3.4-3.7,5.2c-0.9-0.5-2-0.8-3.1-0.8c-3.8,0-6.8,3.1-6.8,6.8v9.6
			c-6.6,2.7-10.9,9.2-10.9,16.4c0,9.8,8,17.8,17.8,17.8c5.2,0,9.8-2.2,13.1-5.8c5.5,3.8,11.9,5.8,18.7,5.8h2
			c18.3,0,33.2-14.9,33.2-33.2C857.2,5771.6,854.3,5763.8,849,5757.8z M805.2,5730.8c1.5,0,2.2,0.8,3.4,2.2c1.2,1.4,2.6,3.2,5.5,3.2
			c2.9,0,4.3-1.8,5.5-3.2c1.2-1.4,1.9-2.2,3.4-2.2c1.5,0,2.2,0.8,3.4,2.2c1.2,1.4,2.6,3.2,5.5,3.2c2.9,0,4.3-1.8,5.5-3.2
			c1.2-1.4,1.9-2.2,3.4-2.2h2.5l-7.5,13.7h-4.7c-0.4-2.3-2.4-4.1-4.8-4.1c-0.5,0-1,0.1-1.5,0.3l-2.9,1c-1.1-1.5-2.9-2.6-4.9-2.6
			h-0.3c-1.2,0-2.3,0.3-3.3,1c-1-0.6-2.1-1-3.3-1h-0.3c-0.9,0-1.7,0.2-2.4,0.5l-4.8-8.7H805.2z M819.1,5747.5l-5.7,4.7l-5.6-4.7
			c-0.8-0.6-1.2-1.5-1.2-2.5c0-1.8,1.5-3.3,3.3-3.3h0.3c0.9,0,1.7,0.3,2.2,0.9l1,1.1l1.1-1.1c0.6-0.6,1.4-1,2.3-1h0.3
			c1.8,0,3.3,1.5,3.3,3.3C820.3,5746,819.8,5746.9,819.1,5747.5z M811.9,5754.5l-3.4,12.4l-4.2-2.5l5.4-11.8L811.9,5754.5z
			 M817.3,5752.6l5.4,11.8l-4.2,2.5l-3.4-12.4L817.3,5752.6z M823,5745c0-0.3,0-0.6-0.1-0.9l2.7-0.9c0.2-0.1,0.5-0.1,0.7-0.1
			c1.2,0,2.2,1,2.2,2.2v3.9c0,1.2-1,2.2-2.2,2.2c-0.2,0-0.5,0-0.7-0.1l-4.8-1.6C822.2,5748.4,823,5746.8,823,5745z M798.4,5749.1
			v-3.9c0-1.2,1-2.2,2.2-2.2c0.2,0,0.5,0,0.7,0.1l2.7,0.9c0,0.3-0.1,0.6-0.1,0.9c0,1.8,0.8,3.4,2.1,4.6l-4.8,1.6
			c-0.2,0.1-0.5,0.1-0.7,0.1C799.4,5751.3,798.4,5750.3,798.4,5749.1z M786.1,5769c0-2.3,1.8-4.1,4.1-4.1c2.3,0,4.1,1.8,4.1,4.1v4.1
			h4.1c2.3,0,4.1,1.8,4.1,4.1c0,2.3-1.8,4.1-4.1,4.1h-12.3V5769z M790.2,5810c-8.3,0-15-6.7-15-15c0-5.7,3.2-10.8,8.2-13.4v2.5h15
			c0.6,0,1.2-0.1,1.8-0.3c3.2,2.9,5,6.9,5,11.2C805.2,5803.3,798.5,5810,790.2,5810z M824,5810h-2c-6.1,0-12-1.8-17-5.2
			c1.9-2.8,3-6.2,3-9.8c0-4.8-1.9-9.2-5.2-12.6c1.5-1.3,2.5-3.1,2.5-5.2c0-3.8-3.1-6.8-6.8-6.8H797v-1.4c0-1.6-0.6-3.1-1.6-4.3
			c1-1.8,2.2-3.6,3.6-5.2l6-6.8l1.7-0.6l-6,13.3l9.4,5.7l3.3-11.9l3.3,11.9l9.4-5.7l-6-13.3l4.7,1.6c0.5,0.2,1,0.3,1.5,0.3
			c2.7,0,4.9-2.2,4.9-4.9v-1.9h4.8l10.9,12.4c4.9,5.5,7.5,12.7,7.5,20C854.4,5796.4,840.8,5810,824,5810z"/>
		<path class="st1" d="M824.4,5774.6v-2.9h-2.7v2.7h-5.5v6.8c0,3.8,3.1,6.8,6.8,6.8c2.3,0,4.1,1.8,4.1,4.1v4.1H823
			c-2.3,0-4.1-1.8-4.1-4.1v-1.4h-2.7v1.4c0,3.3,2.4,6.1,5.5,6.7v2.9h2.7v-2.7h5.5v-6.8c0-3.8-3.1-6.8-6.8-6.8
			c-2.3,0-4.1-1.8-4.1-4.1v-4.1h4.1c2.3,0,4.1,1.8,4.1,4.1v1.4h2.7v-1.4C829.8,5778,827.5,5775.3,824.4,5774.6z"/>
		<path class="st1" d="M797.4,5785.8l-1.8,1.8l-2.7-2.7l-4.1,4.1c-0.9,0.9-1.4,2.1-1.4,3.3s0.5,2.4,1.4,3.3l0.8,0.8
			c0.4,0.4,0.6,0.9,0.6,1.4c0,0.5-0.2,1-0.6,1.4l-2.2,2.2l-2.2-2.2c-0.4-0.4-0.6-0.9-0.6-1.4c0-0.5,0.2-1,0.6-1.4l1.8-1.8l-1.9-1.9
			l-1.8,1.8c-0.9,0.9-1.4,2.1-1.4,3.3c0,1,0.3,1.9,0.9,2.7l-1.8,1.8l1.9,1.9l1.8-1.8l2.7,2.7l4.1-4.1c0.9-0.9,1.4-2.1,1.4-3.3
			s-0.5-2.4-1.4-3.3l-0.8-0.8c-0.4-0.4-0.6-0.9-0.6-1.4c0-0.5,0.2-1,0.6-1.4l2.2-2.2l2.2,2.2c0.4,0.4,0.6,0.9,0.6,1.4
			c0,0.5-0.2,1-0.6,1.4l-1.8,1.8l1.9,1.9l1.8-1.8c0.9-0.9,1.4-2.1,1.4-3.3c0-1-0.3-1.9-0.9-2.7l1.8-1.8L797.4,5785.8z"/>
		<path class="st1" d="M798.4,5801.8c0,0.8-0.6,1.4-1.4,1.4c-0.8,0-1.4-0.6-1.4-1.4c0-0.8,0.6-1.4,1.4-1.4
			C797.8,5800.5,798.4,5801.1,798.4,5801.8z"/>
		<path class="st1" d="M784.7,5788.2c0,0.8-0.6,1.4-1.4,1.4s-1.4-0.6-1.4-1.4c0-0.8,0.6-1.4,1.4-1.4S784.7,5787.4,784.7,5788.2z"/>
	</g>
</g>
</svg>
