<svg xmlns="http://www.w3.org/2000/svg" width="148" height="148" viewBox="0 0 148 148">
  <g id="Group_25" data-name="Group 25" transform="translate(-477 -6633)">
    <circle id="Ellipse_2" data-name="Ellipse 2" cx="74" cy="74" r="74" transform="translate(477 6633)" fill="#fff"/>
    <g id="_018-arrow" data-name="018-arrow" transform="translate(509.824 6661)">
      <path id="Path_73" data-name="Path 73" d="M258.574,314.328l2.346-2.109,2.11,2.345-2.346,2.11Zm0,0" transform="translate(-210.732 -254.625)" fill="#73a895"/>
      <path id="Path_74" data-name="Path 74" d="M234.754,335.723l2.343-2.109,2.11,2.343-2.343,2.109Zm0,0" transform="translate(-191.306 -272.073)" fill="#73a895"/>
      <path id="Path_75" data-name="Path 75" d="M210.973,357.125l2.343-2.109,2.109,2.343-2.343,2.11Zm0,0" transform="translate(-171.911 -289.527)" fill="#73a895"/>
      <path id="Path_76" data-name="Path 76" d="M146.668,320.094l2.109-2.344,3.5,3.153-2.11,2.344Zm0,0" transform="translate(-119.493 -259.182)" fill="#73a895"/>
      <path id="Path_77" data-name="Path 77" d="M81.169,191.514a9.569,9.569,0,0,1,6.308-16.682l-.032-3.153a12.722,12.722,0,0,0-8.386,22.177l8.191,7.372,2.109-2.343Zm0,0" transform="translate(-61.014 -140.83)" fill="#73a895"/>
      <path id="Path_78" data-name="Path 78" d="M81.485,28.809l8.69-15.643-8.816-2.94a4.63,4.63,0,0,0-1.409-1.41L77.013,0,61.368,8.693V22.274L57.14,26.5a17.84,17.84,0,0,0-4.758-.654h-.511a17.745,17.745,0,0,0-12.634,5.233l-.076.075-.075-.075a17.748,17.748,0,0,0-12.634-5.233h-.511A17.868,17.868,0,0,0,13.987,57l6.662,6-8.875,8.875L5.751,65.844.176,90,24.33,84.426,18.308,78.4l9.219-9.219,11.635,10.47L64.336,57A17.842,17.842,0,0,0,65.309,31.4L67.9,28.809Zm-1.744-2.961H70.864l9.877-9.877a4.573,4.573,0,0,0,1.269-2.407l3.846,1.282Zm-2.268-14.8a1.662,1.662,0,0,1,1.66,1.66,1.645,1.645,0,0,1-.486,1.174L43.585,48.938l-2.336-2.36L76.3,11.53A1.677,1.677,0,0,1,77.474,11.044Zm-13.145-.61,11-6.112,1.282,3.848a4.651,4.651,0,0,0-2.409,1.267l-9.877,9.877ZM4.126,86.05,7.433,71.715,18.461,82.742Zm12.089-9.741-2.348-2.348,8.985-8.984L25.322,67.2ZM67.29,43.716A14.933,14.933,0,0,1,62.355,54.8L39.162,75.672,15.968,54.8a14.908,14.908,0,0,1,9.973-25.989h.511a14.809,14.809,0,0,1,10.541,4.366l2.169,2.169,2.169-2.169a14.809,14.809,0,0,1,10.541-4.366h.511a15.094,15.094,0,0,1,2.276.176L37.074,46.569l6.5,6.569L63.219,33.493A14.914,14.914,0,0,1,67.29,43.716Zm0,0" transform="translate(0)" fill="#73a895"/>
    </g>
  </g>
</svg>
