<?xml version="1.0" encoding="utf-8"?>
<!-- Generator: Adobe Illustrator 23.0.1, SVG Export Plug-In . SVG Version: 6.00 Build 0)  -->
<svg version="1.1" id="Layer_1" xmlns="http://www.w3.org/2000/svg" xmlns:xlink="http://www.w3.org/1999/xlink" x="0px" y="0px"
	 viewBox="0 0 1000 1000" style="enable-background:new 0 0 1000 1000;" xml:space="preserve">
<style type="text/css">
	.st0{opacity:0.8;fill:#94D2BA;}
	.st1{fill:#94D2BA;}
	.st2{opacity:0.7;fill:#94D2BA;}
	.st3{opacity:0.8;}
	.st4{fill:#CFEAE0;}
	.st5{fill:#FFFFFF;}
</style>
<g id="FINAL_-_2">
	<g>
		<g>
			<path class="st0" d="M63.62,294.66c2.9-3.38,7.15-8.49,11.52-13.45c4.54-4.8,9.08-9.61,12.1-12.8c0.06,1.4-0.99,4.34-2.78,8.33
				c-0.89,1.99-1.97,4.25-3.18,6.7c-0.3,0.61-0.62,1.24-0.93,1.88c-0.29,0.65-0.58,1.32-0.88,2c-0.61,1.35-1.24,2.75-1.88,4.19
				c-1.31,2.86-2.69,5.88-4.1,8.98c-1.4,3.11-2.97,6.22-4.19,9.53c-2.59,6.54-5.17,13.15-7.4,19.3c-1.63,9.05,1.66,9.67,5.89,6.46
				c1.06-0.79,2.17-1.87,3.29-3.03c1.13-1.15,2.25-2.46,3.31-3.86c2.11-2.8,3.95-5.96,5.04-8.97c0.73-1.55,1.46-3.12,2.2-4.7
				c0.37-0.79,0.72-1.6,1.12-2.39c0.41-0.78,0.82-1.57,1.23-2.36c1.64-3.17,3.29-6.41,4.94-9.71c0.82-1.65,1.64-3.32,2.47-4.99
				c0.83-1.67,1.62-3.38,2.56-5.01c1.79-3.32,3.6-6.66,5.42-10.01l2.68-5.06c0.9-1.69,1.74-3.41,2.75-5.04
				c1.92-3.31,3.83-6.61,5.73-9.89c0.94-1.65,1.87-3.3,2.8-4.94c0.93-1.64,1.82-3.31,2.84-4.86c1.96-3.18,3.9-6.32,5.81-9.4
				c1.91-3.09,3.7-6.2,5.57-9.15c1.92-2.93,3.79-5.78,5.6-8.55c1.79-2.81,3.52-5.54,5.18-8.16c0.8-1.34,1.67-2.59,2.52-3.81
				c0.84-1.24,1.65-2.44,2.45-3.62c3.17-4.74,5.96-9.11,8.27-12.97c2.43-3.75,4.41-6.96,5.74-9.59c2.12-2.53,1.35-2.64-1.52-0.9
				c-2.83,1.77-7.97,5.2-13.86,10.44c-3,2.57-6.31,5.48-9.83,8.64c-0.87,0.8-1.8,1.58-2.65,2.44c-0.86,0.86-1.73,1.74-2.61,2.63
				c-1.75,1.79-3.55,3.63-5.38,5.51c-1.81,1.9-3.66,3.83-5.53,5.79c-0.92,0.99-1.89,1.95-2.77,3c-0.88,1.04-1.76,2.09-2.65,3.15
				c-3.54,4.22-7.07,8.54-10.51,12.86c-6.63,11.71-13.15,23.38-18.77,35.53"/>
			<path class="st1" d="M881.96,330.04c1,1.65,1.98,3.28,2.96,4.89c0.97,1.61,2,3.18,2.85,4.81c1.8,3.22,3.57,6.38,5.32,9.51
				c-6.28-19.47-13.48-37.63-22.38-57.05c-2.32-4.8-4.64-9.75-7.15-14.78c-2.7-4.93-5.48-9.99-8.34-15.22
				c-1.39-2.66-3.01-5.22-4.65-7.84c-1.64-2.63-3.31-5.3-5.01-8.02c-3.3-5.54-7.26-10.89-11.28-16.58c-6.31-8.43-9.16-8.94-9.1-5.8
				c0.04,1.55,0.61,4.16,1.64,7.28c1.03,3.12,2.52,6.75,4.32,10.45c-2.44-2.63-4.78-5.15-7.03-7.58c-1.13-1.2-2.24-2.37-3.33-3.53
				c-1.12-1.12-2.28-2.17-3.38-3.22c-4.45-4.17-8.58-7.95-12.47-11.41c-4.06-3.3-7.9-6.26-11.53-9.03c-1.82-1.37-3.58-2.7-5.31-4
				c-1.77-1.24-3.56-2.38-5.28-3.53c-6.94-4.52-13.21-8.74-20.04-12.52c-3.36-1.96-6.72-3.96-10.18-6.09
				c-1.69-1.1-3.58-2.02-5.41-3.09c-1.84-1.05-3.72-2.13-5.65-3.24c3.33,2.18,6.74,4.29,10.06,6.53c3.26,2.33,6.54,4.67,9.82,7.01
				c6.72,4.53,12.95,9.73,19.43,14.73c1.59,1.28,3.28,2.47,4.81,3.83l4.65,4.02c3.12,2.68,6.24,5.37,9.36,8.06
				c3.08,2.74,5.99,5.66,9.02,8.48l4.51,4.28c1.5,1.43,3.04,2.83,4.43,4.36c23.28,23.6,44,50.12,60.71,78.23l1.05,3.97
				c0.32,1.34,0.59,2.7,0.88,4.04L881.96,330.04z"/>
			<path class="st2" d="M425.01,981.16l6.45,1.25c2.15,0.42,4.33,0.65,6.5,0.99c4.35,0.62,8.7,1.24,13.05,1.86
				c4.35,0.72,8.75,1.01,13.14,1.44c4.4,0.41,8.81,0.81,13.21,1.22c4.42,0.29,8.84,0.41,13.28,0.62l6.66,0.29
				c2.22,0.1,4.45,0.21,6.67,0.16c4.46-0.03,8.92-0.05,13.38-0.08l6.71-0.04l6.7-0.35c62.46-4.05,125.13-21.15,181.88-50.34
				c28.38-14.56,55.28-32.1,79.99-52.18c24.72-20.08,47.25-42.71,67.03-67.27c19.79-24.55,36.82-51.02,50.8-78.62
				c13.98-27.59,24.98-56.27,32.87-85.31c15.81-58.08,18.96-117.44,10.67-171.97c-0.43-0.97-0.85-2.37-1.23-4.04
				c-0.42-1.67-0.91-3.61-1.33-5.68c0.24,2.13,0.58,4.24,0.73,6.38l0.47,6.4l0.95,12.8c0.2,2.13,0.21,4.27,0.27,6.4l0.16,6.41
				c0.1,4.27,0.25,8.55,0.3,12.82l-0.3,12.81l-0.15,6.41l-0.08,3.2l-0.23,3.19l-0.93,12.77l-0.47,6.39
				c-0.22,2.12-0.51,4.24-0.76,6.35c-3.8,33.92-11.32,67.39-22.37,99.62c-11.06,32.23-25.58,63.26-43.33,92.35l-1.62,2.75
				c-0.55,0.91-1.16,1.79-1.74,2.68l-3.51,5.34l-7.03,10.67c-1.13,1.81-2.48,3.46-3.71,5.2l-3.78,5.15l-7.59,10.28l-8.08,9.9
				l-4.05,4.95c-1.34,1.66-2.69,3.31-4.15,4.86l-8.58,9.47l-4.3,4.73c-1.41,1.6-2.99,3.04-4.47,4.56
				c-23.82,24.37-50.38,46.06-79.01,64.56c-28.63,18.49-59.31,33.87-91.43,45.32c-32.08,11.53-65.46,19.45-99.29,23.49l-6.34,0.81
				c-2.12,0.22-4.25,0.35-6.37,0.52l-12.74,0.97c-4.24,0.41-8.51,0.39-12.76,0.53l-12.76,0.31c-4.26,0.01-8.52-0.19-12.77-0.28
				c-4.25-0.15-8.51-0.16-12.75-0.44l-12.73-1.01c-4.24-0.36-8.48-0.59-12.69-1.24c-2.35-0.75-9.06-1.49-18.25-2.22
				c-4.57-0.55-9.76-1.17-15.32-1.84c-2.78-0.34-5.67-0.6-8.6-1.01c-2.92-0.47-5.91-0.95-8.93-1.43c1.74,0.61,3.55,1.22,5.44,1.83
				c1.89,0.58,3.83,1.26,5.89,1.69C415.8,979.44,420.23,980.34,425.01,981.16z"/>
			<path class="st0" d="M65.7,667.71c0.25,2.09,0.56,4.69,0.89,7.42c0.18,1.37,0.31,2.79,0.53,4.16c0.23,1.37,0.46,2.73,0.68,4.02
				c0.89,5.2,1.59,9.35,1.59,9.35c14.46,29.54,30.45,56.52,48.29,81.69c17.9,25.12,37.57,48.49,59.81,70.3
				c22.24,21.78,47.08,41.99,75.47,60.02c1.77,1.13,3.55,2.27,5.33,3.4c1.78,1.15,3.57,2.3,5.44,3.31c3.71,2.1,7.44,4.22,11.19,6.35
				c1.88,1.07,3.77,2.13,5.66,3.21c1.89,1.07,3.89,1.97,5.84,2.98c3.93,1.96,7.88,3.93,11.87,5.91c3.95,2.08,8.11,3.76,12.26,5.57
				c4.16,1.79,8.35,3.6,12.58,5.43c4.28,1.68,8.66,3.23,13.05,4.86c2.2,0.81,4.41,1.62,6.62,2.43c1.11,0.4,2.21,0.84,3.34,1.2
				c1.13,0.35,2.27,0.7,3.41,1.05c3.89,1.29,7.47,2.93,11.04,4.83c1.78,0.95,3.56,1.97,5.37,3.05c1.81,1.08,3.7,2.04,5.63,3.14
				c3.87,2.15,8.01,4.48,12.69,6.88c1.18,0.59,2.38,1.19,3.62,1.81c1.26,0.53,2.56,1.07,3.89,1.63c2.68,1.09,5.52,2.17,8.57,3.24
				c3.02,0.48,6.01,0.96,8.93,1.43c2.93,0.41,5.82,0.67,8.6,1.01c5.56,0.67,10.74,1.29,15.32,1.84c9.18,0.73,15.9,1.47,18.25,2.22
				c4.21,0.65,8.46,0.88,12.69,1.24l12.73,1.01c4.25,0.28,8.5,0.29,12.75,0.44c4.25,0.09,8.51,0.29,12.77,0.28l12.76-0.31
				c4.25-0.14,8.53-0.11,12.76-0.53l12.74-0.97c2.12-0.18,4.25-0.31,6.37-0.52l6.34-0.81c33.83-4.04,67.21-11.96,99.29-23.49
				c32.12-11.46,62.8-26.83,91.43-45.32c28.63-18.49,55.19-40.19,79.01-64.56c1.49-1.53,3.06-2.96,4.47-4.56l4.3-4.73l8.58-9.47
				c1.46-1.55,2.81-3.2,4.15-4.86l4.05-4.95l8.08-9.9l7.59-10.28l3.78-5.15c1.23-1.73,2.58-3.39,3.71-5.2l7.03-10.67l3.51-5.34
				c0.58-0.89,1.19-1.77,1.74-2.68l1.62-2.75c17.74-29.09,32.27-60.12,43.33-92.35c11.05-32.24,18.58-65.7,22.37-99.62
				c0.25-2.12,0.54-4.23,0.76-6.35l0.47-6.39l0.93-12.77l0.23-3.19l0.08-3.2l0.15-6.41l0.3-12.81c-0.05-4.27-0.2-8.55-0.3-12.82
				l-0.16-6.41c-0.06-2.14-0.07-4.27-0.27-6.4l-0.95-12.8l-0.47-6.4c-0.15-2.13-0.49-4.25-0.73-6.38
				c-1.12-5.4-2.05-11.48-2.46-15.09c-0.19-1.81-0.33-3-0.26-3.18c0.06-0.18,0.41,0.63,0.83,2.87c0,0-0.05-0.29-0.13-0.83
				c-0.08-0.55-0.22-1.35-0.45-2.37c-0.42-2.05-1.01-5-1.75-8.62c-0.71-3.62-1.54-7.9-2.46-12.62c-1.11-4.68-2.29-9.78-3.47-15.09
				c-0.29-1.33-0.59-2.67-0.88-4.01c-0.28-1.35-0.58-2.71-0.96-4.05c-0.69-2.7-1.39-5.42-2.09-8.13c-0.66-2.72-1.32-5.43-1.97-8.1
				c-0.31-1.34-0.63-2.67-0.93-3.98c-0.35-1.3-0.71-2.59-1.05-3.86c-1.36-5.1-2.54-9.96-3.46-14.37c-0.22-1.11-0.43-2.18-0.63-3.22
				c-0.23-1.03-0.45-2.03-0.66-2.99c-0.4-1.93-0.71-3.72-0.92-5.34c0.85,2.59,1.69,5.14,2.52,7.67c0.73,2.56,1.45,5.09,2.16,7.6
				c1.45,5.01,2.87,9.93,4.27,14.81c1.23,4.92,2.45,9.8,3.67,14.66c0.61,2.43,1.28,4.85,1.85,7.3c0.52,2.46,1.05,4.92,1.57,7.38
				c1.04,4.94,2.21,9.89,3.24,14.96c0.91,5.09,1.84,10.25,2.78,15.54c1.08,5.27,1.71,10.73,2.51,16.34
				c0.74,5.62,1.75,11.38,2.19,17.41c-0.17-0.24-0.34-0.61-0.5-0.96c8.29,54.54,5.14,113.9-10.67,171.97
				c-7.89,29.03-18.89,57.71-32.87,85.31c-13.98,27.59-31.01,54.07-50.8,78.62c-19.78,24.56-42.31,47.19-67.03,67.27
				c-24.72,20.08-51.61,37.62-79.99,52.18c-56.75,29.19-119.42,46.29-181.88,50.34c23.96-0.86,47.99-4.07,71.89-8.85
				c12-2.23,23.81-5.46,35.71-8.59c5.88-1.83,11.76-3.66,17.66-5.49c1.47-0.48,2.97-0.88,4.41-1.42l4.36-1.59l8.73-3.2
				c2.9-1.09,5.85-2.1,8.73-3.26l8.6-3.64c5.72-2.47,11.56-4.75,17.13-7.59c5.62-2.75,11.32-5.4,16.91-8.28
				c5.52-3.02,11.05-6.05,16.58-9.08c21.87-12.65,42.94-27.13,62.89-43.37c4.89-4.18,9.8-8.36,14.71-12.55
				c4.77-4.35,9.42-8.85,14.14-13.3l3.53-3.35c1.16-1.13,2.25-2.34,3.38-3.5c2.24-2.35,4.48-4.71,6.73-7.07
				c2.24-2.37,4.48-4.73,6.73-7.1c2.13-2.48,4.25-4.95,6.38-7.44c2.12-2.49,4.25-4.98,6.37-7.47c1.06-1.25,2.14-2.49,3.17-3.76
				l3-3.9c3.99-5.22,8.02-10.42,11.96-15.7c3.72-5.44,7.45-10.89,11.18-16.36c0.91-1.38,1.9-2.71,2.75-4.13l2.59-4.24
				c1.72-2.83,3.44-5.67,5.16-8.51c1.7-2.85,3.49-5.66,5.1-8.57c1.57-2.93,3.14-5.87,4.72-8.8c3.1-5.9,6.42-11.71,9.12-17.83
				c2.8-6.07,5.71-12.11,8.4-18.26c2.49-6.23,4.99-12.47,7.5-18.73c9.41-25.25,16.76-51.49,21.69-78.37
				c5.1-31.54,7.68-65.59,6.97-98.91c-0.63-33.33-4.54-65.87-10.26-94.55c-3.54-22.17-9.44-42.52-15.92-61.8
				c-3.53-9.55-6.83-18.98-10.92-27.98c-0.98-2.27-1.95-4.53-2.92-6.78c-1.01-2.24-1.87-4.53-2.99-6.71
				c-2.14-4.39-4.28-8.77-6.41-13.13c-1.08-2.18-2.1-4.38-3.21-6.53l-3.48-6.39c-2.3-4.26-4.61-8.53-6.92-12.8
				c-2.47-4.18-4.94-8.37-7.43-12.57c-2.49-4.2-4.89-8.48-7.63-12.58c-2.64-4.17-5.3-8.36-7.98-12.58
				c-1.29-2.15-2.72-4.21-4.16-6.28c-1.42-2.08-2.85-4.18-4.28-6.28c-1.42-2.11-2.85-4.24-4.29-6.38c-0.72-1.07-1.44-2.14-2.16-3.22
				c-0.76-1.04-1.53-2.09-2.29-3.14c-3.06-4.21-6.14-8.49-9.22-12.86c-0.78-1.09-1.52-2.19-2.31-3.25c-0.8-1.04-1.6-2.08-2.39-3.11
				c-1.57-2.07-3.12-4.12-4.64-6.14c-1.51-2.04-3.01-4.05-4.48-6.04c-0.73-1-1.46-2-2.19-2.99c-0.73-0.99-1.51-1.91-2.26-2.87
				c-3.02-3.79-5.94-7.53-8.81-11.24c-1.44-1.86-2.86-3.7-4.27-5.53c-1.48-1.77-2.95-3.53-4.42-5.28c-2.92-3.54-5.82-7.04-8.7-10.52
				l-2.16-2.63l-2.26-2.51l-4.53-5.03c-3.05-3.37-6.1-6.75-9.17-10.15c-3.17-3.31-6.48-6.52-9.82-9.84
				c-1.68-1.65-3.37-3.31-5.08-4.98c-1.73-1.66-3.42-3.4-5.28-4.96c-3.66-3.2-7.42-6.45-11.32-9.76c-1.96-1.64-3.94-3.31-5.95-4.99
				c-2.07-1.6-4.2-3.17-6.36-4.78c-4.33-3.21-8.82-6.47-13.5-9.79c-19.1-12.63-41.8-25.46-70.52-36.61
				c-8.98-3.05-16.45-5.16-23.13-6.8c-6.73-1.47-12.75-2.28-18.69-3.19c-2.98-0.43-5.94-0.92-9.02-1.33
				c-3.1-0.35-6.29-0.74-9.68-1.22c-6.78-0.93-14.28-2.46-23.54-3.92c-4.62-0.81-9.33-1.8-14.08-2.9c-4.76-1.01-9.61-1.92-14.4-3.01
				c-2.4-0.55-4.8-1.1-7.18-1.64c-1.19-0.28-2.38-0.57-3.56-0.85c-1.18-0.28-2.37-0.48-3.55-0.72c-4.72-0.96-9.34-1.91-13.78-2.82
				c-2.23-0.47-4.41-0.92-6.54-1.37c-2.13-0.45-4.22-0.72-6.24-1.06c-4.05-0.65-7.85-1.24-11.32-1.72c-3.47-0.47-6.6-0.92-9.32-1.07
				c-2.72-0.12-5.02-0.11-6.82,0.05c-38.05,0.65-72.07,6.92-104.27,16.65c-32.21,9.81-62.71,23.08-94.03,40.06
				c-0.77,0.4-1.55,0.81-2.34,1.22c-0.77,0.44-1.55,0.89-2.34,1.34c-1.57,0.89-3.17,1.79-4.78,2.69c-3.22,1.78-6.5,3.6-9.76,5.4
				c-3.29,1.73-6.44,3.68-9.52,5.56c-3.07,1.87-6.05,3.7-8.89,5.43c-5.7,3.37-10.48,6.91-14.13,9.65c-3.64,2.78-6.05,4.93-6.68,6.21
				c-2.54,5.14,0.47,6.17-1.01,9.46c-0.73,1.65-2.57,3.86-6.71,7.44c-2.07,1.79-4.71,3.92-8.08,6.5c-3.32,2.65-7.23,5.93-12.04,9.71
				c2.03-0.91,4.37-2.09,6.91-3.45c1.26-0.69,2.57-1.42,3.94-2.17c0.68-0.38,1.36-0.76,2.06-1.15c0.71-0.37,1.43-0.74,2.16-1.11
				c5.8-3,11.94-6.33,17.47-9.29c11.37-5.45,20.29-9.43,19.06-6.91c-4.24,3.66-9.21,7.56-14.52,11.54
				c-5.18,4.17-10.59,8.56-15.96,12.79c-10.48,8.82-20.48,17.49-26.52,24.67c2.33-1.68,4.66-3.37,7-5.06l1.75-1.27l1.81-1.18
				l3.62-2.37c4.84-3.14,9.58-6.4,14.46-9.44c4.93-2.94,9.86-5.87,14.76-8.78c2.41-1.51,4.94-2.82,7.44-4.14
				c2.5-1.33,4.99-2.65,7.47-3.97c7.53-4.5,15.08-7.78,21.76-10.6c1.59-0.73,3.18-1.46,4.75-2.19c1.58-0.72,3.21-1.31,4.8-1.96
				c3.19-1.26,6.35-2.5,9.47-3.73c1.56-0.61,3.11-1.21,4.65-1.8l2.3-0.88l2.33-0.76c3.1-0.99,6.15-1.97,9.14-2.93
				c3.93-2.09,6.48-3.45,6.48-3.45c2.35-0.64,4.74-1.03,7.04-1.52c2.3-0.47,4.56-0.93,6.78-1.38c2.21-0.46,4.38-0.92,6.53-1.37
				c1.07-0.23,2.13-0.46,3.18-0.68c1.07-0.18,2.13-0.36,3.18-0.54c4.22-0.72,8.32-1.45,12.37-2.21c2.02-0.39,4.03-0.77,6.03-1.16
				l6.06-0.93c2.42-0.82,5.1-1.62,7.96-2.39c1.43-0.37,2.91-0.76,4.41-1.15c0.76-0.19,1.52-0.38,2.29-0.57
				c0.78-0.15,1.57-0.3,2.36-0.45c6.35-1.16,13.1-2.35,19.67-3.42c6.62-0.83,13.04-1.7,18.68-2.75c1.41-0.29,2.78-0.48,4.1-0.69
				c1.32-0.22,2.57-0.45,3.77-0.7c2.39-0.5,4.51-1.07,6.3-1.73c-1.97,1.69-1.77,2.86-0.18,3.71c2.91-0.35,5.91-0.7,8.99-1.07
				c3.09-0.24,6.27-0.48,9.55-0.73c3.28-0.27,6.65-0.54,10.12-0.82c1.74-0.18,3.5-0.23,5.29-0.29c1.79-0.07,3.61-0.13,5.46-0.2
				c2.04,0.45,4.58,1.02,7.37,1.63c2.78,0.62,5.79,1.24,8.79,2.14c5.94,1.65,11.86,3.3,15.81,4.39c0.78-0.04,1.6-0.11,2.46-0.13
				c0.86-0.01,1.76-0.01,2.69-0.02c1.87-0.02,3.85-0.03,5.89-0.05c4.08-0.04,8.36-0.08,12.25-0.11c7.78,0.31,14,0.56,14,0.56
				c1.91,0.5,3.67,1,5.3,1.49c1.63,0.48,3.13,0.97,4.49,1.56c2.74,1.11,5.03,2.18,6.98,3.21c3.9,2.07,6.47,4.01,8.69,5.92
				c0.77,0.13,1.54,0.26,2.31,0.39c0.77,0.14,1.54,0.33,2.31,0.49c1.55,0.33,3.11,0.66,4.69,0.99c3.16,0.65,6.37,1.29,9.61,1.89
				c1.63,0.29,3.26,0.59,4.89,0.88l4.86,1.09c3.25,0.71,6.52,1.38,9.78,2.01c1.98,1.48,4.39,2.91,7.06,4.58
				c2.66,1.71,5.64,3.49,8.89,5.31c3.24,1.84,6.78,3.62,10.47,5.61c3.65,2.1,7.51,4.23,11.53,6.37c2.15,0.92,4.28,1.82,6.39,2.73
				c2.1,0.92,4.11,2,6.13,2.99c4.01,2.03,7.93,4.02,11.75,5.95c0.95,0.49,1.89,0.98,2.82,1.46c0.91,0.54,1.8,1.07,2.7,1.6
				c1.77,1.07,3.52,2.12,5.23,3.16c3.42,2.08,6.68,4.13,9.77,6.12c5.77,3.48,11.39,7.01,16.99,10.31c0.7,0.41,1.4,0.82,2.09,1.24
				c0.67,0.44,1.34,0.89,2.01,1.33c1.34,0.88,2.68,1.75,4,2.61c2.66,1.72,5.3,3.38,7.92,4.99c4.38,2.42,8.49,5.27,12.72,7.98
				c1.94,1.11,3.82,2.19,5.65,3.24c1.83,1.07,3.71,1.98,5.41,3.09c3.45,2.12,6.82,4.12,10.18,6.09c6.83,3.79,13.09,8.01,20.04,12.52
				c1.72,1.14,3.51,2.28,5.28,3.53c1.72,1.3,3.49,2.63,5.31,4c3.62,2.77,7.46,5.74,11.53,9.03c3.89,3.46,8.02,7.24,12.47,11.41
				c1.11,1.05,2.26,2.1,3.38,3.22c1.09,1.15,2.2,2.33,3.33,3.53c2.25,2.42,4.59,4.95,7.03,7.58c-1.8-3.7-3.28-7.33-4.32-10.45
				c-1.03-3.12-1.6-5.73-1.64-7.28c-0.05-3.14,2.8-2.63,9.1,5.8c4.02,5.69,7.98,11.05,11.28,16.58c1.7,2.72,3.37,5.39,5.01,8.02
				c1.64,2.62,3.26,5.18,4.65,7.84c2.87,5.23,5.64,10.29,8.34,15.22c2.51,5.03,4.83,9.98,7.15,14.78
				c8.9,19.42,16.1,37.58,22.38,57.05c1.66,3.01,3.45,5.92,4.96,8.9c1.52,2.99,3.01,5.94,4.49,8.87c1.48,2.94,2.95,5.86,4.41,8.75
				c1.29,2.97,2.57,5.92,3.85,8.86c1.26,2.95,2.51,5.91,3.72,8.89c0.3,0.74,0.62,1.49,0.9,2.24l0.78,2.27l1.54,4.57
				c1.01,3.06,2,6.14,2.95,9.26c0.46,1.56,0.97,3.12,1.38,4.71c0.37,1.6,0.74,3.21,1.11,4.82c0,0-0.07,2.77-0.16,6.61
				c-0.05,1.91-0.1,4.09-0.16,6.33c-0.03,1.11-0.06,2.24-0.09,3.36c-0.08,1.12-0.16,2.23-0.24,3.31c1.16,6.11,2.32,12.22,3.48,18.3
				c1.08,4.54,2.12,9.06,3.1,13.57c0.48,2.26,0.96,4.5,1.43,6.75c0.39,2.25,0.7,4.51,1.03,6.76c0.64,4.5,1.23,9,1.76,13.51l0.2,1.69
				l0.1,1.69l0.19,3.39l0.31,6.79c0.07,2.27,0.14,4.54,0.22,6.82c0.02,1.14,0.07,2.28,0.06,3.42l-0.13,3.43
				c-0.19,4.58-0.44,9.18-0.77,13.83c-0.22,4.65-1.03,9.3-1.7,14.01c-0.38,2.35-0.76,4.72-1.14,7.1c-0.42,2.38-0.75,4.78-1.38,7.16
				c-3.54,33.92-11.23,67.74-22.92,100.34c-1.29,6.11-3.19,12.02-4.92,17.88c-0.88,2.93-1.75,5.83-2.6,8.68
				c-0.22,0.71-0.43,1.42-0.65,2.13c-0.25,0.69-0.5,1.38-0.74,2.07c-0.5,1.37-0.99,2.73-1.47,4.08
				c-1.46,7.09-5.56,15.94-11.14,23.78c-2.7,3.97-5.51,7.81-8.24,11.25c-2.89,3.35-5.6,6.33-7.86,8.73
				c-5.15,8.95-11.11,17.27-16.88,25.81c-0.94,1.74-2.03,3.4-3.1,5.08c-1.07,1.68-2.15,3.38-3.23,5.08
				c-2.17,3.41-4.35,6.85-6.54,10.3c-2.33,3.36-4.74,6.7-7.14,10.07c-1.2,1.68-2.41,3.37-3.61,5.06c-1.22,1.68-2.39,3.41-3.72,5
				c-2.6,3.24-5.2,6.48-7.8,9.71c-1.31,1.61-2.61,3.23-3.91,4.84c-1.28,1.63-2.74,3.09-4.1,4.64c-2.78,3.04-5.55,6.07-8.29,9.07
				c-1.4,1.48-2.72,3.02-4.17,4.42c-1.45,1.4-2.9,2.79-4.33,4.18c-3.4,4.25-6.59,8.54-9.68,12.79c-3.22,4.1-6.26,8.23-9.14,12.43
				c0.6-1.98,1.19-3.95,2.66-6.6c0.74-1.32,1.69-2.81,2.97-4.54c0.64-0.87,1.36-1.8,2.18-2.8c0.8-1.02,1.68-2.14,2.64-3.37
				c-2.81,2.74-5.87,5.1-8.79,7.53c-2.94,2.4-5.85,4.73-8.72,6.97c-0.72,0.56-1.43,1.12-2.15,1.67c-0.74,0.51-1.48,1.03-2.21,1.53
				c-1.48,1-2.93,1.99-4.37,2.96c-2.89,1.93-5.73,3.77-8.5,5.51c-1.4,0.85-2.74,1.75-4.14,2.49c-1.41,0.74-2.79,1.46-4.15,2.17
				c-2.73,1.39-5.39,2.67-7.97,3.82c-2.58,1.14-5.06,2.2-7.49,3.06c-2.47,0.79-4.84,1.45-7.11,1.97c-2.56,1.88-5.11,3.76-7.51,5.52
				c-1.2,0.88-2.37,1.74-3.47,2.55c-1.12,0.79-2.21,1.48-3.2,2.14c-3.99,2.64-6.65,4.4-6.65,4.4c-1.73,0.47-3.88,1.04-6.27,1.68
				c-1.19,0.32-2.43,0.66-3.71,1.01c-1.31,0.29-2.65,0.59-4.01,0.9c-21.4,12.18-44.29,23.04-67.52,31.68
				c-23.22,8.6-46.78,15.02-69.13,18.15c-6.28,1.6,6.28-1.6,15.51-4.98c1.15-0.42,2.26-0.85,3.26-1.27
				c1.01-0.43,1.91-0.92,2.68-1.35c1.54-0.88,2.54-1.68,2.68-2.3c0.14-0.63-0.6-1.09-2.52-1.29c-0.96-0.11-2.21-0.12-3.81-0.13
				c-1.61-0.04-3.56-0.03-5.88,0.06c-4.66,0.16-9.42,0.44-14.27,0.82c-4.87,0.23-9.84,0.39-14.88,0.71
				c-2.52,0.16-5.05,0.33-7.61,0.5c-2.56,0.07-5.14,0.14-7.73,0.2c-2.59,0.09-5.19,0.19-7.81,0.28c-1.31,0.05-2.62,0.11-3.93,0.16
				l-1.97,0.08l-1.98-0.01c-21.09,0.34-42.75-0.73-63.12-3.52c-7-1.22-13.71-2.49-20.19-3.79c-6.43-1.58-12.61-3.27-18.64-4.9
				c-3.32-0.64-6.58-1.66-9.9-2.51c-3.31-0.86-6.65-1.73-10.02-2.6c-1.68-0.44-3.39-0.81-5.07-1.3c-1.68-0.5-3.37-1.01-5.07-1.52
				c-3.4-1-6.84-1.99-10.33-2.97c-58.11-16.75-113.66-46.24-160.58-86.64c-46.89-40.44-85.04-91.65-110.69-148.59
				c-25.89-56.87-38.58-119.56-37.77-181.45c0.4-30.96,4.2-61.74,11.25-91.58c7.04-29.85,17.32-58.75,30.46-86.07
				C64.39,389.94,49.9,441.74,45.38,496.31c-2.23,27.29-1.9,55.28,1.32,83.91C49.94,608.83,56.09,638.09,65.7,667.71z"/>
		</g>
		<g>
			<g class="st3">
				<path class="st4" d="M157.39,173.59c41.98-46.78,94.23-85.19,152.56-111.69c29.15-13.27,59.8-23.6,91.31-30.7
					c31.51-7.1,63.91-10.82,96.45-11.21c32.54-0.38,65.25,2.66,97.37,9.13c32.13,6.46,63.67,16.36,93.91,29.48
					c60.46,26.22,115.88,65.27,160.75,114.63c0.07-0.06,0.38,0.15,1.07,0.8c1.73,1.67,4.66,4.78,8.01,8.47
					c1.66,1.86,3.43,3.85,5.22,5.87c1.77,2.04,3.38,4.24,4.99,6.29c18.49,23.47,34.56,48.47,48.16,74.73l4.69,9.17l2.34,4.58
					l1.17,2.29l1.06,2.34c2.82,6.25,5.64,12.49,8.46,18.73c2.53,6.36,5.05,12.72,7.57,19.07c2.36,6.41,4.48,12.91,6.72,19.35
					c8.4,25.96,14.57,52.55,18.45,79.38l-1.13-8.06l-0.28-2.01l-0.37-2l-0.76-3.99l-3.03-15.97l-3.76-15.8
					c-0.66-2.62-1.19-5.28-1.95-7.88l-2.25-7.79l-2.25-7.79c-0.74-2.6-1.48-5.2-2.4-7.74l-5.23-15.34
					c-0.82-2.57-1.84-5.08-2.83-7.58l-2.97-7.53l-2.96-7.53c-0.98-2.51-2.17-4.93-3.25-7.4c-2.67-5.87-4.95-11.18-6.47-14.87
					c-1.67-3.61-2.47-5.67-1.92-5.14c0.25,0.22,0.79,1.03,1.57,2.31c0.38,0.65,0.83,1.4,1.33,2.26c0.48,0.87,0.96,1.86,1.5,2.94
					c2.13,4.3,4.85,10.03,7.64,16.19c11.58,26.97,21,55.8,27.57,85.51c6.59,29.7,10.31,60.25,10.99,90.45
					c0.7,30.2-1.65,60.01-6.59,88.26c-4.92,28.26-12.44,54.91-21.46,79.11c-21.84,62.61-56.48,120.11-100.92,167.87
					c-44.39,47.81-98.36,85.86-157.13,111.58c-58.79,25.71-122.22,39.27-185.31,40.16c-63.11,0.97-125.81-10.86-183.43-33.83
					c-4.55-1.8-9.89-4.09-12.13-5.22c-1.51-0.7-1.98-1.09-1.62-1c0.36,0.11,1.63,0.53,3.66,1.33c29.62,12.4,60.95,22.02,93.38,28.33
					c32.42,6.32,65.93,9.32,99.76,8.73c33.83-0.62,68.01-4.68,101.64-12.67c33.62-8.04,66.71-19.76,98.42-35.06l5.97-2.82l5.84-3.1
					c3.89-2.07,7.79-4.14,11.7-6.22c1.97-1,3.87-2.13,5.77-3.27l5.71-3.39c3.8-2.28,7.65-4.48,11.41-6.84
					c3.7-2.45,7.41-4.9,11.12-7.35l5.57-3.68c1.88-1.2,3.62-2.6,5.43-3.89c7.17-5.29,14.5-10.4,21.34-16.18
					c3.48-2.81,6.96-5.63,10.44-8.45c3.34-2.98,6.69-5.97,10.04-8.96l5.03-4.49c0.83-0.76,1.69-1.48,2.5-2.26l2.4-2.37
					c3.21-3.15,6.41-6.31,9.62-9.47c1.59-1.6,3.25-3.12,4.77-4.78l4.58-4.98c3.06-3.32,6.12-6.64,9.18-9.97
					c3.01-3.37,5.82-6.92,8.75-10.37l4.35-5.22c1.44-1.75,2.94-3.45,4.26-5.29c22.31-28.6,41.48-59.91,56.99-93.15l2.96-6.21
					l2.66-6.35c1.77-4.24,3.54-8.48,5.31-12.72l1.33-3.18l1.17-3.25l2.34-6.49c1.54-4.34,3.14-8.65,4.65-13.01
					c1.34-4.41,2.68-8.82,4.03-13.23c1.33-4.42,2.77-8.81,3.8-13.31c2.21-8.97,4.68-17.89,6.3-27.01c0.88-4.43,1.76-8.86,2.64-13.28
					c0.66-4.46,1.33-8.91,1.99-13.36c1.51-8.87,2.2-17.83,3.12-26.74c-0.36,3.21-0.72,6.43-1.08,9.65l-0.54,4.83
					c-0.17,1.61-0.35,3.22-0.64,4.82c-1.04,6.41-2.07,12.83-3.12,19.27c-1.22,6.4-2.68,12.78-4.01,19.19l-1.03,4.81l-1.26,4.76
					c-0.84,3.17-1.68,6.35-2.53,9.54c-6.95,25.4-16.07,50.51-27.37,75.04c-1.07,2.57-2.53,5.91-4.3,9.8
					c-0.89,1.94-1.86,4.02-2.87,6.22c-1.05,2.18-2.05,4.53-3.36,6.83l-9.07,16.81l-1.13,2.1l-1.23,2.04l-2.48,4.08l-4.95,8.17
					l-2.48,4.08l-1.24,2.04l-1.34,1.98l-5.36,7.91l-5.36,7.91c-0.87,1.34-1.83,2.61-2.79,3.87l-2.87,3.81
					c0.74-0.81,1.19-1.23,1.32-1.21c0.14,0.17-1.16,2.19-3.37,5.31c-1.1,1.56-2.43,3.39-3.92,5.4c-0.75,1-1.53,2.05-2.34,3.14
					c-0.81,1.08-1.75,2.12-2.66,3.23c-40.74,49.95-91.77,91.18-149.51,120.59c-1.39,0.72-2.69,1.39-4.01,2.06l-3.32,1.73l-3.4,1.58
					l-6.8,3.16l-6.8,3.16l-3.41,1.57l-3.47,1.42l-13.89,5.67l-3.48,1.4l-3.54,1.25l-7.08,2.5l-7.08,2.5
					c-1.18,0.41-2.35,0.85-3.54,1.23l-3.59,1.08l-14.38,4.32c-1.2,0.35-2.39,0.74-3.6,1.06l-3.64,0.91l-7.29,1.81l-7.29,1.81
					c-1.22,0.29-2.43,0.62-3.65,0.89l-3.68,0.73l-14.74,2.93c-1.23,0.23-2.45,0.51-3.69,0.71l-3.72,0.56l-7.43,1.11l-7.44,1.11
					c-1.24,0.17-2.48,0.39-3.72,0.53l-3.74,0.38l-14.96,1.5c-1.25,0.11-2.49,0.27-3.74,0.35l-3.76,0.2l-7.51,0.39l-7.51,0.39
					c-1.25,0.06-2.5,0.15-3.76,0.17l-3.76,0.01l-15.05,0.05l-3.76,0l-3.76-0.17l-7.52-0.34c-80.3-3.4-159.51-28.72-227.79-71.57
					c-4.36-2.53-8.49-5.44-12.66-8.27c-4.16-2.85-8.37-5.63-12.48-8.56l-12.07-9.13l-6.03-4.58l-5.8-4.86l-11.6-9.74l-11.12-10.29
					l-5.55-5.16c-1.83-1.74-3.55-3.6-5.33-5.39l-10.59-10.85c-3.44-3.7-6.72-7.55-10.09-11.32l-5.02-5.68
					c-1.69-1.88-3.19-3.92-4.79-5.88l-9.48-11.85c-3.09-4.01-5.96-8.17-8.95-12.25l-4.44-6.15c-1.51-2.03-2.8-4.21-4.21-6.32
					l-8.29-12.73c-2.69-4.29-5.15-8.72-7.73-13.07L90.49,720c-1.3-2.18-2.38-4.47-3.58-6.7l-7.03-13.48
					c-2.24-4.54-4.28-9.18-6.44-13.77l-3.19-6.9c-1.06-2.3-1.93-4.68-2.91-7.02l-5.71-14.1c-1.77-4.75-3.38-9.56-5.08-14.34
					l-2.51-7.18c-0.79-2.41-1.47-4.86-2.21-7.28l-4.34-14.59c-1.27-4.91-2.44-9.85-3.67-14.78l-1.82-7.4l-1.48-7.47l-2.93-14.95
					l-2.22-15.08l-1.1-7.54l-0.74-7.59l-1.47-15.18l-0.75-15.24l-0.36-7.62l-0.01-7.63l0.02-15.27c0.09-4.5,0.47-11.47,0.79-14.73
					c0.36-3.81,0.56-3.17,0.48,1.3c0.17-0.14,0.47-1.33,0.42,0.16c-2.36,59.93,6.63,118.66,26.15,174.74
					c19.59,56.03,49.82,109.66,92.11,157.85l5.49,6.2l2.74,3.1c0.91,1.03,1.91,1.99,2.87,2.98c3.85,3.94,7.7,7.89,11.55,11.83
					c1.88,2.01,3.95,3.84,5.96,5.72l6.05,5.61l6.05,5.61c2.03,1.85,4.19,3.56,6.28,5.34c4.22,3.52,8.43,7.05,12.64,10.57
					c4.38,3.31,8.75,6.62,13.12,9.93l3.28,2.48c1.08,0.84,2.18,1.65,3.33,2.4l6.79,4.62l6.79,4.62c2.26,1.53,4.5,3.11,6.86,4.49
					c-2.43-1.45-4.71-3.13-7.01-4.73c-2.3-1.62-4.6-3.23-6.89-4.83c-2.29-1.61-4.57-3.21-6.84-4.81c-2.26-1.61-4.39-3.39-6.58-5.07
					c-4.34-3.4-8.64-6.78-12.91-10.14c-4.09-3.56-8.15-7.1-12.18-10.6c-1.99-1.77-4.05-3.45-5.95-5.28
					c-1.9-1.84-3.79-3.66-5.67-5.48c-1.88-1.82-3.74-3.63-5.6-5.43c-0.93-0.9-1.85-1.8-2.78-2.69c-0.93-0.89-1.84-1.79-2.7-2.74
					c-3.48-3.74-6.92-7.44-10.32-11.1c-1.67-1.85-3.44-3.59-5-5.5c-1.58-1.89-3.15-3.76-4.71-5.63
					c-37.85-42.31-68.01-92.03-87.97-145.18c-19.95-53.16-29.61-109.63-28.85-164.61l-0.28,4.54c0-4.9,0.08-9.64,0.2-13.17
					c0.03-1.77,0.21-3.24,0.34-4.28c0.13-1.04,0.26-1.66,0.36-1.73c0.21-0.5,0.29,1.24,0.27,4.34c0.12,3.11,0.2,7.58,0.21,12.55
					c0.3,25.67,2.68,51.35,7.13,76.7c4.58,25.34,11.29,50.3,19.94,74.6c8.66,24.3,19.3,47.92,31.82,70.56
					c12.65,22.56,27.2,44.07,43.42,64.28c16.24,20.19,34.1,39.12,53.54,56.35c19.51,17.15,40.46,32.67,62.56,46.42l8.34,5.08
					l4.17,2.54c1.39,0.85,2.85,1.57,4.27,2.36l17.18,9.31l17.63,8.44c1.48,0.69,2.93,1.44,4.42,2.08l4.51,1.88l9.02,3.77
					c24.15,9.83,49.11,17.7,74.6,23.42c51.04,11.2,104.03,13.55,156.04,7.11c52.01-6.55,102.86-22.24,149.78-45.8l8.74-4.54
					c2.9-1.54,5.87-2.95,8.67-4.67l17.01-9.94l16.52-10.73c1.4-0.87,2.72-1.85,4.05-2.81l4-2.88l7.99-5.76
					c21.06-15.72,40.77-33.24,58.86-52.31c36.38-38.01,65.38-82.85,86.73-130.89c33.81-76.54,45.46-161.51,34.77-243.38
					c-10.46-81.95-43.74-160.63-95.13-225.66c-1.91-2.42-3.77-4.79-5.56-7.07c-0.45-0.57-0.89-1.14-1.33-1.71
					c-0.46-0.54-0.92-1.08-1.37-1.61c-0.91-1.06-1.79-2.11-2.66-3.12c-3.45-4.07-6.53-7.77-9.06-10.9c-1.24-1.59-2.47-2.93-3.5-4.13
					c-1.04-1.2-1.91-2.25-2.6-3.11c-1.38-1.72-2.03-2.72-1.78-2.79c0.28-0.05,1.42,0.79,3.23,2.38c0.91,0.79,1.99,1.77,3.22,2.91
					c0.61,0.57,1.28,1.17,1.94,1.84c0.65,0.68,1.33,1.4,2.05,2.16c2.86,3.03,6.2,6.66,9.87,10.7c0.91,1.01,1.85,2.05,2.8,3.11
					c0.93,1.08,1.82,2.23,2.76,3.37c1.85,2.31,3.76,4.7,5.71,7.14l4.79,6.04c1.62,1.99,3.03,4.15,4.55,6.21l8.97,12.51
					c2.85,4.26,5.59,8.6,8.39,12.9l4.18,6.46l3.86,6.65c2.56,4.44,5.18,8.84,7.68,13.31l7.07,13.64l1.77,3.41
					c0.6,1.13,1.18,2.27,1.69,3.44l3.2,6.98l3.2,6.98c1.06,2.33,2.18,4.63,3.09,7.02l5.73,14.23l1.43,3.56
					c0.45,1.2,0.85,2.41,1.28,3.62l2.52,7.24l2.52,7.24c0.41,1.21,0.87,2.41,1.24,3.63l1.09,3.68l4.35,14.71
					c0.78,2.44,1.3,4.94,1.93,7.42l1.82,7.45l1.83,7.45c0.63,2.48,1.02,5.01,1.54,7.51l2.94,15.05c0.79,5.05,1.49,10.11,2.24,15.17
					l1.1,7.59l0.74,7.63c0.47,5.09,1.04,10.18,1.44,15.28l0.75,15.33l0.19,3.83c0.08,1.28,0.12,2.56,0.1,3.84l0,7.68
					c0.32,20.48-1.34,40.96-3.8,61.32l-2.25,15.23c-0.2,1.27-0.36,2.54-0.58,3.81l-0.75,3.78l-1.5,7.56l-1.5,7.56
					c-0.27,1.26-0.46,2.53-0.79,3.77l-0.94,3.74l-3.75,14.97c-5.61,19.79-11.95,39.47-20.21,58.43l-2.64,6.29
					c-0.87,2.1-1.74,4.2-2.76,6.23l-5.9,12.29l-2.95,6.14c-1.04,2.02-2.16,4-3.23,6l-6.5,11.96l-1.62,2.99
					c-0.55,0.99-1.17,1.94-1.75,2.91l-3.55,5.8l-7.09,11.6l-7.65,11.22l-3.83,5.61c-0.64,0.93-1.26,1.88-1.93,2.79l-2.05,2.7
					c-21.46,29.15-46.24,55.71-73.68,79.09c43.34-36.1,79.69-80.46,107.24-129.37c10.57-18.74,19.25-38.55,27.19-58.68
					c1.84-5.09,3.68-10.19,5.52-15.29c0.45-1.28,0.94-2.54,1.36-3.83l1.19-3.89l2.38-7.79c3.42-10.33,5.75-20.97,8.5-31.53
					c1.15-5.33,2.17-10.7,3.26-16.05c0.52-2.68,1.12-5.35,1.57-8.05l1.22-8.12l1.22-8.13c0.4-2.71,0.87-5.42,1.08-8.16
					c0.55-5.46,1.1-10.93,1.65-16.4c0.33-2.73,0.44-5.48,0.58-8.23l0.43-8.26l0.43-8.27c0.09-2.76,0.04-5.52,0.07-8.28
					c-0.02-5.53,0.12-11.06-0.01-16.6c-0.24-5.54-0.49-11.08-0.73-16.62c-1.62-26.46-5.45-52.57-11.36-78.06
					c-2.85-12.77-6.53-25.3-10.39-37.72c-2.11-6.16-4.22-12.31-6.33-18.45c-2.4-6.04-4.79-12.07-7.18-18.1
					c-10.06-23.91-22.06-46.91-35.83-68.76c-13.78-21.84-29.27-42.63-46.68-61.76c-34.68-38.33-75.75-71.27-122.05-96.1
					c-2.88-1.57-5.77-3.14-8.65-4.71c-2.9-1.54-5.91-2.88-8.87-4.33c-2.97-1.42-5.94-2.85-8.91-4.28l-4.46-2.14
					c-1.5-0.68-3.04-1.29-4.56-1.93c-6.1-2.54-12.19-5.14-18.33-7.63c-6.24-2.24-12.49-4.49-18.76-6.73
					c-25.26-8.42-51.44-14.76-78.25-18.74c-25.96-3.84-51.38-5.47-76.04-4.73c-24.66,0.65-48.54,3.21-71.61,7.32
					c-23.03,4.4-45.19,10.38-66.55,17.66c-5.29,1.95-10.57,3.89-15.83,5.83c-2.65,0.91-5.19,2.09-7.77,3.16
					c-2.57,1.09-5.14,2.18-7.7,3.26c-2.56,1.09-5.13,2.15-7.67,3.27c-2.5,1.21-5,2.41-7.49,3.61l-7.47,3.6
					c-2.49,1.19-4.99,2.37-7.39,3.74c-4.85,2.63-9.68,5.26-14.52,7.88c-2.45,1.25-4.74,2.79-7.1,4.18l-7.04,4.27l-7.02,4.28
					l-6.81,4.6l-6.81,4.6c-2.26,1.54-4.57,3.02-6.73,4.71c-4.39,3.28-8.77,6.56-13.17,9.85c-2.23,1.59-4.31,3.39-6.43,5.13
					l-6.35,5.25l-6.36,5.25c-2.06,1.83-4.08,3.7-6.12,5.55c-2.04,1.86-4.07,3.71-6.12,5.57l-3.06,2.79l-1.53,1.4l-1.46,1.47
					c-3.9,3.92-7.81,7.85-11.74,11.8c-0.97,0.99-1.98,1.95-2.92,2.98l-2.8,3.11c-1.87,2.07-3.74,4.14-5.61,6.22
					c-1.87,2.08-3.75,4.15-5.63,6.24c-1.85,2.11-3.57,4.34-5.37,6.51c-1.78,2.18-3.57,4.37-5.36,6.56l-2.69,3.29
					c-0.91,1.09-1.8,2.19-2.62,3.35c-3.37,4.57-6.76,9.16-10.17,13.77c-0.84,1.16-1.73,2.29-2.54,3.47l-2.39,3.6
					c-1.59,2.4-3.19,4.8-4.79,7.21c-1.6,2.41-3.21,4.82-4.82,7.24c-1.55,2.46-3,5-4.51,7.5c-1.5,2.51-3,5.03-4.51,7.56
					c-1.48,2.54-3.1,5.01-4.43,7.66c-3.87,7.35-8.43,15.4-10.3,18.16c-0.95,1.53-1.08,1.41-0.51-0.03c0.59-1.41,1.92-4.08,3.85-7.74
					c42.08-81.68,106.53-147.63,186.07-191.43l7.5-4.06c2.51-1.34,4.98-2.77,7.57-3.94c5.14-2.47,10.28-4.94,15.44-7.42l1.94-0.93
					l1.98-0.84l3.96-1.67c2.64-1.12,5.29-2.23,7.94-3.35c2.66-1.09,5.28-2.3,7.98-3.3c2.71-0.99,5.41-1.99,8.13-2.98
					c10.78-4.2,21.94-7.47,33.12-10.94c5.66-1.48,11.34-2.96,17.04-4.45c1.43-0.36,2.85-0.77,4.28-1.09l4.33-0.91
					c2.89-0.61,5.79-1.22,8.69-1.83c2.9-0.6,5.81-1.24,8.73-1.81c2.94-0.47,5.88-0.94,8.83-1.41c2.95-0.47,5.91-0.94,8.87-1.42
					c1.48-0.22,2.96-0.5,4.45-0.68l4.49-0.5c5.99-0.64,12-1.37,18.05-1.94c6.07-0.37,12.16-0.74,18.28-1.12
					c24.5-0.96,49.53-0.07,74.86,2.94c6.69,0.96,13.41,1.77,20.07,2.86c6.63,1.26,13.26,2.53,19.87,3.79
					c6.57,1.49,13.09,3.16,19.63,4.73c1.63,0.42,3.28,0.75,4.89,1.25l4.83,1.44l9.66,2.89c25.64,7.99,50.5,18.18,74.31,30.31
					c5.88,3.18,11.75,6.36,17.62,9.54c1.48,0.77,2.9,1.65,4.32,2.52l4.27,2.61l8.54,5.21l4.27,2.61c1.41,0.89,2.76,1.86,4.15,2.79
					l8.26,5.64c2.74,1.9,5.53,3.73,8.23,5.68l7.96,6.05c21.22,16.11,41.16,33.93,59.25,53.53c36.13,39.21,65.51,84.65,86.54,134.08
					c20.87,49.49,33.25,102.91,36.18,157.52c0.16,3.7,0.32,7.39,0.48,11.07c0.06,1.84,0.2,3.68,0.19,5.52l-0.03,5.52
					c-0.02,3.68-0.04,7.35-0.05,11.02c-0.02,1.83,0,3.67-0.05,5.5l-0.29,5.49c1.15-24.04,0.68-48.09-1.72-71.86
					c-2.55-23.75-6.78-47.19-12.59-70.11l-4.84-16.61c-0.75-2.79-1.78-5.48-2.69-8.21l-2.81-8.17c-0.95-2.72-1.83-5.46-2.85-8.15
					l-3.19-8.02l-3.19-8.02l-1.6-4.01l-1.78-3.93l-7.13-15.71c-2.55-5.15-5.23-10.24-7.83-15.37c-2.52-5.17-5.49-10.1-8.34-15.09
					c-2.88-4.97-5.63-10.02-8.83-14.8l-9.32-14.5l-9.99-14.05l-2.5-3.51c-0.84-1.16-1.76-2.27-2.64-3.4l-5.33-6.77l-5.33-6.77
					c-0.87-1.15-1.81-2.23-2.76-3.31l-2.83-3.25c-3.79-4.32-7.5-8.71-11.36-12.97l-11.95-12.44l-2.99-3.11l-3.13-2.97l-6.28-5.92
					l-6.28-5.92c-1.03-1.01-2.13-1.93-3.23-2.86l-3.29-2.8c-4.39-3.72-8.74-7.51-13.18-11.17l-13.7-10.54l-3.43-2.64
					c-1.14-0.89-2.36-1.66-3.53-2.5l-7.12-4.92c-4.76-3.26-9.43-6.67-14.4-9.6c-4.91-3.04-9.82-6.08-14.74-9.12
					c-5.02-2.85-10.12-5.6-15.18-8.4c-2.55-1.37-5.04-2.84-7.63-4.13l-7.81-3.8l-7.82-3.8c-2.61-1.26-5.19-2.58-7.89-3.66
					c-5.34-2.27-10.68-4.53-16.03-6.8c-2.65-1.19-5.39-2.15-8.12-3.15l-8.19-3l-8.2-2.99c-2.75-0.94-5.55-1.74-8.33-2.62l-8.35-2.58
					l-4.18-1.29c-1.39-0.44-2.79-0.86-4.21-1.2c-5.65-1.44-11.31-2.88-16.97-4.32c-1.42-0.35-2.83-0.75-4.25-1.05l-4.3-0.87
					l-8.6-1.73l-8.61-1.73c-2.89-0.49-5.79-0.89-8.69-1.33l-8.7-1.3c-2.9-0.41-5.8-0.94-8.73-1.17
					c-36.21-4.17-72.55-4.06-108.21,0.07c-2.24,0.18-4.45,0.55-6.67,0.88l-6.65,0.99l-6.65,0.99c-2.21,0.35-4.44,0.6-6.63,1.08
					l-13.16,2.61l-6.57,1.31c-2.18,0.5-4.34,1.07-6.51,1.6l-12.99,3.24c-2.18,0.5-4.31,1.14-6.44,1.8l-6.41,1.93
					c-4.26,1.31-8.56,2.5-12.78,3.92l-12.6,4.45l-6.3,2.23c-2.09,0.76-4.13,1.66-6.2,2.48l-12.36,5.05l-3.09,1.26l-3.03,1.41
					l-6.05,2.81c-4.03,1.89-8.09,3.71-12.09,5.67l-11.83,6.2l-5.91,3.1c-1.99,1-3.86,2.22-5.8,3.31
					c-7.67,4.53-15.45,8.87-22.82,13.91l-11.2,7.32l-10.85,7.85c-7.35,5.08-14.2,10.84-21.22,16.4c-3.55,2.72-6.87,5.74-10.23,8.7
					c-3.36,2.96-6.73,5.93-10.09,8.9c-3.28,3.06-6.46,6.24-9.69,9.36l-4.84,4.7l-2.42,2.35c-0.79,0.81-1.54,1.64-2.31,2.46
					c-3.08,3.34-6.15,6.61-9.06,9.68c-1.46,1.53-2.88,3.01-4.23,4.42c-1.33,1.44-2.53,2.86-3.71,4.16
					c-4.66,5.23-8.21,8.99-9.57,10.08c-1.36,1.09-0.2-0.8,2.77-4.73c1.49-1.96,3.43-4.44,5.73-7.3
					C151.42,180.04,154.28,176.96,157.39,173.59z M474.59,954.74c31.55,1.45,63.32-0.27,94.58-5.11
					c-61.35,9.18-124.63,5.88-184.91-9.98c-60.28-15.82-117.5-44.03-167.21-82.56c35.88,28.5,77.23,51.96,121.16,68.71
					C382.17,942.5,428.73,952.32,474.59,954.74z"/>
				<path class="st4" d="M332.61,914.59c3.92,1.79,8.01,3.18,12.06,4.71c4.06,1.5,8.13,3.01,12.2,4.52
					c4.1,1.43,8.29,2.63,12.43,3.96l6.24,1.95c2.09,0.63,4.15,1.36,6.27,1.85c16.85,4.48,33.89,8.44,51.05,10.88
					c34.25,5.22,68.52,6.14,100.49,3.35c3.04-0.27,4.87-0.64,3.29-0.61c-1.61,0.08-5.19,0.18-8.74,0.4
					c-30.62,2.37-63.69,1.27-96.72-3.89c-33.03-5.14-66.01-14.21-96.47-26.76c-3.67-1.56-6.71-2.75-7.06-2.73
					C327.01,912.06,329.56,913.28,332.61,914.59z"/>
				<path class="st4" d="M578.52,939.33c51.95-9.74,102.92-28.61,149.63-56.04c23.35-13.71,45.63-29.55,66.41-47.36
					c20.79-17.8,40.09-37.57,57.39-59.13c34.64-43.05,61.78-92.87,79.26-146.24c8.72-26.69,15.01-54.29,18.59-82.33
					c3.57-28.04,4.51-56.49,2.77-84.85c-1.51-23.04-4.65-45.82-9.33-68.18c-4.89-22.32-11.45-44.13-19.38-65.36
					c-2.09-5.27-4.17-10.53-6.26-15.79c-2.28-5.18-4.65-10.31-6.97-15.46c-2.22-5.2-4.96-10.15-7.49-15.19l-3.86-7.54
					c-0.62-1.27-1.33-2.49-2.04-3.71l-2.11-3.67c-10.88-19.77-23.63-38.43-37.44-56.21l-5.23-6.64l-2.61-3.32
					c-0.89-1.09-1.84-2.13-2.76-3.2l-11.1-12.74c-3.81-4.15-7.79-8.14-11.68-12.22l-2.93-3.05c-0.97-1.02-1.95-2.04-3-2.98
					l-6.17-5.79l-6.17-5.8c-1.04-0.96-2.03-1.96-3.11-2.87l-3.23-2.74c-4.3-3.66-8.61-7.31-12.92-10.97
					c-4.45-3.48-8.97-6.89-13.46-10.34l-3.37-2.58l-1.69-1.29l-1.75-1.2l-7.01-4.82l-7.01-4.82c-1.18-0.79-2.32-1.64-3.53-2.38
					l-3.63-2.23c-4.84-2.98-9.68-5.95-14.53-8.94c-4.94-2.82-9.98-5.49-14.98-8.24c-2.52-1.34-4.98-2.8-7.54-4.05l-7.72-3.72
					l-7.73-3.72l-3.87-1.86c-1.3-0.6-2.63-1.12-3.95-1.69c-5.28-2.22-10.57-4.44-15.87-6.66l-1.99-0.83l-2.03-0.73l-4.06-1.46
					l-8.12-2.93c-2.72-0.95-5.4-2-8.15-2.88l-8.28-2.51c-28.99-8.93-58.8-14.82-88.21-17.56c-29.41-2.76-58.39-2.39-85.77,0.59
					c-4.7,0.51-7.31,0.97-5.57,0.99c2.04,0.02,7.1-0.39,12.3-0.95c57.54-5.1,116.92,1.43,173.08,19.72
					c56.16,18.24,109.16,47.92,154.34,86.91c45.24,38.95,82.54,87.3,108.99,140.95c13.25,26.82,23.82,54.94,31.54,83.77
					c7.75,28.83,12.52,58.41,14.44,88.08c1.84,28.25,1.05,56.71-2.47,84.81c-3.53,28.1-9.74,55.85-18.47,82.73
					c-17.49,53.75-44.93,104.1-80.12,147.51c-17.62,21.7-37.12,41.75-58.28,59.63c-21.14,17.91-43.81,33.79-67.56,47.45
					c-47.5,27.37-99.26,45.78-151.66,55c-2.81,0.45-4.32,0.83-3.24,0.8C571.65,940.33,575.76,939.87,578.52,939.33z"/>
				<path class="st4" d="M797.85,148.84c24.83,21.22,47.41,45.01,66.98,71.1c19.56,26.1,36.3,54.32,49.85,84.08
					c13.52,29.77,24.01,61.04,30.75,93.29c6.71,32.24,9.92,65.35,9.4,98.62l-0.06,6.73c0.01,2.24-0.22,4.48-0.32,6.71
					c-0.26,4.47-0.52,8.93-0.77,13.39l-0.19,3.34l-0.36,3.33l-0.71,6.65c-0.5,4.43-0.87,8.86-1.46,13.27
					c-2.6,17.6-5.6,35.13-10.17,52.36c-1.13,4.31-2.13,8.66-3.35,12.96c-1.31,4.27-2.62,8.55-3.94,12.83l-1.96,6.43
					c-0.65,2.15-1.5,4.23-2.23,6.36c-1.52,4.23-3.05,8.47-4.58,12.73l-1.14,3.19c-0.4,1.06-0.86,2.09-1.29,3.14
					c-0.87,2.09-1.74,4.19-2.62,6.28c-1.75,4.19-3.5,8.4-5.26,12.62c-1.96,4.13-3.92,8.27-5.89,12.43
					c-1.98,4.15-3.85,8.38-6.13,12.42c-2.93,5.48-5.83,10.91-8.71,16.31c-3.15,5.24-6.28,10.45-9.39,15.62
					c-0.78,1.29-1.55,2.59-2.33,3.88c-0.81,1.26-1.67,2.5-2.5,3.75c-1.67,2.49-3.34,4.97-5,7.45c-1.66,2.48-3.32,4.95-4.98,7.42
					c-1.72,2.42-3.53,4.76-5.29,7.14c-1.77,2.37-3.53,4.73-5.3,7.09c-1.77,2.36-3.48,4.75-5.4,6.97c-3.75,4.52-7.48,9.02-11.2,13.52
					c-0.91,1.14-1.9,2.21-2.89,3.28l-2.96,3.22c-1.97,2.15-3.94,4.29-5.9,6.43l-2.95,3.21l-1.47,1.61l-1.55,1.53l-6.21,6.11
					c-8.12,8.32-16.97,15.87-25.72,23.58c-4.55,3.65-9.1,7.31-13.67,10.98c-2.25,1.88-4.65,3.57-7.03,5.29
					c-2.38,1.72-4.77,3.45-7.16,5.18c-19.26,13.62-39.83,26.1-62.07,36.94c-2.93,1.42-5.89,2.79-6.57,3.29
					c-0.05,0.17,2.08-0.67,5.1-2.02c48.36-23.29,90.79-54.55,126.8-91.74l13.17-14.27c4.21-4.91,8.31-9.93,12.48-14.9
					c1.02-1.26,2.11-2.46,3.08-3.76l2.92-3.89l5.85-7.78l2.93-3.89l1.46-1.95l1.36-2.02c1.82-2.7,3.64-5.39,5.46-8.09
					c1.82-2.7,3.65-5.4,5.48-8.1c1.76-2.75,3.4-5.58,5.11-8.37c1.69-2.8,3.39-5.6,5.09-8.41c0.84-1.41,1.72-2.79,2.52-4.22
					l2.33-4.34c1.56-2.9,3.12-5.8,4.68-8.7l2.35-4.36c0.79-1.45,1.59-2.9,2.27-4.41c2.84-5.98,5.69-11.97,8.56-17.99
					c40.75-90.33,50.8-191.76,29.87-286.35l-4.24-17.65c-1.57-5.84-3.36-11.63-5.02-17.44l-1.27-4.36c-0.46-1.44-0.98-2.86-1.46-4.3
					l-2.96-8.58c-1-2.86-1.94-5.73-2.98-8.57l-3.37-8.43c-8.91-22.49-19.44-44.39-32.01-65.12c-12.48-20.77-26.59-40.58-42.21-59.21
					c-4.02-4.56-8.04-9.11-12.07-13.67c-0.98-1.16-2.04-2.26-3.11-3.33l-3.19-3.26l-6.38-6.53c-4.16-4.45-8.75-8.46-13.2-12.63
					l-6.71-6.21c-2.28-2.03-4.67-3.93-6.99-5.9c-3.17-2.67-5.21-4.21-5.44-4.23C792.48,144.16,795.05,146.49,797.85,148.84z"/>
				<path class="st4" d="M941.77,667.21c-14.58,35.72-33.67,70.45-56.72,102.56c-23.37,31.87-50.57,61.1-80.54,86.24
					c-3.81,3.06-7.62,6.11-11.42,9.16c-1.91,1.51-3.78,3.07-5.71,4.55c-1.97,1.43-3.93,2.86-5.89,4.28
					c-3.92,2.85-7.84,5.7-11.74,8.54c-4,2.69-8.05,5.31-12.05,7.95c-2.01,1.32-4.01,2.64-6.01,3.95l-1.5,0.99l-1.54,0.91l-3.08,1.82
					c-4.11,2.43-8.2,4.86-12.28,7.27c-1.02,0.6-2.03,1.22-3.07,1.8l-3.13,1.66c-2.09,1.11-4.17,2.21-6.25,3.32
					c-2.08,1.1-4.15,2.21-6.23,3.31c-2.08,1.09-4.12,2.25-6.25,3.2c-33.54,16.5-67.78,28.74-101.06,37.1
					c-3.51,0.96-3.98,1.25-1.6,0.8c2.34-0.44,7.25-1.59,10.54-2.48c2.04-0.54,4.1-1.09,6.15-1.64l3.09-0.82
					c1.03-0.29,2.04-0.63,3.07-0.95c4.09-1.29,8.2-2.58,12.33-3.89c2.07-0.65,4.14-1.3,6.22-1.95c2.06-0.7,4.1-1.49,6.17-2.23
					c4.12-1.5,8.25-3.01,12.41-4.53l3.12-1.14c1.03-0.4,2.05-0.85,3.08-1.27c2.05-0.86,4.11-1.72,6.17-2.58
					c4.12-1.73,8.26-3.46,12.42-5.2c4.08-1.93,8.17-3.86,12.29-5.8c4.11-1.95,8.28-3.82,12.29-6.04
					c8.09-4.32,16.34-8.46,24.25-13.35c3.99-2.38,8.04-4.69,12.02-7.14c3.91-2.56,7.83-5.13,11.76-7.71
					c1.97-1.29,3.93-2.58,5.9-3.87c1.96-1.31,3.83-2.75,5.75-4.12c3.82-2.77,7.66-5.55,11.5-8.33c1.95-1.35,3.78-2.87,5.64-4.35
					l5.57-4.46l5.58-4.46c1.87-1.48,3.74-2.97,5.5-4.58c29.02-24.86,55.59-53.34,78.15-84.56c22.42-31.32,40.99-65.11,55.22-99.82
					c0.69-1.67,1.36-3.28,1.98-4.76c0.52-1.52,1-2.92,1.41-4.13c0.8-2.43,1.3-4.11,1.31-4.53c-0.07-0.19-0.59,0.87-1.42,2.87
					C944.33,660.79,943.32,663.77,941.77,667.21z"/>
				<path class="st4" d="M300.03,903.16c31.94,15.66,65.65,27.7,100.25,35.75c34.64,7.89,70.14,11.6,105.47,11.35l6.63,0.01
					l6.62-0.32l13.22-0.64c2.21-0.06,4.4-0.32,6.59-0.53l6.58-0.64l6.58-0.64c2.19-0.23,4.39-0.37,6.56-0.74l13.06-1.91l6.52-0.96
					l6.47-1.26l12.92-2.54c2.16-0.38,4.28-0.94,6.41-1.46l6.38-1.58c33.99-8.41,66.94-20.47,97.63-36.38
					c29.69-14.85,57.77-32.89,83.53-53.77c1.62-1.29,3.26-2.56,4.86-3.88l4.67-4.1l9.34-8.2l2.34-2.05l2.24-2.16l4.46-4.33
					l8.92-8.65c2.89-2.97,5.66-6.04,8.5-9.06c2.8-3.05,5.69-6.01,8.41-9.13l7.98-9.5l3.99-4.75c0.66-0.8,1.34-1.57,1.98-2.39
					l1.87-2.47c5.75-7.54,10.18-13.82,9.88-14.03c-0.28-0.22-5.19,5.72-10.92,13.24c-20.55,26.18-44.21,49.75-70.03,70.61
					c0.7-0.7,0.92-1.03,0.63-0.95c45.04-36.88,82.8-82.61,110.72-133.74c28.02-51.09,46.28-107.5,53.09-165.28
					c0.64-6.43,0.93-11.3,0.7-11.25c-0.24-0.07-0.95,5.1-1.58,11.47c-3.6,29.96-10.21,59.53-19.68,88.15
					c-9.46,28.62-21.79,56.27-36.63,82.47c-29.64,52.43-69.68,98.84-117.18,135.63c-0.88,0.68-1.8,1.38-2.75,2.11
					c-0.95,0.72-1.98,1.4-3,2.13c-2.05,1.47-4.19,3.01-6.39,4.58c-20.52,14.81-42.05,27.96-64.53,39.12
					c-22.51,11.08-45.85,20.34-69.82,27.71c-47.91,14.89-98.53,21.5-149.85,19.75c-4.57-0.21-9.13-0.42-13.69-0.64
					c-2.28-0.05-4.55-0.37-6.82-0.56l-6.8-0.66l-6.8-0.66l-3.4-0.33c-1.13-0.14-2.25-0.33-3.37-0.49c-4.5-0.66-8.99-1.33-13.48-1.99
					c-2.24-0.36-4.5-0.6-6.72-1.05l-6.66-1.33c-4.44-0.89-8.88-1.78-13.31-2.66c-4.4-1.02-8.77-2.19-13.15-3.28l-6.56-1.66
					l-3.28-0.83l-3.23-1c-34.62-10.1-67.83-24.23-98.96-41.87c-31.2-17.54-60.03-39.04-86.13-63.46
					c-26.08-24.45-49.56-51.85-69.28-82.04c-31.34-47.47-54.31-100.13-66.5-156.72c-1.15-5.96-2.31-11.94-3.47-17.92
					c-0.99-6.02-1.76-12.08-2.65-18.11l-0.65-4.53c-0.18-1.51-0.29-3.03-0.45-4.55c-0.28-3.03-0.57-6.06-0.85-9.09
					c-0.28-3.02-0.56-6.04-0.84-9.06c-0.14-3.02-0.28-6.04-0.42-9.05c-0.8-12.03-0.59-23.95-0.6-35.62c0.25-5.83,0.5-11.6,0.74-17.3
					c0.06-1.43,0.12-2.85,0.18-4.26c0.12-1.41,0.25-2.82,0.37-4.22c0.24-2.8,0.48-5.59,0.71-8.35c2.67-30.49,8.12-59.07,15.66-86.07
					c7.57-26.99,17.13-52.45,28.67-76.71c1.37-2.98,1.42-3.32,0.16-1.13c-0.91,1.62-2.91,5.71-4.01,8.22
					c-11.14,24.33-20.96,50.83-27.96,78.15c-7.05,27.31-11.51,55.32-13.28,82.25c-2.4,26.27-2.53,52.63-0.44,78.72l0.95,9.77
					l0.47,4.88c0.16,1.63,0.29,3.26,0.56,4.87c0.94,6.46,1.89,12.92,2.83,19.38c1.24,6.4,2.49,12.8,3.73,19.2
					c0.55,3.21,1.44,6.35,2.19,9.51l2.34,9.48c6.57,25.17,15.25,49.72,25.9,73.32c10.65,23.6,23.23,46.3,37.86,67.58l2.03,3.19
					l2.17,3.08c1.45,2.05,2.89,4.1,4.34,6.15c1.44,2.05,2.88,4.09,4.32,6.13c0.72,1.02,1.42,2.05,2.16,3.05l2.3,2.95
					c3.06,3.93,6.1,7.85,9.14,11.76c0.77,0.97,1.5,1.97,2.29,2.92l2.42,2.81l4.83,5.62l4.82,5.62c0.81,0.93,1.59,1.88,2.42,2.8
					l2.54,2.68c3.39,3.58,6.77,7.15,10.15,10.72l2.54,2.68l2.66,2.55l5.33,5.1l5.33,5.1l2.67,2.55c0.9,0.84,1.85,1.62,2.78,2.43
					c7.48,6.4,14.79,13.05,22.75,18.96c1.96,1.52,3.91,3.04,5.87,4.57c1.98,1.5,3.88,3.11,5.95,4.49c4.08,2.85,8.18,5.7,12.28,8.57
					c2.07,1.4,4.07,2.93,6.22,4.23c2.13,1.33,4.27,2.66,6.41,3.99c4.29,2.64,8.56,5.37,12.93,7.97c4.46,2.45,8.93,4.91,13.43,7.38
					c2.25,1.23,4.5,2.48,6.78,3.69C295.37,900.92,297.7,902.04,300.03,903.16z"/>
			</g>
		</g>
	</g>
	<g>
		<g>
			<g>
				<path class="st5" d="M249.76,307.87c-2.71,3.06-6.98,10.73-11.85,21.78c-1.81,3.85-3.59,8.02-5.36,12.48
					c-2.17,5.47-3.91,10.39-5.53,15.46c-4.16,11.97-8.27,25.51-11.9,40.01c-1.03,4.09-2.05,7.76-3.06,11.08l-1.51,4.67
					c0,0,0,0-0.01,0.01c-1.97,5.87-3.91,10.35-5.75,13.78c-1.93,3.2-3.85,5.76-5.75,7.66c-2.44,2.44-4.37,3.36-5.79,2.75
					c0,0-1.67,2.91,3.47,3.85c5.47-0.66,17.65-6.69,29.3-43.72c0-0.01,0.01-0.04,0.01-0.05c1.24-3.28,2.42-6.54,3.5-9.77
					c2.04-6.1,3.66-10.77,4.88-14.02c0.81-2.46,1.86-5.56,3.13-9.28c12.78-33.14,26.02-56.35,34.26-56.69
					C271.8,307.87,256.51,300.22,249.76,307.87z"/>
				<path class="st5" d="M494.46,372.75c-2.08-0.5-3.89-0.26-5.44,0.79c-1.55,1.03-2.72,2.6-3.5,4.67
					c-0.79,2.07-1.05,4.15-0.79,6.22c0.26,2.08,1.43,3.38,3.51,3.89c2.07,1.05,3.89,0.91,5.44-0.4c1.55-1.27,2.72-2.96,3.5-5.05
					c0.79-2.07,1.03-4.01,0.79-5.84C497.7,375.24,496.53,373.81,494.46,372.75z"/>
				<path class="st5" d="M785.64,397.94c-0.4-0.62-1.01-0.51-1.82,0.3c-6.52,6.5-12.2,11.39-17.08,14.64
					c-6.91,4.47-11.58,4.98-14.02,1.52s-5.49-8.03-9.15-13.72c-1.63-2.04-3.16-2.85-4.57-2.44c-1.43,0.4-3.77,2.44-7,6.1
					c-1.63,2.04-3.77,4.68-6.41,7.92c-2.64,3.27-5.18,5.71-7.62,7.33c-2.85,1.62-4.57,1.21-5.18-1.23c-0.61-2.43-0.4-5.57,0.61-9.45
					c1.01-3.86,2.75-7.83,5.18-11.89c2.44-4.06,5.29-7.11,8.54-9.15c2.44-1.62,4.26-1.73,5.49-0.31c1.21,1.43,2.02,3.36,2.44,5.8
					c0,0.81,0.3,1.21,0.9,1.21c0.62,0,0.92-0.4,0.92-1.21c-0.4-7.33-3.87-10.57-10.36-9.76c-3.66,0.4-7.11,2.04-10.36,4.87
					c-3.27,2.85-6.01,6.21-8.23,10.07c-0.03,0.05-0.07,0.12-0.09,0.18c-3.97,4.74-8.3,9.76-13.01,15.06
					c-4.89,5.49-10.18,10.07-15.86,13.72c-2.44,1.63-4.89,2.55-7.33,2.75c-2.43,0.2-4.67-1.12-6.71-3.97
					c-2.43-3.25-4.47-7.72-6.09-13.41c-1.63-5.69-3.87-9.96-6.72-12.81c-2.43-2.44-4.98-2.75-7.61-0.92
					c-2.66,1.82-4.99,3.76-7.02,5.79c-4.48,5.69-8.65,13.02-12.5,21.96c-2.36,5.42-4.31,10.5-5.82,15.17
					c0.63-20.07,2.55-47.27,8.12-54.19l-1.69-4.05c0,0-7.08-5.91-13.49,0c-1.89,1.74-3.7,9.18-4.86,18.89
					c-4.63,4.32-8.77,7.71-12.46,10.16c-0.93,0.61-1.84,1.13-2.69,1.59l-0.01,0.01c0,0-0.07,0.04-0.19,0.11
					c-0.09,0.04-0.19,0.09-0.28,0.15c-0.09,0.04-0.19,0.08-0.28,0.13c0,0,0,0-0.01,0c-1.59,0.73-5.4,1.88-8.68-1.74
					c-4.28-4.72-7.88-16.42-12.82-16.42c-4.95,0-11.11,9.24-11.11,9.24c0.01,0,0.01,0,0.01,0c-1.42,1.75-3.12,3.86-5.1,6.3
					c-2.66,3.27-5.18,5.71-7.62,7.33c0,0-4.6,1.13-5.51-3.39c-0.12-2.05,0.19-4.48,0.93-7.29c0.26-0.96,0.55-1.93,0.89-2.91
					c0,0,0-0.01,0.01-0.03c0.07-0.2,0.15-0.42,0.24-0.65c0.03-0.08,0.07-0.16,0.09-0.24c0.51-1.3,1.04-2.51,1.55-3.64
					c0.7-1.46,1.5-2.93,2.39-4.41c2.44-4.06,5.28-7.11,8.54-9.15c0.31-0.2,0.61-0.38,0.89-0.54c0.03-0.01,0.04-0.01,0.07-0.03
					c1.79-0.62,3.35-0.45,4.52,0.26c1.23,1.43,2.04,3.36,2.44,5.8c0,0.81,0.31,1.21,0.92,1.21c0.61,0,0.92-0.4,0.92-1.21
					c-0.42-7.33-3.87-10.57-10.38-9.76c-0.46,0.05-0.92,0.12-1.36,0.22c-2.43-0.03-5.53,0.67-9.45,2.77
					c-5.52,2.96-9.74,9.37-11.89,16.07c-3.67,3.43-8.3,7.23-13.89,11.43c-8.14,6.1-15.45,10.16-21.96,12.2
					c-1.63,0.5-3.01,0.66-4.13,0.51c-4.64-1.9-1.04-15.49,1.93-25.14c3.6-11.7-15.82-6.76-12.15-6.36c0.47,0.05,0.4,1.5,0.13,3.81
					c-1.44,1.69-3.91,4.97-7.44,9.8c-4.26,5.9-9.35,12.29-15.24,19.2c-5.9,6.92-11.79,13.32-17.69,19.22
					c-5.9,5.9-10.88,9.45-14.94,10.67c-4.48,1.21-7.22-1.23-8.23-7.33c-1.03-6.1-1.32-13.31-0.92-21.65
					c0.22-4.47,0.55-8.81,1.01-13.04l0.82-6.67c0.19-1.38,0.39-2.73,0.61-4.08c1.21-7.52,1.84-11.89,1.84-13.12l1.21-4.26
					c1.62-8.54,3.97-19.22,7.02-32.02c3.05-12.79,6.8-25.6,11.28-38.41c4.47-12.81,9.54-24.71,15.24-35.68
					c5.69-10.97,12.2-19.11,19.51-24.38c8.54-5.69,15.56-6.3,21.04-1.84c5.49,4.48,6.41,12.4,2.75,23.78c0,0-0.01,0.04-0.04,0.09
					c-0.66,1.47-8.45,18.6-20.5,41c-2.7,5.03-5.61,10.34-8.72,15.8c-13.87,24.34-31.38,51.64-49.61,71.37l-0.85,6.4
					c20.19-19.93,46.87-56.14,75.69-119.68c0.04-0.07,0.07-0.15,0.11-0.22c2-4.2,3.91-8.5,5.74-12.93
					c4.47-12.2,3.86-21.35-1.82-27.45c-5.69-6.1-14.44-6.1-26.22,0c-6.52,3.67-12.51,9.26-17.99,16.77
					c-5.49,7.53-10.47,15.86-14.95,25.01c-4.47,9.15-8.33,18.39-11.58,27.75c-3.27,9.35-5.9,17.68-7.93,25.01
					c-1.21,4.47-2.74,10.97-4.56,19.51c-1.84,8.53-3.47,17.68-4.88,27.43c-0.23,1.57-0.43,3.12-0.62,4.68l-0.57,4.93
					c-0.5,4.7-0.85,9.39-1.07,14.09l-0.18,5.13l-0.01,0.45c-0.2,9.76,0.71,17.89,2.75,24.4c1.21,4.48,3.35,8.03,6.4,10.67
					c3.05,2.63,7.02,2.52,11.89-0.31c4.89-2.83,10.16-7.11,15.86-12.81c5.7-5.68,11.08-11.69,16.17-17.99
					c5.07-6.3,9.65-12.2,13.71-17.69c2.12-2.86,3.91-5.25,5.38-7.17c-0.66,5.56-1.31,12.97,0.11,19.07c0.82,4.48,2.83,6.8,6.1,7
					c3.24,0.22,6.29-0.09,9.15-0.9c6.49-2.04,13.91-6.19,22.25-12.51c4.57-3.45,8.57-6.71,11.98-9.74
					c-0.36,1.89-0.57,3.75-0.57,5.52c0,6.68,2.77,12.08,9.24,12.47c0,0,0,0,0.01,0c0.03,0.01,0.07,0.01,0.09,0.01
					c0.05,0.01,0.11,0,0.15,0.01h0.05c0.53,0.05,1.05,0.04,1.59-0.04c2.63-0.39,5.18-1.62,7.62-3.66c2.43-2.02,4.78-4.47,7-7.31
					c2.24-2.85,4.17-5.28,5.8-7.31c0.04-0.04,0.07-0.07,0.11-0.09c4.41,2.33,9.14,12.24,17.18,14.17c1.09,0.38,2.24,0.55,3.44,0.55
					c3.66,0,8.33-2.02,14.03-6.1c2.43-2.02,4.87-4.06,7.31-6.1c0.9-0.76,1.88-1.61,2.94-2.58c-2.31,23.39-0.77,56.79,11.97,58.61
					c0,0-0.05-5.37,0.08-13.29c0-0.01,0-0.01,0-0.01c1.31-5.65,3.33-11.97,6.05-18.93c4.26-10.98,9.04-19.51,14.32-25.61
					c3.67-4.47,6.5-4.89,8.54-1.23c2.02,3.67,3.97,8.14,5.79,13.43c1.84,5.28,4.78,9.35,8.85,12.19c2.83,2.04,5.99,2.66,9.45,1.84
					c3.45-0.81,6.19-2.04,8.23-3.66c5.69-4.06,10.97-8.74,15.86-14.03c3.01-3.25,5.94-6.52,8.77-9.78c-0.53,1.62-0.9,3.27-1.16,4.91
					c-0.61,4.06,0.11,7.53,2.15,10.36c2.43,2.85,4.97,4.08,7.61,3.66c2.64-0.39,5.18-1.62,7.62-3.66c2.44-2.02,4.78-4.47,7.02-7.31
					c2.23-2.85,4.16-5.28,5.79-7.31c1.23-1.23,2.44-1.23,3.66,0c1.23,1.21,2.54,2.94,3.97,5.18c1.42,2.24,3.25,4.37,5.49,6.4
					c2.23,2.04,4.78,3.05,7.62,3.05c3.66,0,8.33-2.02,14.02-6.1c2.44-2.02,4.89-4.06,7.31-6.1c2.44-2.02,5.49-4.87,9.15-8.53
					C785.84,399.26,786.04,398.55,785.64,397.94z M393.44,430.12c-2.4,1.27-12.68,5.53-14.52,1.04c-1.63-4.05-2.54-8.73-2.74-14.02
					c-0.03-0.58-0.05-1.15-0.09-1.73c0.07-4.52,0.7-9.38,2.32-14.21c0,0-4.94-3.82-10.8-2.02c-1.58,0.49-2.55,3.55-2.81,7.75
					c-0.01,0-0.01,0.01-0.01,0.01c-0.24,0.51-0.51,1.07-0.81,1.66c-1.84,3.66-3.87,7.02-6.1,10.07c-2.24,3.05-4.37,5.18-6.4,6.4
					c-2.05,1.23-3.05-0.19-3.05-4.26c0-3.54,0.38-8.22,1.15-14.06v-0.05c0.77-3.37,1.9-6.77,3.52-9.97c0,0-5.51-3.14-10,0
					c-4.51,3.14-6.42,34.82,5.33,32.02c2.43,0,4.87-1.12,7.31-3.36c2.44-2.23,4.67-4.98,6.71-8.23c0.93-1.5,1.74-2.86,2.42-4.1
					c0.38,4.87,1.5,10.24,3.45,14.7c1.96,4.48,4.74,8.04,8.46,9.32l-0.03,0.01c0.58,0.35,1.79,0.61,3.56,0.54
					c0.4,0,0.82-0.03,1.27-0.08c5.21-0.51,14.13-3.39,25.92-12.31c0.18-1.46,0.38-3.5,0.34-5.11
					C403.04,424.19,398.18,427.53,393.44,430.12z"/>
				<path class="st5" d="M485.71,495.8c-4.31,0.42-8.52,0.77-12.64,1.04c-0.59,0.04-1.19,0.08-1.78,0.12
					c-4.62,0.28-9.12,0.49-13.52,0.59c-0.26,0.01-0.53,0.01-0.78,0.01c-46.15,1.13-80.51-7-106.73-19.7l-12.28,3.12
					c26.83,16.5,64.25,26.81,120.53,21.47c0.69-0.07,1.39-0.13,2.09-0.2c4.28-0.43,8.65-0.96,13.14-1.58
					c0.55-0.08,1.11-0.15,1.66-0.23c3.44-0.49,6.95-1.03,10.53-1.62c43.64-7.3,82.25-5.82,91.48,16.76
					c0.24,0.58,3.13-0.38,2.81-1.15C570.14,489.82,530.91,491.39,485.71,495.8z M341.29,473.2c-1.5,0.35-3,0.73-4.49,1.12h-0.01
					c-2.09,0.54-4.18,1.12-6.27,1.73c1.88,1.34,3.82,2.63,5.82,3.91c2.39-0.63,4.79-1.23,7.18-1.78h0.01
					c1.7-0.39,3.39-0.77,5.09-1.11C346.08,475.82,343.65,474.52,341.29,473.2z M221.86,179.34c-6.75-10.35-19.05-20.19-41.46-20.58
					c-12.82-0.23-28.96,2.64-49.24,10.27h-0.01c-9.01,3-4.44,9.43-0.97,7.75c3.43-1.67-0.07-4.01,8.16-7.1
					c13.33-4.55,25.33-7.13,35.92-7.72c60.65,2.94,46.22,87.04,32.98,124.25l-1.47,4.01c-6.98,18.61-22.86,41.85-24.22,43.83
					c-5.07,6.03-10.44,11.44-16.05,16.02c-4.08,3.27-8.04,5.69-11.9,7.31c-3.86,1.63-6.91,2.05-9.14,1.23
					c-2.24-0.81-3.27-2.85-3.05-6.1c0.19-3.25,2.33-7.92,6.4-14.02c7.31-10.98,18.39-21.85,33.24-32.63
					c7.64-5.53,15.53-10.57,23.71-15.09l1.01-3.77c-9.34,5.05-18.29,10.73-26.85,17.02c-14.64,10.78-25.83,21.66-33.55,32.63
					c-4.87,6.92-7.42,12.4-7.61,16.46c-0.22,4.08,1.11,6.71,3.95,7.93c2.85,1.21,6.5,1.12,10.98-0.31
					c4.47-1.42,9.14-3.97,14.02-7.62c0.15-0.11,0.3-0.2,0.42-0.32c0.01,0,0.03,0,0.04-0.01c11.12-8.25,20.69-19.27,28.81-31.6
					c7.35-11.13,13.54-23.35,18.65-35.56l1.62-3.97c0,0,0,0,0.01-0.01c2.9-7.27,5.44-14.51,7.62-21.48
					C234.34,226.79,233.6,197.34,221.86,179.34z M307.14,447.5c-4.47-4.6-37.34-46.85-45.91-54.14l-3.05-2.44
					c-2.85-2.04-5.38-3.55-7.62-4.57c-2.24-1.01-4.37-1.93-6.4-2.74c-4.08-0.81-7.22-0.81-9.46,0c-2.23,0.81-3.45,2.04-3.66,3.66
					c-0.2,1.62,0.4,3.25,1.84,4.87c1.42,1.63,3.97,2.66,7.62,3.05c4.22,0.78,9.55,0.63,15.96-0.42c0,0-2.31-2.46-2.66-2.46
					c-0.01,0-0.01,0-0.01,0c-0.01,0-0.03,0-0.03,0h-0.01c-5.42,0.65-9.64,0.58-12.64-0.18c-5.7-0.81-7.83-2.13-6.41-3.97
					c1.43-1.82,4.17-2.32,8.25-1.52c1.62,0.42,3.55,1.13,5.79,2.15c2.23,1.01,4.36,2.13,6.4,3.35l2.44,2.44
					c2.06,1.65,4.05,3.4,5.96,5.2c17.69,19.41,33.24,51.81,65.64,75.3l10.36-2.87C326.76,464.82,316.16,456.34,307.14,447.5z
					 M339.91,308.59c-0.42-6.91-2.24-13.51-5.49-19.81c-3.27-6.3-8.14-11.69-14.64-16.17c-11.79-7.31-26.13-10.15-42.98-8.53
					c-10.38,1-20.74,3.04-31.12,6.11c-6.5,1.92-13,4.25-19.5,6.99c-2.97,1.25-5.91,2.56-8.81,3.94c-0.35,1.09-0.88,2.67-1.23,3.76
					c4.09-2,8.26-3.85,12.48-5.57c5.65-2.32,11.27-4.33,16.84-6.02c11.03-3.37,21.87-5.53,32.55-6.48
					c16.06-1.42,28.96,1.93,38.72,10.07c5.29,4.87,8.95,10.27,10.98,16.15c2.02,5.9,2.94,12.1,2.74,18.6
					c-0.2,6.52-1.43,13.02-3.66,19.51c-2.24,6.52-5.18,12.42-8.84,17.69c-7.73,10.97-16.37,19.72-25.92,26.22
					c-9.31,6.34-20.26,11.52-32.86,15.55l3.18,2.46c12.6-3.27,24.74-8.56,36.38-15.87c12-7.52,21.85-16.96,29.58-28.35
					c3.66-6.1,6.6-12.6,8.84-19.51C339.38,322.42,340.3,315.51,339.91,308.59z"/>
			</g>
			<g>
				<path class="st5" d="M469.9,495.14c-7.71-9.69-19.32-17.12-34.9-22.31c-18.3-5.69-38.62-7.42-60.98-5.18
					c-10.2,1.03-20.3,2.69-30.3,4.98c-0.81,0.18-1.63,0.38-2.44,0.57c-1.5,0.35-3,0.73-4.49,1.12h-0.01
					c-2.09,0.54-4.18,1.12-6.27,1.73c-0.5,0.15-1.01,0.3-1.51,0.45c-6.9,2.02-13.74,4.36-20.53,7.02
					c-21.34,8.33-41.06,19.42-59.15,33.22c-18.1,13.83-32.23,29.49-42.39,46.96c-6.09,10.58-8.14,18.81-6.09,24.7
					c2.02,5.9,10.15,7.42,24.39,4.57c0.81-0.4,1.12-1.12,0.92-2.13c-0.22-1.01-0.72-1.32-1.53-0.92c-6.5,1.21-11.39,1.52-14.64,0.92
					c-3.25-0.61-5.28-2.04-6.1-4.28c-0.81-2.23-0.61-5.18,0.62-8.84c1.21-3.66,3.05-7.72,5.48-12.2
					c10.57-17.48,24.9-32.82,42.99-46.03c18.08-13.21,37.7-23.79,58.85-31.71c7.49-2.81,14.97-5.24,22.46-7.26
					c0.67-0.19,1.36-0.38,2.04-0.55c2.39-0.63,4.79-1.23,7.18-1.78h0.01c1.7-0.39,3.39-0.77,5.09-1.11c0.72-0.15,1.42-0.3,2.13-0.43
					c8.16-1.63,16.36-2.81,24.52-3.51c21.13-1.82,40.04,0.11,56.7,5.8c10.71,4.09,18.87,9.69,24.44,16.81l-0.01-0.04L469.9,495.14z
					 M477.39,508.2c-0.8-2.04-1.7-3.99-2.73-5.88l-13.08,2c0.82,1.82,1.51,3.72,2.08,5.71c4.06,14.24,2.64,29.07-4.26,44.52
					c-6.92,14.64-17.6,28.57-32.02,41.77c-14.43,13.22-30.48,25.61-48.18,37.2c-5.83,3.82-11.69,7.5-17.61,11.04h-0.01l-3.01,1.77
					c-11.05,6.5-22.27,12.5-33.63,17.99c-18.51,8.95-35.27,16.46-50.32,22.56c1.04-3.12,3.89-15.13,8.56-32.01l0.88-3.18
					c7.07-25.34,17.96-60.44,32.64-93.17c0,0-8.53-2.44-13.41,7.92c-4.87,10.36-9.78,21.71-14.33,34.16
					c-7.72,21.11-13.94,40.71-18.53,56.39l-0.97,3.35c-3.59,12.48-6.06,22.16-7.33,27.62l-0.01,0.04c-0.49,2.12-0.8,3.6-0.9,4.37
					l-0.61,3.66c-0.4,2.44-0.82,6.19-1.21,11.28c2.77,4.33,9.38,3.2,10.53-1.81c1.43-6.21,2.86-12.63,3.5-14.97
					c15.03-6.1,32.32-13.72,51.83-22.86c12.94-6.07,25.65-12.63,38.14-19.68h0.01l2.82-1.61l0.01-0.01
					c5.38-3.08,10.73-6.23,16.03-9.5c18.5-11.38,35.57-23.48,51.23-36.29c15.65-12.81,27.54-25.71,35.68-38.73
					C480.94,542.35,483.68,524.46,477.39,508.2z M472.18,498.24c-0.3-0.43-0.59-0.86-0.9-1.28c-4.62,0.28-9.12,0.49-13.52,0.59
					c0.34,0.49,0.67,0.97,0.99,1.47c0.66,1.04,1.28,2.12,1.85,3.23c4.28-0.43,8.65-0.96,13.14-1.58
					C473.24,499.85,472.72,499.04,472.18,498.24z"/>
				<path class="st5" d="M465.09,599.65c-2.18-0.52-4.08-0.27-5.72,0.83c-1.62,1.08-2.85,2.72-3.66,4.89
					c-0.81,2.16-1.1,4.35-0.81,6.51c0.25,2.18,1.48,3.54,3.66,4.08c2.16,1.1,4.08,0.96,5.7-0.41c1.64-1.33,2.87-3.1,3.68-5.29
					c0.81-2.16,1.08-4.2,0.81-6.11C468.47,602.24,467.26,600.75,465.09,599.65z"/>
				<path class="st5" d="M744.12,789.01c-6.42-10.4-29.65-31.85-106.41-6.45c-140.78,46.58-217.84,28.92-229.9-7.21
					c-7.19-21.59,11.13-45.17,43.6-56.07c29.84-10.01,67.49-11.43,108.79-9.91l3.02-2.91c-42.76-1.73-81.79-0.46-112.79,9.95
					c-34.13,11.46-53.26,36.65-45.5,59.92c6.45,19.34,30.09,32.59,64.87,36.35c42.66,4.63,101.05-4.79,168.85-27.23
					c76.8-25.41,98.16-2.47,102.87,5.15c6.03,9.77,4.47,22.79-3.71,31c-8.3,8.31-20.35,8.91-32.25,1.59
					c-0.72-0.43-1.65-0.22-2.09,0.5c-0.45,0.72-0.22,1.66,0.5,2.09c6.06,3.72,12.19,5.57,17.93,5.57c6.76,0,13.01-2.55,18.06-7.61
					C749.12,814.56,750.86,799.96,744.12,789.01z M569.12,706.71h-0.01l-2.98,2.9c7.91,0.34,15.94,0.78,24.06,1.28l0.86-2.98
					C583.64,707.45,576.35,707.05,569.12,706.71z M592.53,621.96c0.57,1.15,1.11,2.32,1.62,3.5c-0.09,5.76-0.7,12.31-1.82,19.65
					c-1.21,7.92-3.66,14.74-7.31,20.42c-2.44,3.66-4.68,4.39-6.71,2.15c-2.04-2.24-3.56-5.8-4.57-10.67
					c-1.03-4.89-1.21-10.36-0.61-16.46c0.61-6.1,2.33-11.38,5.18-15.86c4.47-6.1,10.15-8.33,17.07-6.71c0.81,0.4,1.31,0.2,1.52-0.62
					c0.2-0.81-0.11-1.21-0.92-1.21c-8.14-2.02-14.84-0.81-20.12,3.66c-2.44,2.09-4.51,4.8-6.19,8.08
					c-5.8,5.74-11.36,9.23-16.67,10.51c-5.9,1.43-13.12,0.72-21.65-2.13c0-2.43-0.51-3.86-1.52-4.26c-1.03-0.4-1.93-0.31-2.75,0.31
					c-0.81,0.61-1.21,1.52-1.21,2.74c0,1.21,1.01,2.24,3.05,3.05c0,3.25-0.31,6.5-0.92,9.76c-0.61,3.25-1.73,6.1-3.35,8.54
					c-1.63,2.04-3.66,3.66-6.1,4.87c-2.44,1.21-4.88,1.03-7.31-0.61c-2.44-1.62-4.08-4.17-4.89-7.62
					c-0.81-3.45-1.01-7.02-0.61-10.67c0.4-3.66,1.42-7.11,3.05-10.36c1.62-3.25,3.44-5.49,5.49-6.71c1.62-0.81,3.55-1.21,5.79-1.21
					c2.23,0,3.75,1.01,4.57,3.05c0.39,0.81,0.92,1.01,1.53,0.61c0.61-0.4,0.7-1.01,0.3-1.84c-0.81-2.02-2.54-3.44-5.18-4.26
					c-2.64-0.81-5.18-0.81-7.62,0c-4.06,1.21-7.41,3.56-10.05,7.02c-0.08,0.09-0.15,0.2-0.22,0.3c-3.87,3.78-8.99,8.04-15.34,12.81
					c-8.14,6.1-15.45,10.16-21.94,12.2c-2.21,0.69-3.95,0.76-5.24,0.23c-1.24-1.05-2.28-2.59-2.67-4.84
					c-0.01-0.28-0.03-0.57-0.03-0.88c0-1.78,0.16-3.66,0.49-5.61c1.57-6.19,4.3-12.59,4.3-16.64c0-4.25-3.02-5.94-13.59-2.11
					c-0.8,0.28-1.65,0.61-2.54,0.96c-0.12,0.05-0.26,0.11-0.39,0.16c0,0,0.2,0.05,0.51,0.24c1.03,0.59,3.16,2.67,1.85,9.2
					c-0.58,2.91-1.36,7.15-1.19,11.2c0,0,0,0,0,0.01c0.35,7.64,4.12,14.57,19.1,10.51c6.49-2.04,13.91-6.19,22.25-12.51
					c4.13-3.12,7.8-6.07,10.98-8.85c-0.67,1.66-1.19,3.39-1.52,5.2c-0.81,4.26-0.72,8.45,0.3,12.5c1.03,4.08,3.36,7.33,7.02,9.76
					c3.25,2.05,7.02,2.66,11.28,1.84c4.26-0.81,7.62-3.25,10.05-7.31c1.63-2.85,2.64-5.8,3.05-8.84c0.4-3.05,0.81-6.19,1.23-9.46
					c8.93,2.85,16.46,3.36,22.56,1.52c4.39-1.32,8.99-3.95,13.79-7.89c-1.21,3.23-2.05,6.56-2.52,10.03
					c-0.61,4.48-0.61,8.95,0,13.41c0.61,4.48,1.94,8.34,3.97,11.59c2.02,3.25,4.67,5.18,7.92,5.79c3.25,0.61,6.5-1.31,9.76-5.79
					c4.06-6.1,6.61-12.7,7.62-19.82c0.8-5.57,1.4-11.09,1.82-16.56c4.91,14.43,5.53,30.42,3.6,46.46l-0.46,3.51
					c-0.11,0.73-0.2,1.46-0.32,2.19c-1.57,6.81-3.62,14.76-6.17,23.86c-0.09,0.34-0.2,0.67-0.3,1.01c-0.23,0.73-0.88,2.98-0.88,2.98
					c-2.05,6.83-4.39,13.6-7.07,20.34c-0.77,1.96-1.58,3.9-2.42,5.86c-4.28,9.96-8.96,19.31-14.03,28.06
					c-5.07,8.73-10.46,15.34-16.15,19.81c-6.91,4.48-12.6,5.59-17.08,3.36c-4.47-2.24-6.91-7.42-7.31-15.55
					c-0.4-9.76,1.84-18.91,6.71-27.45c4.47-7.79,10.01-15.26,16.68-22.36c0.62-0.67,1.27-1.35,1.92-2.02
					c3.85-3.95,7.81-7.77,11.88-11.47l3.28-2.89c2.83-2.48,5.71-4.94,8.64-7.3c7.66-6.17,14.72-11.9,21.19-17.22l0.43-3.41
					c-6.46,5.63-13.78,11.58-21.93,17.89c-4.12,3.18-8.08,6.49-11.94,9.88l-3.23,2.91c-3.37,3.08-6.67,6.22-9.82,9.46
					c-1.13,1.16-2.24,2.33-3.31,3.52c-6.3,6.9-11.7,14.16-16.22,21.79c-5.28,8.93-7.52,18.49-6.71,28.66
					c0.82,8.93,3.77,14.72,8.85,17.38c5.09,2.63,11.69,1.71,19.81-2.75c1.97-1.2,3.9-2.6,5.82-4.18c0,0.01-0.01,0.03-0.01,0.03
					c21.44-15.68,37.38-43.91,47.08-71.37l1.04-2.97c5.45-16.1,8.72-31.75,9.69-44.28l0.2-3.24c0.07-1.42,0.11-2.79,0.11-4.12
					C617.83,621.02,592.53,621.96,592.53,621.96z M879.39,632.68c-7.17-21.7-36.87-38.45-72.21-40.73
					c-31.28-2-63.24,11.4-91.4,36.64c-2.86,2.56-6.52,5.63-10.86,8.04c-1.69,0.84-3.2,1.48-4.36,1.75
					c-5.9,1.43-13.1,0.72-21.65-2.13c0-2.43-0.51-3.86-1.52-4.26c-1.01-0.4-1.93-0.31-2.74,0.31c-0.82,0.61-1.21,1.52-1.21,2.74
					c0,1.21,1,2.24,3.05,3.05c0,3.25-0.31,6.5-0.92,9.76c-0.61,3.25-1.74,6.1-3.36,8.54c-1.63,2.04-3.66,3.66-6.1,4.87
					c-2.43,1.21-4.87,1.03-7.31-0.61c-2.44-1.62-4.06-4.17-4.87-7.62c-0.82-3.45-1.01-7.02-0.62-10.67
					c0.42-3.66,1.43-7.11,3.05-10.36c1.62-3.25,3.45-5.49,5.49-6.71c1.62-0.81,3.55-1.21,5.79-1.21c2.23,0,3.75,1.01,4.57,3.05
					c0.4,0.81,0.92,1.01,1.52,0.61c0.61-0.4,0.7-1.01,0.31-1.84c-0.82-2.02-2.55-3.44-5.18-4.26c-2.66-0.81-5.18-0.81-7.62,0
					c-4.08,1.21-7.41,3.56-10.07,7.02c-0.01,0.01-0.01,0.01-0.01,0.03c-6.02,6.02-12.1,12.09-18.27,18.26
					c-4.62,4.62-9.26,9.08-13.94,13.43v3.05c5.05-4.63,10-9.31,14.86-14.03c4.44-4.32,8.89-8.76,13.33-13.31
					c-0.49,1.34-0.88,2.73-1.15,4.16c-0.81,4.26-0.7,8.45,0.31,12.5c1.01,4.08,3.35,7.33,7,9.76c3.25,2.05,7.02,2.66,11.28,1.84
					c4.28-0.81,7.62-3.25,10.07-7.31c1.62-2.85,2.65-5.8,3.05-8.84c0.4-3.05,0.81-6.19,1.21-9.46c8.95,2.85,16.46,3.36,22.56,1.52
					c6.1-1.84,12.6-6.19,19.51-13.1c21.94-20.71,52.45-34.29,86-32.14c2.79,0.19,5.55,0.47,8.26,0.82
					c57.46,18.1,65.65,58.74,20.19,90.14c-20.31,14.02-49.4,22.85-76.64,27.15c-9.03,0.77-18.58,1.26-28.69,1.44
					c-12.66,0.24-26.48,0.05-42.27-0.58c-0.07-0.01-0.14-0.01-0.18-0.01c-20.71-0.84-42.12-2.33-62.82-3.78
					c-5.21-0.36-10.42-0.73-15.59-1.08l-0.97,2.98c5.41,0.36,10.86,0.76,16.36,1.13c20.71,1.44,42.14,2.94,62.84,3.77
					c0.05,0.01,0.12,0.01,0.18,0.03c15.87,0.63,29.77,0.82,42.49,0.58c60.29-1.11,101.14-12.43,128.52-35.64
					C882.57,661.69,883.12,643.97,879.39,632.68z"/>
			</g>
		</g>
		<g>
			<path class="st5" d="M676.16,507.72c0.28-0.55,6.77-3.64,3.72,12.35c-0.89,4.69-2.75,9.22-4.94,13.74
				c-2.2,4.52-4.76,8.85-7.69,13c-2.93,4.16-5.74,7.82-8.42,10.99c7.57,12.45,15.81,18.32,24.73,17.58
				c8.91-0.73,16.91-7.08,23.99-19.05c0.49-0.49,0.92-0.61,1.28-0.37c0.37,0.25,0.3,0.61-0.18,1.1
				c-3.91,6.59-8.12,11.54-12.64,14.84c-4.52,3.3-9.1,5.01-13.74,5.13c-4.64,0.13-9.16-1.22-13.55-4.03c-4.4-2.8-8.42-7.14-12.09-13
				c-3.66,4.16-8.12,8.42-13.37,12.82c-5.25,4.4-10.69,7.57-16.3,9.52c-7.09,2.44-13,2.2-17.77-0.73c-4.76-2.93-7.82-7.26-9.16-13
				c-1.35-5.73-0.43-12.15,2.75-19.23c3.17-7.08,9.4-13.43,18.68-19.05c5.62-3.42,12.33-6.59,20.15-9.53
				c-1.71-7.33-2.75-15.26-3.11-23.81c-0.37-8.54,1.4-16.24,5.31-23.08c3.66-5.86,7.45-9.76,11.36-11.72
				c3.9-1.95,7.57-2.56,10.99-1.83c3.42,0.73,6.35,2.63,8.79,5.68c2.44,3.06,4.03,6.72,4.76,10.99c0.73,4.28,0.37,8.85-1.1,13.74
				c-1.47,4.89-4.4,9.65-8.79,14.29c-3.42,3.42-7.27,6.41-11.54,8.97c-4.28,2.56-8.49,4.82-12.64,6.78
				c1.47,6.59,3.3,13.07,5.5,19.42c2.2,6.35,4.51,11.72,6.96,16.12c2.44-2.93,5.13-6.41,8.06-10.44c2.93-4.03,5.38-8.39,7.42-12.86
				c2.3-5.03,3.21-8.86,4.05-13.33C678.74,513.7,677.79,510.91,676.16,507.72z M655.89,558.91c-3.42-5.61-6.23-11.54-8.42-17.77
				c-2.2-6.23-4.03-12.51-5.5-18.87c-3.91,1.71-7.51,3.24-10.81,4.58c-3.3,1.35-6.29,2.99-8.97,4.95
				c-7.09,4.39-12.15,9.77-15.2,16.12c-3.06,6.35-4.34,12.27-3.85,17.77c0.49,5.49,2.75,9.89,6.78,13.19
				c4.03,3.3,9.46,3.97,16.3,2.01c5.37-1.71,10.81-4.82,16.3-9.34C648.01,567.03,652.47,562.82,655.89,558.91z M645.27,519.34
				c4.15-1.95,8.18-4.09,12.09-6.41c3.9-2.32,7.57-5.19,10.99-8.61c6.59-6.83,9.95-13.74,10.07-20.7
				c0.12-6.96-1.47-12.45-4.76-16.48c-3.3-4.03-7.64-5.74-13-5.13c-5.38,0.61-10.38,5.07-15.02,13.37
				c-1.47,2.93-2.44,6.29-2.93,10.07c-0.49,3.79-0.67,7.69-0.55,11.72c0.12,4.03,0.49,7.94,1.1,11.72
				C643.86,512.69,644.53,516.17,645.27,519.34z"/>
		</g>
	</g>
</g>
</svg>
