<?xml version="1.0" encoding="utf-8"?>
<!-- Generator: Adobe Illustrator 23.0.3, SVG Export Plug-In . SVG Version: 6.00 Build 0)  -->
<svg version="1.1" id="Layer_1" xmlns="http://www.w3.org/2000/svg" xmlns:xlink="http://www.w3.org/1999/xlink" x="0px" y="0px"
	 viewBox="0 0 133.9 133.9" style="enable-background:new 0 0 133.9 133.9;" xml:space="preserve">
<style type="text/css">
	.st0{fill:#FFFFFF;}
	.st1{fill:#4D4D4A;}
</style>
<g id="Group_36" transform="translate(-748 -5706)">
	<g id="Group_35" transform="translate(117 1566)">
		<circle id="Ellipse_2" class="st0" cx="698" cy="4207" r="67"/>
	</g>
	<g>
		<path class="st1" d="M822.9,5778.3c-0.4-0.3-0.9-0.5-1.4-0.7c-0.3-0.9-0.9-1.7-1.5-2.4c-2.4-2.4-6.2-2.7-8.9-0.8
			c-2.7-1.9-6.5-1.6-8.9,0.8c-2.7,2.7-2.7,7.2,0,9.9l8.9,8.9l4-4l7.9,7.9l8.9-8.9c2.7-2.7,2.7-7.2,0-9.9
			C829.3,5776.7,825.6,5776.4,822.9,5778.3z M813.1,5787.9l-2.1,2.1l-6.9-6.9c-1.6-1.6-1.6-4.3,0-5.9c1.6-1.6,4.3-1.6,5.9,0l1,1l1-1
			c1.6-1.6,4.3-1.6,5.9,0c0,0,0,0,0,0c-1.5,0.2-2.9,0.8-4,2C811.6,5781.5,811.3,5785.2,813.1,5787.9z M829.8,5787l-6.9,6.9l-6.9-6.9
			c-1.6-1.6-1.6-4.3,0-5.9c1.6-1.6,4.3-1.6,5.9,0l1,1l1-1c1.6-1.6,4.3-1.6,5.9,0C831.4,5782.7,831.4,5785.4,829.8,5787z"/>
		<path class="st1" d="M836.1,5747l0-4.9c0-1.4-0.6-2.8-1.6-3.8c-2.1-2.1-5.5-2.1-7.6,0c-1,1-1.6,2.4-1.6,3.8l0,4.9h-5.1l0-4.9
			c0-1.4-0.6-2.8-1.6-3.8c-2.1-2.1-5.5-2.1-7.6,0c-1,1-1.6,2.4-1.6,3.8l0,4.9h-5.1l0-4.9c0-1.4-0.6-2.8-1.6-3.8
			c-2.1-2.1-5.5-2.1-7.6,0c-1,1-1.6,2.4-1.6,3.8l0,4.9h-9.9l1,63.2h47.4l12.8-12.8l1-50.5L836.1,5747z M828.2,5742.2
			c0-0.7,0.3-1.3,0.7-1.8c1-1,2.6-1,3.6,0c0.5,0.5,0.7,1.1,0.7,1.8l0,8.6c0,0.7-0.3,1.3-0.7,1.8c-1,1-2.6,1-3.6,0
			c-0.5-0.5-0.8-1.1-0.7-1.8L828.2,5742.2z M812.4,5742.2c0-0.7,0.3-1.3,0.7-1.8c1-1,2.6-1,3.6,0c0.5,0.5,0.7,1.1,0.7,1.8l0,8.6
			c0,0.7-0.3,1.3-0.7,1.8c-1,1-2.6,1-3.6,0c-0.5-0.5-0.8-1.1-0.7-1.8L812.4,5742.2z M796.6,5742.2c0-0.7,0.3-1.3,0.7-1.8
			c1-1,2.6-1,3.6,0c0.5,0.5,0.7,1.1,0.7,1.8l0,8.6c0,0.7-0.3,1.3-0.7,1.8c-1,1-2.6,1-3.6,0c-0.5-0.5-0.8-1.1-0.7-1.8L796.6,5742.2z
			 M786.7,5749.8l7.1,0v0.9c0,1.4,0.6,2.8,1.6,3.8c2.1,2.1,5.5,2.1,7.6,0c1-1,1.6-2.4,1.6-3.8l0-0.9h5.1v0.9c0,1.4,0.6,2.8,1.6,3.8
			c2.1,2.1,5.5,2.1,7.6,0c1-1,1.6-2.4,1.6-3.8l0-0.9h5.1v0.9c0,1.4,0.6,2.8,1.6,3.8c2.1,2.1,5.5,2.1,7.6,0c1-1,1.6-2.4,1.6-3.8
			l0-0.9h7.1l-0.2,11.1h-56.1L786.7,5749.8z M786.9,5763.7l56,0l-0.6,31.8h-2.2v-28.7h-50.3v38.4h40.6v2.3l-42.7,0L786.9,5763.7z
			 M830.4,5795.5v6.9h-37.8v-32.8h44.7v25.9H830.4z M833.2,5798.3h7.1l-7.1,7.1V5798.3z"/>
		<path class="st1" d="M795.4,5786.4l0,13.3h9.3l0-2.8h-6.5v-14.4l-2.8,0L795.4,5786.4z"/>
		<path class="st1" d="M795.4,5780.4l0-3.8l2.8,0v3.8H795.4z"/>
	</g>
</g>
</svg>
