<?xml version="1.0" encoding="utf-8"?>
<!-- Generator: Adobe Illustrator 23.0.3, SVG Export Plug-In . SVG Version: 6.00 Build 0)  -->
<svg version="1.1" id="Layer_1" xmlns="http://www.w3.org/2000/svg" xmlns:xlink="http://www.w3.org/1999/xlink" x="0px" y="0px"
	 viewBox="0 0 133.9 133.9" style="enable-background:new 0 0 133.9 133.9;" xml:space="preserve">
<style type="text/css">
	.st0{fill:#FFFFFF;}
	.st1{fill:#4D4D4A;}
</style>
<g id="Group_36" transform="translate(-748 -5706)">
	<g id="Group_35" transform="translate(117 1566)">
		<circle id="Ellipse_2" class="st0" cx="698" cy="4207" r="67"/>
	</g>
	<g>
		<path class="st1" d="M834,5754.3l1.7-2l3.2,2.7l-1.7,2L834,5754.3z"/>
		<path class="st1" d="M829.5,5747c-0.6-0.5-1-1.3-1-2.1v-0.9c0-1.5,1.2-2.7,2.7-2.8l-0.1-2.7c-2.9,0.1-5.3,2.5-5.3,5.5v0.9
			c0,1.6,0.7,3.1,1.9,4.2l4.7,4l1.7-2L829.5,5747z"/>
		<path class="st1" d="M847.1,5733.2c-2.9,0-5.6,1.1-7.6,3.2l-0.3,0.3l-0.3-0.3c-2-2-4.8-3.2-7.6-3.2c-6,0-10.8,4.9-10.8,10.8v0.9
			c0,0.8,0.1,1.5,0.2,2.2l-8-3.2h-16.6l-13.6,5.4c-4.6,1.8-7.6,6.2-7.6,11.2v36.9h8v12.9l12,6l9.4-4l9.4,4l12-6v-12.9h8v-36.3
			l5.4,4.5l14.9-12.6c2.4-2.1,3.8-5.1,3.8-8.3v-0.9C858,5738,853.1,5733.2,847.1,5733.2z M819.9,5749.7l-7.7,8.7l2.6,6.6l-8.6,7.7
			l5.9-26h0L819.9,5749.7z M804.4,5768.6l-5-22.1h10L804.4,5768.6z M796.6,5746.6L796.6,5746.6l5.9,26l-8.6-7.7l2.6-6.6l-7.7-8.7
			L796.6,5746.6z M778.7,5762.4c2.8,6.5,4.2,13.5,4.2,20.6v6.4h-5.4v-28.9c0-0.2,0-0.4,0-0.6L778.7,5762.4z M777.6,5794.8v-2.7h5.4
			v2.7H777.6z M785.6,5808.7V5783c0-7.5-1.5-14.8-4.4-21.6l-2.4-5.5c1-1.8,2.6-3.3,4.7-4.1l2.7-1.1l7.3,8.2l-2.7,6.8l12.3,10.9v33.3
			l-8,3.4L785.6,5808.7z M823.1,5808.7l-9.4,4.7l-8-3.4v-33.3l12.3-10.9l-2.7-6.8l7.1-7.9c0.5,0.8,1.2,1.5,1.9,2.1l5,4.2l-1.7,4
			c-2.9,6.9-4.4,14.2-4.4,21.6V5808.7z M831.2,5760.5v28.9h-5.4v-6.4c0-7.1,1.4-14,4.2-20.6l1.1-2.6
			C831.1,5760.1,831.2,5760.3,831.2,5760.5z M825.8,5794.8v-2.7h5.4v2.7H825.8z M855.3,5744.8c0,2.4-1,4.7-2.9,6.2l-13.2,11.2
			l-13.2-11.2c-1.8-1.5-2.9-3.8-2.9-6.2v-0.9c0-4.5,3.6-8.1,8.1-8.1c2.2,0,4.2,0.8,5.8,2.4l2.2,2.2l2.2-2.2c1.5-1.5,3.6-2.4,5.8-2.4
			c4.5,0,8.1,3.6,8.1,8.1V5744.8z"/>
		<path class="st1" d="M788.3,5801.5h2.7v2.7h-2.7V5801.5z"/>
		<path class="st1" d="M788.3,5796.1h2.7v2.7h-2.7V5796.1z"/>
		<path class="st1" d="M785.7,5765.8c1.7,5.6,2.6,11.3,2.6,17.2v10.4h2.7V5783c0-6.1-0.9-12.2-2.8-18L785.7,5765.8z"/>
		<path class="st1" d="M817.8,5802.8h2.7v2.7h-2.7V5802.8z"/>
		<path class="st1" d="M817.8,5797.5h2.7v2.7h-2.7V5797.5z"/>
		<path class="st1" d="M817.8,5792.1h2.7v2.7h-2.7V5792.1z"/>
		<path class="st1" d="M811.1,5801.5c0,0.7-0.6,1.3-1.3,1.3c-0.7,0-1.3-0.6-1.3-1.3s0.6-1.3,1.3-1.3
			C810.5,5800.1,811.1,5800.7,811.1,5801.5z"/>
		<path class="st1" d="M811.1,5796.1c0,0.7-0.6,1.3-1.3,1.3c-0.7,0-1.3-0.6-1.3-1.3s0.6-1.3,1.3-1.3
			C810.5,5794.8,811.1,5795.4,811.1,5796.1z"/>
		<path class="st1" d="M811.1,5790.8c0,0.7-0.6,1.3-1.3,1.3c-0.7,0-1.3-0.6-1.3-1.3s0.6-1.3,1.3-1.3
			C810.5,5789.4,811.1,5790,811.1,5790.8z"/>
		<path class="st1" d="M811.1,5785.4c0,0.7-0.6,1.3-1.3,1.3c-0.7,0-1.3-0.6-1.3-1.3s0.6-1.3,1.3-1.3
			C810.5,5784.1,811.1,5784.7,811.1,5785.4z"/>
		<path class="st1" d="M811.1,5780.1c0,0.7-0.6,1.3-1.3,1.3c-0.7,0-1.3-0.6-1.3-1.3s0.6-1.3,1.3-1.3
			C810.5,5778.7,811.1,5779.3,811.1,5780.1z"/>
	</g>
</g>
</svg>
